<svg width="48" height="48" viewBox="0 0 48 48" fill="none" xmlns="http://www.w3.org/2000/svg">
<g clip-path="url(#clip0_347_126)">
<path d="M17.8862 14.9345H17.6587C17.6453 14.8691 17.6217 14.8116 17.5881 14.762C17.5551 14.7125 17.5147 14.6709 17.467 14.6373C17.4199 14.603 17.3676 14.5773 17.3101 14.5602C17.2527 14.5431 17.1927 14.5345 17.1303 14.5345C17.0166 14.5345 16.9135 14.5633 16.8212 14.6208C16.7295 14.6782 16.6564 14.7629 16.602 14.8749C16.5481 14.9868 16.5212 15.1241 16.5212 15.2867C16.5212 15.4494 16.5481 15.5867 16.602 15.6986C16.6564 15.8105 16.7295 15.8952 16.8212 15.9527C16.9135 16.0102 17.0166 16.0389 17.1303 16.0389C17.1927 16.0389 17.2527 16.0304 17.3101 16.0133C17.3676 15.9961 17.4199 15.9708 17.467 15.9371C17.5147 15.9029 17.5551 15.861 17.5881 15.8114C17.6217 15.7613 17.6453 15.7038 17.6587 15.639H17.8862C17.8691 15.735 17.8379 15.8209 17.7926 15.8968C17.7474 15.9726 17.6911 16.0371 17.6239 16.0903C17.5566 16.1429 17.4811 16.183 17.3973 16.2105C17.3141 16.238 17.2251 16.2518 17.1303 16.2518C16.9701 16.2518 16.8276 16.2126 16.7029 16.1343C16.5781 16.0561 16.48 15.9448 16.4084 15.8004C16.3369 15.6561 16.3011 15.4849 16.3011 15.2867C16.3011 15.0886 16.3369 14.9174 16.4084 14.773C16.48 14.6287 16.5781 14.5174 16.7029 14.4391C16.8276 14.3609 16.9701 14.3217 17.1303 14.3217C17.2251 14.3217 17.3141 14.3355 17.3973 14.363C17.4811 14.3905 17.5566 14.4309 17.6239 14.4841C17.6911 14.5367 17.7474 14.6009 17.7926 14.6767C17.8379 14.7519 17.8691 14.8379 17.8862 14.9345ZM18.2245 16.2261V14.8171H18.4336V15.0299H18.4483C18.474 14.9602 18.5205 14.9036 18.5877 14.8602C18.655 14.8168 18.7308 14.7951 18.8152 14.7951C18.8311 14.7951 18.851 14.7954 18.8749 14.796C18.8987 14.7966 18.9167 14.7975 18.929 14.7987V15.0189C18.9216 15.017 18.9048 15.0143 18.8785 15.0106C18.8528 15.0063 18.8256 15.0042 18.7969 15.0042C18.7284 15.0042 18.6672 15.0186 18.6134 15.0473C18.5602 15.0754 18.518 15.1146 18.4868 15.1647C18.4563 15.2143 18.441 15.2708 18.441 15.3344V16.2261H18.2245ZM19.7335 16.2554C19.5977 16.2554 19.4806 16.2255 19.3821 16.1655C19.2843 16.105 19.2088 16.0206 19.1556 15.9124C19.103 15.8035 19.0767 15.6769 19.0767 15.5326C19.0767 15.3883 19.103 15.2611 19.1556 15.151C19.2088 15.0403 19.2828 14.9541 19.3775 14.8923C19.4729 14.8299 19.5843 14.7987 19.7115 14.7987C19.7848 14.7987 19.8573 14.811 19.9289 14.8354C20.0004 14.8599 20.0655 14.8996 20.1242 14.9547C20.183 15.0091 20.2297 15.0813 20.2646 15.1712C20.2995 15.2611 20.3169 15.3717 20.3169 15.5032V15.595H19.2308V15.4078H20.0967C20.0967 15.3283 20.0808 15.2574 20.049 15.195C20.0178 15.1326 19.9732 15.0834 19.9151 15.0473C19.8576 15.0112 19.7897 14.9932 19.7115 14.9932C19.6252 14.9932 19.5506 15.0146 19.4876 15.0574C19.4252 15.0996 19.3772 15.1546 19.3436 15.2225C19.31 15.2904 19.2932 15.3632 19.2932 15.4408V15.5656C19.2932 15.672 19.3115 15.7622 19.3482 15.8362C19.3855 15.9096 19.4372 15.9656 19.5032 16.0041C19.5693 16.042 19.646 16.061 19.7335 16.061C19.7903 16.061 19.8417 16.053 19.8876 16.0371C19.9341 16.0206 19.9741 15.9961 20.0077 15.9637C20.0414 15.9307 20.0674 15.8897 20.0857 15.8408L20.2949 15.8995C20.2729 15.9704 20.2359 16.0328 20.1839 16.0866C20.1319 16.1398 20.0677 16.1814 19.9912 16.2114C19.9148 16.2408 19.8289 16.2554 19.7335 16.2554ZM21.0608 16.2591C20.9715 16.2591 20.8905 16.2423 20.8177 16.2086C20.745 16.1744 20.6872 16.1252 20.6444 16.061C20.6016 15.9961 20.5802 15.9179 20.5802 15.8261C20.5802 15.7454 20.5961 15.68 20.6279 15.6298C20.6597 15.5791 20.7022 15.5393 20.7554 15.5106C20.8086 15.4818 20.8673 15.4604 20.9315 15.4464C20.9963 15.4317 21.0614 15.4201 21.1269 15.4115C21.2125 15.4005 21.2819 15.3922 21.3351 15.3867C21.3889 15.3806 21.4281 15.3705 21.4525 15.3565C21.4776 15.3424 21.4901 15.3179 21.4901 15.2831V15.2757C21.4901 15.1852 21.4654 15.1149 21.4158 15.0647C21.3669 15.0146 21.2926 14.9895 21.1929 14.9895C21.0896 14.9895 21.0085 15.0122 20.9498 15.0574C20.8911 15.1027 20.8498 15.151 20.826 15.2023L20.6205 15.129C20.6572 15.0433 20.7061 14.9767 20.7673 14.929C20.8291 14.8807 20.8963 14.847 20.9691 14.8281C21.0425 14.8085 21.1146 14.7987 21.1856 14.7987C21.2308 14.7987 21.2828 14.8042 21.3415 14.8152C21.4009 14.8256 21.458 14.8473 21.5131 14.8804C21.5687 14.9134 21.6149 14.9632 21.6516 15.0299C21.6883 15.0965 21.7066 15.1858 21.7066 15.2977V16.2261H21.4901V16.0353H21.4791C21.4645 16.0658 21.44 16.0986 21.4057 16.1334C21.3715 16.1683 21.3259 16.1979 21.2691 16.2224C21.2122 16.2469 21.1428 16.2591 21.0608 16.2591ZM21.0939 16.0646C21.1795 16.0646 21.2516 16.0478 21.3103 16.0142C21.3697 15.9805 21.4143 15.9371 21.4443 15.8839C21.4748 15.8307 21.4901 15.7748 21.4901 15.716V15.5179C21.481 15.5289 21.4608 15.539 21.4296 15.5482C21.399 15.5567 21.3635 15.5644 21.3232 15.5711C21.2834 15.5772 21.2446 15.5827 21.2067 15.5876C21.1694 15.5919 21.1391 15.5956 21.1159 15.5986C21.0596 15.606 21.007 15.6179 20.9581 15.6344C20.9098 15.6503 20.8706 15.6745 20.8407 15.7069C20.8113 15.7387 20.7966 15.7821 20.7966 15.8371C20.7966 15.9124 20.8245 15.9692 20.8801 16.0078C20.9364 16.0457 21.0076 16.0646 21.0939 16.0646ZM22.7145 14.8171V15.0005H21.9843V14.8171H22.7145ZM22.1972 14.4795H22.4137V15.8225C22.4137 15.8836 22.4225 15.9295 22.4403 15.9601C22.4586 15.99 22.4818 16.0102 22.51 16.0206C22.5387 16.0304 22.569 16.0353 22.6008 16.0353C22.6246 16.0353 22.6442 16.034 22.6595 16.0316C22.6748 16.0285 22.687 16.0261 22.6962 16.0243L22.7402 16.2187C22.7255 16.2242 22.7051 16.2297 22.6788 16.2352C22.6525 16.2414 22.6191 16.2444 22.5788 16.2444C22.5176 16.2444 22.4577 16.2313 22.399 16.205C22.3409 16.1787 22.2926 16.1386 22.254 16.0848C22.2161 16.031 22.1972 15.9631 22.1972 15.8812V14.4795ZM23.6158 16.2554C23.48 16.2554 23.3629 16.2255 23.2645 16.1655C23.1666 16.105 23.0911 16.0206 23.0379 15.9124C22.9853 15.8035 22.959 15.6769 22.959 15.5326C22.959 15.3883 22.9853 15.2611 23.0379 15.151C23.0911 15.0403 23.1651 14.9541 23.2599 14.8923C23.3553 14.8299 23.4666 14.7987 23.5938 14.7987C23.6672 14.7987 23.7396 14.811 23.8112 14.8354C23.8827 14.8599 23.9479 14.8996 24.0066 14.9547C24.0653 15.0091 24.1121 15.0813 24.1469 15.1712C24.1818 15.2611 24.1992 15.3717 24.1992 15.5032V15.595H23.1131V15.4078H23.9791C23.9791 15.3283 23.9632 15.2574 23.9314 15.195C23.9002 15.1326 23.8555 15.0834 23.7974 15.0473C23.7399 15.0112 23.6721 14.9932 23.5938 14.9932C23.5076 14.9932 23.4329 15.0146 23.37 15.0574C23.3076 15.0996 23.2596 15.1546 23.2259 15.2225C23.1923 15.2904 23.1755 15.3632 23.1755 15.4408V15.5656C23.1755 15.672 23.1938 15.7622 23.2305 15.8362C23.2678 15.9096 23.3195 15.9656 23.3856 16.0041C23.4516 16.042 23.5283 16.061 23.6158 16.061C23.6727 16.061 23.724 16.053 23.7699 16.0371C23.8164 16.0206 23.8564 15.9961 23.8901 15.9637C23.9237 15.9307 23.9497 15.8897 23.9681 15.8408L24.1772 15.8995C24.1552 15.9704 24.1182 16.0328 24.0662 16.0866C24.0142 16.1398 23.95 16.1814 23.8736 16.2114C23.7971 16.2408 23.7112 16.2554 23.6158 16.2554ZM25.0606 16.2554C24.9432 16.2554 24.8395 16.2258 24.7496 16.1664C24.6597 16.1065 24.5894 16.0221 24.5386 15.9133C24.4879 15.8038 24.4625 15.6745 24.4625 15.5252C24.4625 15.3772 24.4879 15.2488 24.5386 15.14C24.5894 15.0311 24.66 14.947 24.7505 14.8877C24.841 14.8284 24.9456 14.7987 25.0642 14.7987C25.156 14.7987 25.2285 14.814 25.2817 14.8446C25.3355 14.8746 25.3764 14.9088 25.4046 14.9473C25.4333 14.9852 25.4556 15.0164 25.4715 15.0409H25.4899V14.3474H25.7064V16.2261H25.4972V16.0096H25.4715C25.4556 16.0353 25.433 16.0677 25.4037 16.1068C25.3743 16.1453 25.3324 16.1799 25.278 16.2105C25.2236 16.2404 25.1511 16.2554 25.0606 16.2554ZM25.0899 16.061C25.1768 16.061 25.2502 16.0383 25.3101 15.9931C25.37 15.9472 25.4156 15.8839 25.4468 15.8032C25.478 15.7219 25.4936 15.628 25.4936 15.5216C25.4936 15.4164 25.4783 15.3243 25.4477 15.2455C25.4171 15.166 25.3719 15.1042 25.3119 15.0602C25.252 15.0155 25.178 14.9932 25.0899 14.9932C24.9982 14.9932 24.9218 15.0167 24.8606 15.0638C24.8001 15.1103 24.7545 15.1736 24.7239 15.2537C24.694 15.3332 24.679 15.4225 24.679 15.5216C24.679 15.6219 24.6943 15.713 24.7248 15.7949C24.756 15.8763 24.8019 15.9411 24.8624 15.9894C24.9236 16.0371 24.9994 16.061 25.0899 16.061ZM26.8888 16.2261V14.3474H27.1053V15.0409H27.1236C27.1395 15.0164 27.1616 14.9852 27.1897 14.9473C27.2184 14.9088 27.2594 14.8746 27.3126 14.8446C27.3664 14.814 27.4392 14.7987 27.5309 14.7987C27.6496 14.7987 27.7541 14.8284 27.8447 14.8877C27.9352 14.947 28.0058 15.0311 28.0566 15.14C28.1073 15.2488 28.1327 15.3772 28.1327 15.5252C28.1327 15.6745 28.1073 15.8038 28.0566 15.9133C28.0058 16.0221 27.9355 16.1065 27.8456 16.1664C27.7557 16.2258 27.652 16.2554 27.5346 16.2554C27.4441 16.2554 27.3716 16.2404 27.3172 16.2105C27.2628 16.1799 27.2209 16.1453 27.1915 16.1068C27.1622 16.0677 27.1395 16.0353 27.1236 16.0096H27.098V16.2261H26.8888ZM27.1016 15.5216C27.1016 15.628 27.1172 15.7219 27.1484 15.8032C27.1796 15.8839 27.2252 15.9472 27.2851 15.9931C27.345 16.0383 27.4184 16.061 27.5052 16.061C27.5958 16.061 27.6713 16.0371 27.7318 15.9894C27.793 15.9411 27.8388 15.8763 27.8694 15.7949C27.9006 15.713 27.9162 15.6219 27.9162 15.5216C27.9162 15.4225 27.9009 15.3332 27.8703 15.2537C27.8404 15.1736 27.7948 15.1103 27.7337 15.0638C27.6731 15.0167 27.597 14.9932 27.5052 14.9932C27.4172 14.9932 27.3432 15.0155 27.2833 15.0602C27.2233 15.1042 27.1781 15.166 27.1475 15.2455C27.1169 15.3243 27.1016 15.4164 27.1016 15.5216ZM28.5528 16.7545C28.5161 16.7545 28.4834 16.7514 28.4547 16.7453C28.4259 16.7398 28.4061 16.7343 28.395 16.7288L28.4501 16.538C28.5027 16.5514 28.5492 16.5563 28.5895 16.5526C28.6299 16.549 28.6657 16.5309 28.6968 16.4985C28.7286 16.4667 28.7577 16.415 28.784 16.3435L28.8243 16.2334L28.3033 14.8171H28.5381L28.9271 15.9399H28.9418L29.3307 14.8171H29.5655L28.9675 16.4316C28.9405 16.5043 28.9072 16.5646 28.8675 16.6123C28.8277 16.6606 28.7815 16.6964 28.7289 16.7196C28.677 16.7428 28.6183 16.7545 28.5528 16.7545ZM16.3745 19.2261V17.3474H17.5009V17.5492H16.602V18.184H17.4165V18.3858H16.602V19.2261H16.3745ZM18.2758 19.2591C18.1866 19.2591 18.1055 19.2423 18.0328 19.2086C17.96 19.1744 17.9022 19.1252 17.8594 19.061C17.8166 18.9961 17.7952 18.9179 17.7952 18.8261C17.7952 18.7454 17.8111 18.68 17.8429 18.6298C17.8747 18.5791 17.9172 18.5393 17.9704 18.5106C18.0236 18.4818 18.0823 18.4604 18.1465 18.4464C18.2113 18.4317 18.2765 18.4201 18.3419 18.4115C18.4275 18.4005 18.4969 18.3922 18.5501 18.3867C18.6039 18.3806 18.6431 18.3705 18.6675 18.3565C18.6926 18.3424 18.7052 18.3179 18.7052 18.2831V18.2757C18.7052 18.1852 18.6804 18.1149 18.6308 18.0647C18.5819 18.0146 18.5076 17.9895 18.4079 17.9895C18.3046 17.9895 18.2236 18.0122 18.1648 18.0574C18.1061 18.1027 18.0649 18.151 18.041 18.2023L17.8355 18.129C17.8722 18.0433 17.9211 17.9767 17.9823 17.929C18.0441 17.8807 18.1113 17.847 18.1841 17.8281C18.2575 17.8085 18.3297 17.7987 18.4006 17.7987C18.4459 17.7987 18.4978 17.8042 18.5565 17.8152C18.6159 17.8256 18.673 17.8473 18.7281 17.8804C18.7837 17.9134 18.8299 17.9632 18.8666 18.0299C18.9033 18.0965 18.9216 18.1858 18.9216 18.2977V19.2261H18.7052V19.0353H18.6941C18.6795 19.0658 18.655 19.0986 18.6208 19.1334C18.5865 19.1683 18.541 19.1979 18.4841 19.2224C18.4272 19.2469 18.3578 19.2591 18.2758 19.2591ZM18.3089 19.0646C18.3945 19.0646 18.4666 19.0478 18.5254 19.0142C18.5847 18.9805 18.6293 18.9371 18.6593 18.8839C18.6899 18.8307 18.7052 18.7748 18.7052 18.716V18.5179C18.696 18.5289 18.6758 18.539 18.6446 18.5482C18.614 18.5567 18.5786 18.5644 18.5382 18.5711C18.4984 18.5772 18.4596 18.5827 18.4217 18.5876C18.3844 18.5919 18.3541 18.5956 18.3309 18.5986C18.2746 18.606 18.222 18.6179 18.1731 18.6344C18.1248 18.6503 18.0857 18.6745 18.0557 18.7069C18.0263 18.7387 18.0117 18.7821 18.0117 18.8371C18.0117 18.9124 18.0395 18.9692 18.0951 19.0078C18.1514 19.0457 18.2226 19.0646 18.3089 19.0646ZM19.5333 17.3474V19.2261H19.3168V17.3474H19.5333ZM19.8894 19.2261V19.061L20.6893 18.0336V18.0189H19.9151V17.8171H20.9682V17.9895L20.1903 19.0096V19.0243H20.9939V19.2261H19.8894ZM21.7419 19.2591C21.6527 19.2591 21.5716 19.2423 21.4989 19.2086C21.4261 19.1744 21.3683 19.1252 21.3255 19.061C21.2827 18.9961 21.2613 18.9179 21.2613 18.8261C21.2613 18.7454 21.2772 18.68 21.309 18.6298C21.3408 18.5791 21.3833 18.5393 21.4365 18.5106C21.4897 18.4818 21.5484 18.4604 21.6126 18.4464C21.6774 18.4317 21.7426 18.4201 21.808 18.4115C21.8936 18.4005 21.963 18.3922 22.0162 18.3867C22.07 18.3806 22.1092 18.3705 22.1336 18.3565C22.1587 18.3424 22.1712 18.3179 22.1712 18.2831V18.2757C22.1712 18.1852 22.1465 18.1149 22.0969 18.0647C22.048 18.0146 21.9737 17.9895 21.874 17.9895C21.7707 17.9895 21.6897 18.0122 21.6309 18.0574C21.5722 18.1027 21.531 18.151 21.5071 18.2023L21.3016 18.129C21.3383 18.0433 21.3872 17.9767 21.4484 17.929C21.5102 17.8807 21.5774 17.847 21.6502 17.8281C21.7236 17.8085 21.7958 17.7987 21.8667 17.7987C21.912 17.7987 21.9639 17.8042 22.0226 17.8152C22.082 17.8256 22.1391 17.8473 22.1942 17.8804C22.2498 17.9134 22.296 17.9632 22.3327 18.0299C22.3694 18.0965 22.3877 18.1858 22.3877 18.2977V19.2261H22.1712V19.0353H22.1602C22.1456 19.0658 22.1211 19.0986 22.0869 19.1334C22.0526 19.1683 22.007 19.1979 21.9502 19.2224C21.8933 19.2469 21.8239 19.2591 21.7419 19.2591ZM21.775 19.0646C21.8606 19.0646 21.9327 19.0478 21.9915 19.0142C22.0508 18.9805 22.0954 18.9371 22.1254 18.8839C22.156 18.8307 22.1712 18.7748 22.1712 18.716V18.5179C22.1621 18.5289 22.1419 18.539 22.1107 18.5482C22.0801 18.5567 22.0447 18.5644 22.0043 18.5711C21.9645 18.5772 21.9257 18.5827 21.8878 18.5876C21.8505 18.5919 21.8202 18.5956 21.797 18.5986C21.7407 18.606 21.6881 18.6179 21.6392 18.6344C21.5909 18.6503 21.5518 18.6745 21.5218 18.7069C21.4924 18.7387 21.4778 18.7821 21.4778 18.8371C21.4778 18.9124 21.5056 18.9692 21.5612 19.0078C21.6175 19.0457 21.6887 19.0646 21.775 19.0646ZM22.7829 19.2261V17.8171H22.992V18.0299H23.0067C23.0324 17.9602 23.0789 17.9036 23.1461 17.8602C23.2134 17.8168 23.2892 17.7951 23.3736 17.7951C23.3895 17.7951 23.4094 17.7954 23.4333 17.796C23.4571 17.7966 23.4751 17.7975 23.4874 17.7987V18.0189C23.48 18.017 23.4632 18.0143 23.4369 18.0106C23.4112 18.0063 23.384 18.0042 23.3553 18.0042C23.2868 18.0042 23.2256 18.0186 23.1718 18.0473C23.1186 18.0754 23.0764 18.1146 23.0452 18.1647C23.0146 18.2143 22.9994 18.2708 22.9994 18.3344V19.2261H22.7829ZM24.4999 19.2261V17.3474H25.6263V17.5492H24.7274V18.184H25.5419V18.3858H24.7274V19.2261H24.4999ZM25.9536 19.2261V19.061L26.9663 17.5492H25.9426V17.3474H27.2378V17.5125L26.2251 19.0243H27.2489V19.2261H25.9536Z" fill="black"/>
<path d="M22.3788 0.032889C15.1266 0.108415 8.03161 3.85956 4.25338 9.97914C-1.75691 19.1206 -1.29784 32.1772 6.12452 40.4346C10.8869 45.7164 18.2501 48.4245 25.3867 47.9278C33.1943 47.7773 40.7861 43.3545 44.4528 36.5523C47.703 30.9771 48.6204 24.242 47.2978 17.97C45.9143 9.7054 39.144 2.47863 30.8105 0.578987C28.0375 0.0786085 25.1918 0.0107911 22.3788 0.032889Z" fill="#010101"/>
<path d="M24.0182 0.486287C21.2531 0.582995 18.4398 0.991493 15.8818 2.07389C14.0322 2.37371 12.5963 2.51265 11.1007 3.46807C7.60795 5.42031 5.27484 8.44753 3.62935 11.2494C3.09523 12.4837 2.16693 14.0804 1.8781 15.3836C1.82777 17.6614 1.85997 19.5115 1.81339 21.7894C0.830642 22.3163 0.760136 23.4787 0.790954 24.4642C0.865449 25.5185 0.59052 26.7028 1.07569 27.6696C1.66148 28.0909 2.2489 26.8711 2.79702 27.2252C3.68741 28.5738 3.55386 30.3284 4.24658 31.7723C4.48583 33.4272 5.2861 34.8974 5.70042 36.3626C6.51312 37.5705 6.09595 39.1953 6.83074 40.4049C12.4021 45.3422 18.045 47.4863 24.8913 47.8331C30.458 47.8431 34.9777 46.0265 39.1275 42.8502C42.4563 40.3937 44.2326 36.6434 45.8348 33.3858C46.1603 32.1797 45.8683 30.8669 46.2748 29.7016C46.7957 29.1572 47.633 28.5417 47.569 27.7128C47.3106 26.705 47.5094 25.6079 47.2239 24.5807C47.0731 22.1724 47.6238 19.6833 46.7752 17.3416C44.9573 12.4366 42.2572 11.3436 40.3687 9.50279C43.1481 10.4228 43.6677 11.2388 44.7287 11.9865C44.9023 12.1268 44.9549 11.8923 44.7131 11.2932C42.1142 7.76779 39.4938 4.9739 35.6966 3.16104C32.5473 1.40789 27.802 0.431566 24.523 0.477634C24.3546 0.47468 24.1865 0.482388 24.0182 0.486287Z" fill="url(#paint0_linear_347_126)"/>
<path d="M2.08008 15.2029C3.13259 12.1539 7.52747 6.29298 11.0374 4.54004C8.38188 7.56145 5.85678 12.0486 5.20228 14.3687C8.23655 8.7619 10.5476 6.94288 12.8893 2.69775C8.64148 4.05072 3.09313 10.2209 2.08008 15.2029Z" fill="#FF7372"/>
<path d="M14.2749 7.75098C11.9046 9.80031 11.6511 11.9149 12.5336 14.057C12.5734 11.4144 12.9004 9.84661 14.2749 7.75098Z" fill="#FF706F"/>
<path d="M23.0977 47.4902C24.9825 47.6357 34.0608 48.3326 42.2141 39.7405C45.0053 36.6534 45.1023 33.2663 45.8598 24.9831C46.1539 22.3744 46.2123 22.1926 47.3828 19.7852C46.2502 20.7801 45.5527 21.3984 44.6494 23.8492C43.8257 33.155 43.5838 36.0456 40.4619 39.9583C35.6817 44.7593 30.8444 46.677 23.0977 47.4902Z" fill="#FF7274"/>
<path d="M24.7973 18.4303C23.8399 19.6075 23.1218 21.8723 24.4077 22.1794C25.8845 22.5321 26.6934 16.5449 26.0367 16.4622C25.1124 16.722 24.9417 17.59 24.7973 18.4303Z" fill="#FF5D5E"/>
<path d="M24.1375 11.1587C22.6488 11.7711 23.0743 14.4197 23.0672 15.1792C22.7436 18.7166 19.3641 22.1478 10.3656 22.7064C9.54706 23.7944 10.5601 25.4408 12.2769 25.5513C17.4992 25.4993 21.3934 23.4569 24.3677 18.7427C27.3514 20.9238 32.1501 23.7131 35.1344 25.8573C36.2622 26.085 37.1369 25.9276 38.4671 25.0103C39.6171 24.2173 40.6155 23.1351 39.4813 22.5651C35.3579 22.0868 33.5882 21.2066 30.5868 19.8327C29.3318 18.9879 25.0583 16.9375 25.0583 16.9375C25.0583 16.9375 24.9768 15.9662 25.1267 13.9724C25.0618 13.2619 25.8648 11.1995 24.1375 11.1587Z" fill="white"/>
<path d="M29.4802 27.3442C29.1763 29.2738 30.478 30.9431 32.2037 31.4934C33.0386 31.4949 34.824 30.7065 34.6534 29.2221C32.846 29.1047 31.2511 28.4403 29.4802 27.3442Z" fill="white"/>
<path d="M18.4193 27.7805C17.4345 28.3633 16.2704 28.4335 14.2154 28.5316C13.4411 29.7886 14.5357 32.0329 16.2143 31.8996C17.2807 31.0991 19.1371 29.3143 19.231 27.9985C19.2605 27.5847 18.6262 27.658 18.4193 27.7805Z" fill="white"/>
<path d="M14.0442 15.3226C13.7337 17.0714 15.3858 18.9364 17.1594 17.4586C17.8672 16.8145 19.9944 14.9194 18.8881 14.1599C15.5115 15.7595 14.8764 14.2999 14.0442 15.3226Z" fill="white"/>
<path d="M29.6565 14.2324C28.4705 14.2632 30.4481 17.7771 31.9396 17.9815C33.4439 18.1875 35.4418 16.3733 34.4253 15.571C31.3593 15.3853 31.6298 15.0125 29.6565 14.2324Z" fill="white"/>
<path d="M24.075 24.0383C22.5863 24.6507 23.0118 27.2994 23.0047 28.0588C22.681 31.5962 16.4232 35.8498 7.4247 36.4084C6.60614 37.4964 7.61915 39.1428 9.33601 39.2534C13.496 39.6126 20.2343 37.5016 24.3052 31.7251C27.2889 33.9063 33.0813 37.7578 36.0656 39.902C37.1934 40.1298 38.5904 40.0692 39.9206 39.1519C41.0706 38.3589 41.9236 37.1798 40.7894 36.6099C36.1177 36.4399 33.6627 34.5317 30.9012 33.0893C29.6462 32.2445 24.9957 29.8172 24.9957 29.8172C24.9957 29.8172 24.9143 28.8459 25.0641 26.852C24.9992 26.1416 25.8023 24.0791 24.075 24.0383Z" fill="white"/>
<path d="M13.7046 3.67462C13.6907 3.77242 13.6288 3.99724 13.793 3.99229C14.0405 4.0347 14.3327 4.0018 14.5411 4.16149C14.6294 4.32737 14.5884 4.54063 14.609 4.72557C14.6205 6.21914 14.627 7.71317 14.6047 9.20662C14.5778 9.35234 14.6371 9.55926 14.4985 9.65563C14.254 9.78883 13.9559 9.73723 13.701 9.8192C13.6924 9.91769 13.629 10.1483 13.7996 10.1274C14.7457 10.1274 15.6919 10.1274 16.638 10.1274C16.7398 10.0835 16.7223 9.8697 16.6587 9.80211C16.4144 9.74131 16.1251 9.79353 15.9085 9.64579C15.7506 9.50469 15.8113 9.26441 15.7882 9.07791C15.7819 8.43355 15.7924 7.78917 15.7946 7.14481C16.2683 7.1662 16.7489 7.12436 17.2184 7.19702C17.5444 7.28474 17.6774 7.64329 17.7101 7.94437C17.7869 8.04109 17.9687 7.9925 18.0776 7.97584C18.1189 7.65409 18.0839 7.3161 18.0954 6.98806C18.089 6.65017 18.1083 6.30696 18.0856 5.9724C18.0029 5.89879 17.8314 5.92956 17.7245 5.95225C17.6789 6.18442 17.6457 6.46416 17.4202 6.60495C17.0799 6.81433 16.6559 6.73138 16.2763 6.75638C16.1159 6.75638 15.9556 6.75638 15.7953 6.75638C15.7953 5.8528 15.7953 4.94922 15.7953 4.04565C16.3809 4.05976 16.975 4.01022 17.5548 4.09717C17.8773 4.14424 18.0538 4.45132 18.1478 4.72958C18.2202 4.88694 18.2216 5.07372 18.3049 5.22462C18.413 5.21671 18.6023 5.28976 18.6582 5.17087C18.6517 4.67951 18.6711 4.18287 18.6484 3.69485C18.5458 3.60685 18.362 3.67801 18.2284 3.65497C16.7358 3.65497 15.2432 3.65497 13.7506 3.65497C13.7353 3.66153 13.7198 3.66807 13.7046 3.67462Z" fill="white"/>
<path d="M18.8901 3.67458C18.8759 3.77386 18.8074 4.00221 18.9847 3.99834C19.2389 4.03969 19.532 4.00931 19.7517 4.15009C19.8944 4.32234 19.8211 4.56287 19.8483 4.76418C19.8599 6.33582 19.8513 7.90752 19.8543 9.47918C19.7975 9.64365 19.6277 9.7303 19.45 9.74118C19.2651 9.78076 19.0613 9.75553 18.8863 9.81917C18.877 9.91765 18.8093 10.1482 18.9918 10.1273C20.013 10.1273 21.0342 10.1273 22.0554 10.1273C22.1648 10.0828 22.1454 9.8662 22.0772 9.7988C21.8011 9.75243 21.4787 9.79187 21.2355 9.63894C21.0517 9.42985 21.1403 9.13158 21.1103 8.88402C21.0992 7.37305 21.0864 5.86135 21.1275 4.35076C21.1323 4.16388 21.3411 4.08724 21.5121 4.06151C21.6978 4.00533 21.9215 4.06387 22.0881 3.96081C22.1477 3.87885 22.1304 3.75901 22.1012 3.67156C21.7174 3.63292 21.319 3.66565 20.9295 3.6549C20.2589 3.66128 19.5825 3.64202 18.9155 3.66453L18.8915 3.67415L18.8901 3.67458Z" fill="white"/>
<path d="M22.6953 3.66997C22.6811 3.76892 22.6124 3.99635 22.7904 3.99217C23.0538 4.03258 23.3566 4.00452 23.5845 4.15229C23.6931 4.2831 23.6402 4.4782 23.6651 4.63309C23.6818 6.17762 23.6735 7.72258 23.6553 9.26708C23.6457 9.40812 23.6826 9.60641 23.5064 9.6752C23.2536 9.7929 22.955 9.74541 22.692 9.81455C22.682 9.91368 22.6125 10.1476 22.7973 10.1272C23.8152 10.1272 24.8331 10.1272 25.8509 10.1272C25.9608 10.0828 25.9413 9.86875 25.8733 9.80031C25.5944 9.74425 25.261 9.77347 25.0209 9.6116C24.8719 9.34775 24.9565 9.03134 24.9339 8.74463C24.9358 8.26053 24.9406 7.77643 24.9436 7.29234C25.2732 7.29588 25.6028 7.29974 25.9324 7.30369C26.5335 8.10897 27.1034 8.93497 27.7309 9.72279C27.8965 9.91994 28.119 10.1067 28.4076 10.1056C28.8255 10.125 29.2501 10.1341 29.6652 10.1209C29.7831 10.0272 29.6569 9.87648 29.5455 9.82965C28.7946 9.39528 28.3102 8.69049 27.7554 8.07621C27.485 7.76134 27.2119 7.44396 26.95 7.12346C27.5829 6.90605 28.213 6.51658 28.4406 5.90137C28.6388 5.35247 28.5904 4.66893 28.1105 4.25226C27.7664 3.91574 27.2629 3.76386 26.779 3.70166C25.7541 3.6424 24.7254 3.67279 23.6989 3.65619C23.3735 3.66092 23.0424 3.63969 22.7203 3.6603L22.6961 3.66964L22.6953 3.66997ZM25.5268 4.05235C25.9665 4.06002 26.4469 4.04592 26.8126 4.30753C27.2482 4.60272 27.2873 5.15487 27.2584 5.61287C27.2333 6.09629 26.9899 6.63075 26.4646 6.81229C26.0614 6.94716 25.6188 6.897 25.1979 6.92557C24.993 6.96887 24.8915 6.91441 24.9444 6.71386C24.9444 5.82316 24.9444 4.93245 24.9444 4.04175C25.1385 4.04529 25.3327 4.04886 25.5268 4.05235Z" fill="white"/>
<path d="M29.7933 3.67459C29.7797 3.77242 29.7181 3.99693 29.8801 3.99323C30.0961 4.03694 30.3428 4.00081 30.5368 4.11905C30.7236 4.25696 30.6417 4.51789 30.6671 4.71494C30.6837 6.29903 30.6962 7.88407 30.6544 9.4678C30.6514 9.6666 30.4302 9.72724 30.2696 9.74418C30.1112 9.77814 29.937 9.75874 29.7888 9.82068C29.7815 9.91927 29.7184 10.1484 29.8872 10.1273C31.6355 10.1211 33.3844 10.1423 35.1322 10.1084C35.2332 10.0311 35.1947 9.86304 35.238 9.74926C35.3139 9.31824 35.412 8.88869 35.4722 8.45625C35.415 8.3372 35.2323 8.38015 35.1338 8.39947C34.9471 8.81483 34.7627 9.28839 34.3554 9.53374C33.8416 9.7709 33.2488 9.7397 32.6918 9.71094C32.4189 9.67869 32.0684 9.68618 31.9089 9.41714C31.8141 9.23194 31.8714 9.0073 31.8491 8.80611C31.8449 8.18724 31.8416 7.56836 31.8377 6.94948C32.2895 6.97376 32.7532 6.92998 33.1969 7.01686C33.5007 7.0988 33.6502 7.41743 33.6815 7.70743C33.6994 7.87879 33.9062 7.80764 34.0154 7.79525C34.1299 7.71048 34.0397 7.52089 34.0684 7.3947C34.0619 6.86475 34.0813 6.32942 34.0588 5.80281C33.9876 5.72819 33.8424 5.76565 33.7413 5.77357C33.6363 5.83603 33.6869 5.98813 33.63 6.08554C33.5427 6.40089 33.2044 6.57532 32.8917 6.54969C32.5409 6.55843 32.19 6.55962 31.8392 6.56559C31.8392 5.72461 31.8392 4.88361 31.8392 4.04262C32.432 4.06229 33.0335 4.02674 33.6209 4.09414C33.9616 4.15108 34.1698 4.47254 34.246 4.78687C34.2997 4.92842 34.2946 5.09201 34.3652 5.22387C34.4743 5.21719 34.665 5.28991 34.7226 5.17087C34.7162 4.67952 34.7354 4.18287 34.713 3.69485C34.6114 3.60685 34.4294 3.67801 34.297 3.65498C32.8109 3.65498 31.3248 3.65498 29.8387 3.65498C29.8236 3.66153 29.8084 3.66803 29.7933 3.67459Z" fill="white"/>
</g>
<defs>
<linearGradient id="paint0_linear_347_126" x1="25.57" y1="42.6803" x2="6.73537" y2="-35.9692" gradientUnits="userSpaceOnUse">
<stop stop-color="#FD0201"/>
<stop offset="1" stop-color="#FE6C6C"/>
</linearGradient>
<clipPath id="clip0_347_126">
<rect width="47.8134" height="48" fill="white"/>
</clipPath>
</defs>
</svg>
