<svg width="48" height="48" viewBox="0 0 32 32" fill="none" xmlns="http://www.w3.org/2000/svg">
<g clip-path="url(#clip0_344_185)">
<path d="M10.5887 10.938H10.2255C10.204 10.8335 10.1664 10.7418 10.1127 10.6627C10.06 10.5836 9.99557 10.5172 9.91941 10.4635C9.84424 10.4088 9.76076 10.3678 9.66899 10.3405C9.57721 10.3131 9.48153 10.2995 9.38195 10.2995C9.20035 10.2995 9.03584 10.3454 8.88841 10.4371C8.74196 10.5289 8.62529 10.6641 8.5384 10.8428C8.45248 11.0215 8.40952 11.2407 8.40952 11.5004C8.40952 11.7601 8.45248 11.9792 8.5384 12.1579C8.62529 12.3366 8.74196 12.4718 8.88841 12.5636C9.03584 12.6554 9.20035 12.7012 9.38195 12.7012C9.48153 12.7012 9.57721 12.6876 9.66899 12.6602C9.76076 12.6329 9.84424 12.5924 9.91941 12.5387C9.99557 12.484 10.06 12.4171 10.1127 12.338C10.1664 12.258 10.204 12.1662 10.2255 12.0627H10.5887C10.5614 12.216 10.5116 12.3532 10.4393 12.4742C10.3671 12.5953 10.2772 12.6983 10.1698 12.7833C10.0624 12.8672 9.94187 12.9312 9.80811 12.9751C9.67533 13.019 9.53328 13.041 9.38195 13.041C9.12615 13.041 8.89866 12.9785 8.69949 12.8536C8.50032 12.7286 8.34362 12.5509 8.22939 12.3205C8.11516 12.0901 8.05805 11.8167 8.05805 11.5004C8.05805 11.184 8.11516 10.9107 8.22939 10.6802C8.34362 10.4498 8.50032 10.2721 8.69949 10.1472C8.89866 10.0222 9.12615 9.95972 9.38195 9.95972C9.53328 9.95972 9.67533 9.98168 9.80811 10.0256C9.94187 10.0696 10.0624 10.134 10.1698 10.2189C10.2772 10.3029 10.3671 10.4054 10.4393 10.5265C10.5116 10.6466 10.5614 10.7837 10.5887 10.938ZM11.1287 13V10.7505H11.4626V11.0903H11.4861C11.5271 10.979 11.6013 10.8887 11.7087 10.8194C11.8161 10.7501 11.9371 10.7154 12.0719 10.7154C12.0972 10.7154 12.129 10.7159 12.167 10.7169C12.2051 10.7178 12.2339 10.7193 12.2534 10.7213V11.0727C12.2417 11.0698 12.2149 11.0654 12.1729 11.0595C12.1319 11.0527 12.0884 11.0493 12.0426 11.0493C11.9332 11.0493 11.8356 11.0722 11.7497 11.1181C11.6647 11.163 11.5974 11.2255 11.5476 11.3056C11.4987 11.3847 11.4743 11.475 11.4743 11.5765V13H11.1287ZM13.5378 13.0469C13.3211 13.0469 13.1341 12.999 12.9769 12.9033C12.8207 12.8067 12.7001 12.672 12.6152 12.4991C12.5312 12.3254 12.4892 12.1233 12.4892 11.8928C12.4892 11.6624 12.5312 11.4594 12.6152 11.2836C12.7001 11.1069 12.8183 10.9692 12.9696 10.8706C13.1219 10.771 13.2996 10.7213 13.5027 10.7213C13.6198 10.7213 13.7355 10.7408 13.8497 10.7798C13.964 10.8189 14.068 10.8823 14.1617 10.9702C14.2554 11.0571 14.3301 11.1723 14.3857 11.3158C14.4414 11.4594 14.4692 11.6361 14.4692 11.846V11.9924H12.7353V11.6937H14.1177C14.1177 11.5668 14.0924 11.4535 14.0416 11.3539C13.9918 11.2543 13.9205 11.1757 13.8278 11.1181C13.736 11.0605 13.6276 11.0317 13.5027 11.0317C13.365 11.0317 13.2459 11.0659 13.1453 11.1342C13.0457 11.2016 12.9691 11.2895 12.9154 11.3978C12.8617 11.5062 12.8349 11.6224 12.8349 11.7464V11.9456C12.8349 12.1154 12.8641 12.2595 12.9227 12.3776C12.9823 12.4948 13.0648 12.5841 13.1702 12.6456C13.2757 12.7061 13.3982 12.7364 13.5378 12.7364C13.6286 12.7364 13.7106 12.7237 13.7838 12.6983C13.858 12.672 13.922 12.6329 13.9757 12.5812C14.0294 12.5284 14.0709 12.463 14.1002 12.3849L14.4341 12.4786C14.3989 12.5919 14.3399 12.6915 14.2569 12.7774C14.1739 12.8623 14.0714 12.9287 13.9493 12.9766C13.8273 13.0234 13.6901 13.0469 13.5378 13.0469ZM15.6569 13.0527C15.5144 13.0527 15.385 13.0259 15.2688 12.9722C15.1527 12.9175 15.0604 12.8389 14.992 12.7364C14.9237 12.6329 14.8895 12.5079 14.8895 12.3615C14.8895 12.2326 14.9149 12.1281 14.9657 12.0481C15.0165 11.967 15.0843 11.9036 15.1693 11.8577C15.2542 11.8118 15.3479 11.7776 15.4504 11.7552C15.5539 11.7318 15.6579 11.7132 15.7624 11.6995C15.8991 11.682 16.0099 11.6688 16.0948 11.66C16.1807 11.6502 16.2432 11.6341 16.2823 11.6117C16.3223 11.5892 16.3423 11.5502 16.3423 11.4945V11.4828C16.3423 11.3383 16.3028 11.226 16.2237 11.146C16.1456 11.0659 16.027 11.0259 15.8678 11.0259C15.7028 11.0259 15.5734 11.062 15.4797 11.1342C15.386 11.2065 15.3201 11.2836 15.282 11.3656L14.954 11.2485C15.0125 11.1118 15.0907 11.0054 15.1883 10.9292C15.2869 10.8521 15.3943 10.7984 15.5105 10.7681C15.6276 10.7369 15.7428 10.7213 15.8561 10.7213C15.9283 10.7213 16.0113 10.73 16.1051 10.7476C16.1998 10.7642 16.2911 10.7989 16.3789 10.8516C16.4678 10.9043 16.5415 10.9839 16.6001 11.0903C16.6586 11.1967 16.6879 11.3393 16.6879 11.5179V13H16.3423V12.6954H16.3247C16.3013 12.7442 16.2622 12.7964 16.2076 12.8521C16.1529 12.9077 16.0802 12.9551 15.9894 12.9941C15.8986 13.0332 15.7878 13.0527 15.6569 13.0527ZM15.7096 12.7422C15.8463 12.7422 15.9615 12.7154 16.0553 12.6617C16.15 12.608 16.2212 12.5387 16.2691 12.4537C16.3179 12.3688 16.3423 12.2795 16.3423 12.1857V11.8694C16.3277 11.887 16.2954 11.9031 16.2457 11.9177C16.1968 11.9314 16.1402 11.9436 16.0758 11.9544C16.0123 11.9641 15.9503 11.9729 15.8898 11.9807C15.8302 11.9875 15.7819 11.9934 15.7448 11.9983C15.655 12.01 15.571 12.029 15.4929 12.0554C15.4158 12.0808 15.3533 12.1194 15.3054 12.1711C15.2586 12.2219 15.2352 12.2912 15.2352 12.3791C15.2352 12.4991 15.2796 12.5899 15.3684 12.6515C15.4582 12.712 15.572 12.7422 15.7096 12.7422ZM18.297 10.7505V11.0434H17.1313V10.7505H18.297ZM17.4711 10.2116H17.8167V12.3556C17.8167 12.4533 17.8308 12.5265 17.8592 12.5753C17.8884 12.6231 17.9255 12.6554 17.9705 12.672C18.0163 12.6876 18.0647 12.6954 18.1154 12.6954C18.1535 12.6954 18.1848 12.6934 18.2092 12.6895C18.2336 12.6846 18.2531 12.6807 18.2677 12.6778L18.338 12.9883C18.3146 12.9971 18.2819 13.0059 18.2399 13.0146C18.1979 13.0244 18.1447 13.0293 18.0803 13.0293C17.9827 13.0293 17.887 13.0083 17.7933 12.9663C17.7005 12.9243 17.6234 12.8604 17.5619 12.7745C17.5013 12.6886 17.4711 12.5802 17.4711 12.4494V10.2116ZM19.7359 13.0469C19.5192 13.0469 19.3322 12.999 19.175 12.9033C19.0188 12.8067 18.8982 12.672 18.8133 12.4991C18.7293 12.3254 18.6873 12.1233 18.6873 11.8928C18.6873 11.6624 18.7293 11.4594 18.8133 11.2836C18.8982 11.1069 19.0163 10.9692 19.1677 10.8706C19.32 10.771 19.4977 10.7213 19.7008 10.7213C19.8179 10.7213 19.9336 10.7408 20.0478 10.7798C20.1621 10.8189 20.266 10.8823 20.3598 10.9702C20.4535 11.0571 20.5282 11.1723 20.5838 11.3158C20.6395 11.4594 20.6673 11.6361 20.6673 11.846V11.9924H18.9334V11.6937H20.3158C20.3158 11.5668 20.2905 11.4535 20.2397 11.3539C20.1899 11.2543 20.1186 11.1757 20.0259 11.1181C19.9341 11.0605 19.8257 11.0317 19.7008 11.0317C19.5631 11.0317 19.444 11.0659 19.3434 11.1342C19.2438 11.2016 19.1672 11.2895 19.1135 11.3978C19.0598 11.5062 19.0329 11.6224 19.0329 11.7464V11.9456C19.0329 12.1154 19.0622 12.2595 19.1208 12.3776C19.1804 12.4948 19.2629 12.5841 19.3683 12.6456C19.4738 12.7061 19.5963 12.7364 19.7359 12.7364C19.8267 12.7364 19.9087 12.7237 19.9819 12.6983C20.0561 12.672 20.1201 12.6329 20.1738 12.5812C20.2275 12.5284 20.269 12.463 20.2983 12.3849L20.6322 12.4786C20.597 12.5919 20.538 12.6915 20.455 12.7774C20.372 12.8623 20.2695 12.9287 20.1474 12.9766C20.0254 13.0234 19.8882 13.0469 19.7359 13.0469ZM22.0425 13.0469C21.855 13.0469 21.6895 12.9995 21.546 12.9048C21.4025 12.8091 21.2902 12.6744 21.2092 12.5006C21.1281 12.3258 21.0876 12.1194 21.0876 11.8811C21.0876 11.6449 21.1281 11.4398 21.2092 11.266C21.2902 11.0923 21.403 10.958 21.5475 10.8633C21.692 10.7686 21.8589 10.7213 22.0483 10.7213C22.1948 10.7213 22.3105 10.7457 22.3954 10.7945C22.4813 10.8423 22.5467 10.897 22.5917 10.9585C22.6375 11.019 22.6732 11.0688 22.6986 11.1079H22.7279V10.0007H23.0735V13H22.7396V12.6544H22.6986C22.6732 12.6954 22.6371 12.7471 22.5902 12.8096C22.5433 12.8711 22.4765 12.9263 22.3896 12.9751C22.3027 13.0229 22.187 13.0469 22.0425 13.0469ZM22.0893 12.7364C22.228 12.7364 22.3451 12.7003 22.4408 12.628C22.5365 12.5548 22.6092 12.4537 22.659 12.3249C22.7088 12.195 22.7337 12.0452 22.7337 11.8753C22.7337 11.7073 22.7093 11.5604 22.6605 11.4345C22.6117 11.3075 22.5394 11.2089 22.4437 11.1386C22.3481 11.0674 22.2299 11.0317 22.0893 11.0317C21.9429 11.0317 21.8208 11.0693 21.7232 11.1445C21.6266 11.2187 21.5538 11.3197 21.505 11.4476C21.4572 11.5746 21.4332 11.7171 21.4332 11.8753C21.4332 12.0354 21.4577 12.1809 21.5065 12.3117C21.5563 12.4415 21.6295 12.545 21.7261 12.6222C21.8238 12.6983 21.9448 12.7364 22.0893 12.7364ZM8.17521 18V15.0007H8.52083V16.1079H8.55012C8.5755 16.0688 8.61065 16.019 8.65556 15.9585C8.70145 15.897 8.76686 15.8423 8.8518 15.7945C8.93772 15.7457 9.0539 15.7213 9.20035 15.7213C9.38976 15.7213 9.55671 15.7686 9.70121 15.8633C9.8457 15.958 9.95847 16.0923 10.0395 16.266C10.1205 16.4398 10.1611 16.6449 10.1611 16.8811C10.1611 17.1194 10.1205 17.3258 10.0395 17.5006C9.95847 17.6744 9.84619 17.8091 9.70267 17.9048C9.55915 17.9995 9.39366 18.0469 9.20621 18.0469C9.06171 18.0469 8.94602 18.0229 8.85912 17.9751C8.77223 17.9263 8.70535 17.8711 8.65849 17.8096C8.61162 17.7471 8.5755 17.6954 8.55012 17.6544H8.50911V18H8.17521ZM8.51497 16.8753C8.51497 17.0452 8.53986 17.195 8.58966 17.3249C8.63945 17.4537 8.71219 17.5548 8.80787 17.628C8.90355 17.7003 9.02071 17.7364 9.15934 17.7364C9.30384 17.7364 9.42442 17.6983 9.52107 17.6222C9.61871 17.545 9.69193 17.4415 9.74075 17.3117C9.79054 17.1809 9.81544 17.0354 9.81544 16.8753C9.81544 16.7171 9.79103 16.5746 9.74221 16.4476C9.69437 16.3197 9.62163 16.2187 9.524 16.1445C9.42735 16.0693 9.30579 16.0317 9.15934 16.0317C9.01875 16.0317 8.90062 16.0674 8.80494 16.1386C8.70926 16.2089 8.63701 16.3075 8.58819 16.4345C8.53938 16.5604 8.51497 16.7073 8.51497 16.8753ZM10.8318 18.8435C10.7732 18.8435 10.721 18.8387 10.6751 18.8289C10.6292 18.8201 10.5975 18.8113 10.5799 18.8025L10.6678 18.4979C10.7517 18.5194 10.8259 18.5272 10.8904 18.5214C10.9548 18.5155 11.0119 18.4867 11.0617 18.435C11.1125 18.3842 11.1589 18.3017 11.2008 18.1875L11.2653 18.0117L10.4335 15.7505H10.8084L11.4293 17.5431H11.4527L12.0737 15.7505H12.4486L11.4937 18.328C11.4508 18.4442 11.3976 18.5404 11.3341 18.6166C11.2707 18.6937 11.1969 18.7508 11.113 18.7879C11.03 18.825 10.9363 18.8435 10.8318 18.8435ZM8.17521 23V20.0007H9.9736V20.3229H8.5384V21.3363H9.83887V21.6585H8.5384V23H8.17521ZM11.2107 23.0527C11.0682 23.0527 10.9388 23.0259 10.8226 22.9722C10.7065 22.9175 10.6142 22.8389 10.5459 22.7364C10.4775 22.6329 10.4433 22.5079 10.4433 22.3615C10.4433 22.2326 10.4687 22.1281 10.5195 22.0481C10.5703 21.967 10.6381 21.9036 10.7231 21.8577C10.808 21.8118 10.9017 21.7776 11.0042 21.7552C11.1077 21.7318 11.2117 21.7132 11.3162 21.6995C11.4529 21.682 11.5637 21.6688 11.6486 21.66C11.7345 21.6502 11.797 21.6341 11.8361 21.6117C11.8761 21.5892 11.8961 21.5502 11.8961 21.4945V21.4828C11.8961 21.3383 11.8566 21.226 11.7775 21.146C11.6994 21.0659 11.5808 21.0259 11.4216 21.0259C11.2566 21.0259 11.1273 21.062 11.0335 21.1342C10.9398 21.2065 10.8739 21.2836 10.8358 21.3656L10.5078 21.2485C10.5664 21.1118 10.6445 21.0054 10.7421 20.9292C10.8407 20.8521 10.9481 20.7984 11.0643 20.7681C11.1814 20.7369 11.2966 20.7213 11.4099 20.7213C11.4821 20.7213 11.5651 20.73 11.6589 20.7476C11.7536 20.7642 11.8449 20.7989 11.9327 20.8516C12.0216 20.9043 12.0953 20.9839 12.1539 21.0903C12.2124 21.1967 12.2417 21.3393 12.2417 21.5179V23H11.8961V22.6954H11.8785C11.8551 22.7442 11.8161 22.7964 11.7614 22.8521C11.7067 22.9077 11.634 22.9551 11.5432 22.9941C11.4524 23.0332 11.3416 23.0527 11.2107 23.0527ZM11.2635 22.7422C11.4001 22.7422 11.5153 22.7154 11.6091 22.6617C11.7038 22.608 11.775 22.5387 11.8229 22.4537C11.8717 22.3688 11.8961 22.2795 11.8961 22.1857V21.8694C11.8815 21.887 11.8492 21.9031 11.7995 21.9177C11.7506 21.9314 11.694 21.9436 11.6296 21.9544C11.5661 21.9641 11.5041 21.9729 11.4436 21.9807C11.384 21.9875 11.3357 21.9934 11.2986 21.9983C11.2088 22.01 11.1248 22.029 11.0467 22.0554C10.9696 22.0808 10.9071 22.1194 10.8593 22.1711C10.8124 22.2219 10.789 22.2912 10.789 22.3791C10.789 22.4991 10.8334 22.5899 10.9222 22.6515C11.012 22.712 11.1258 22.7422 11.2635 22.7422ZM13.2182 20.0007V23H12.8726V20.0007H13.2182ZM13.7868 23V22.7364L15.0638 21.0962V21.0727H13.8278V20.7505H15.509V21.0259L14.2671 22.6544V22.6778H15.55V23H13.7868ZM16.7443 23.0527C16.6018 23.0527 16.4724 23.0259 16.3562 22.9722C16.24 22.9175 16.1478 22.8389 16.0794 22.7364C16.0111 22.6329 15.9769 22.5079 15.9769 22.3615C15.9769 22.2326 16.0023 22.1281 16.0531 22.0481C16.1038 21.967 16.1717 21.9036 16.2566 21.8577C16.3416 21.8118 16.4353 21.7776 16.5378 21.7552C16.6413 21.7318 16.7453 21.7132 16.8498 21.6995C16.9864 21.682 17.0973 21.6688 17.1822 21.66C17.2681 21.6502 17.3306 21.6341 17.3696 21.6117C17.4097 21.5892 17.4297 21.5502 17.4297 21.4945V21.4828C17.4297 21.3383 17.3902 21.226 17.3111 21.146C17.233 21.0659 17.1143 21.0259 16.9552 21.0259C16.7902 21.0259 16.6608 21.062 16.5671 21.1342C16.4734 21.2065 16.4075 21.2836 16.3694 21.3656L16.0414 21.2485C16.0999 21.1118 16.178 21.0054 16.2757 20.9292C16.3743 20.8521 16.4817 20.7984 16.5979 20.7681C16.715 20.7369 16.8302 20.7213 16.9435 20.7213C17.0157 20.7213 17.0987 20.73 17.1924 20.7476C17.2871 20.7642 17.3784 20.7989 17.4663 20.8516C17.5552 20.9043 17.6289 20.9839 17.6874 21.0903C17.746 21.1967 17.7753 21.3393 17.7753 21.5179V23H17.4297V22.6954H17.4121C17.3887 22.7442 17.3496 22.7964 17.295 22.8521C17.2403 22.9077 17.1675 22.9551 17.0768 22.9941C16.986 23.0332 16.8751 23.0527 16.7443 23.0527ZM16.797 22.7422C16.9337 22.7422 17.0489 22.7154 17.1427 22.6617C17.2374 22.608 17.3086 22.5387 17.3565 22.4537C17.4053 22.3688 17.4297 22.2795 17.4297 22.1857V21.8694C17.415 21.887 17.3828 21.9031 17.333 21.9177C17.2842 21.9314 17.2276 21.9436 17.1632 21.9544C17.0997 21.9641 17.0377 21.9729 16.9772 21.9807C16.9176 21.9875 16.8693 21.9934 16.8322 21.9983C16.7424 22.01 16.6584 22.029 16.5803 22.0554C16.5032 22.0808 16.4407 22.1194 16.3928 22.1711C16.346 22.2219 16.3225 22.2912 16.3225 22.3791C16.3225 22.4991 16.367 22.5899 16.4558 22.6515C16.5456 22.712 16.6594 22.7422 16.797 22.7422ZM18.4061 23V20.7505H18.74V21.0903H18.7635C18.8045 20.979 18.8787 20.8887 18.9861 20.8194C19.0935 20.7501 19.2145 20.7154 19.3493 20.7154C19.3747 20.7154 19.4064 20.7159 19.4445 20.7169C19.4825 20.7178 19.5113 20.7193 19.5309 20.7213V21.0727C19.5192 21.0698 19.4923 21.0654 19.4503 21.0595C19.4093 21.0527 19.3659 21.0493 19.32 21.0493C19.2106 21.0493 19.113 21.0722 19.0271 21.1181C18.9421 21.163 18.8748 21.2255 18.825 21.3056C18.7762 21.3847 18.7518 21.475 18.7518 21.5765V23H18.4061ZM8.17521 28V25.0007H9.9736V25.3229H8.5384V26.3363H9.83887V26.6585H8.5384V28H8.17521ZM10.4961 28V27.7364L12.1129 25.3229H10.4785V25.0007H12.5463V25.2643L10.9295 27.6778H12.5639V28H10.4961Z" fill="black"/>
<path d="M14.8546 0.021926C10.0198 0.0722769 5.28979 2.57304 2.77097 6.65276C-1.23589 12.7471 -0.929841 21.4515 4.0184 26.9564C7.19335 30.4776 12.1021 32.283 16.8598 31.9518C22.0649 31.8515 27.1261 28.903 29.5706 24.3682C31.7374 20.6514 32.349 16.1613 31.4673 11.98C30.5449 6.47026 26.0314 1.65242 20.4757 0.385991C18.627 0.0524057 16.7299 0.00719405 14.8546 0.021926Z" fill="url(#paint0_radial_344_185)"/>
<path d="M14.9754 1.81512C10.683 1.85982 6.4837 4.08001 4.24748 7.702C0.69016 13.1126 0.961877 20.8404 5.35495 25.7277C8.17369 28.8538 12.5317 30.4567 16.7557 30.1627C21.3767 30.0736 25.8701 27.4559 28.0404 23.4299C29.9641 20.1301 30.507 16.1437 29.7242 12.4316C28.9054 7.53998 24.8982 3.26267 19.9659 2.13832C18.3246 1.84216 16.6403 1.80203 14.9754 1.81512Z" fill="url(#paint1_radial_344_185)"/>
<path d="M9.4721 5.7969C6.94448 5.2187 3.54664 8.62154 5.20571 11.1683C7.83883 12.5189 10.9543 8.27272 9.4721 5.7969Z" fill="url(#paint2_radial_344_185)"/>
<path d="M14.8713 8.72928C14.826 9.84621 14.8717 13.637 14.8737 14.9351C13.2505 14.8754 7.15632 15.0204 6.79454 15.1507C6.02624 15.4274 6.07721 16.4074 6.68986 16.6685C7.5278 17.0256 11.4753 16.785 12.5203 16.784C12.5187 18.3687 11.6686 19.5647 10.7634 20.8951C9.85175 22.1502 8.3291 23.3267 7.23363 23.9711C6.34657 24.493 5.61515 24.8805 4.63553 24.8299C3.85259 24.7895 4.12932 25.5888 4.19119 26.0164C4.30935 26.8328 6.05964 26.9179 6.53116 26.7234C8.08821 25.767 9.1551 25.2207 10.2966 24.0715C11.1604 23.2018 12.1402 21.4702 12.5064 21.0859C13.0231 20.5438 14.0696 17.7162 14.2487 17.1391C14.4473 16.499 14.6415 16.5554 15.159 16.6072C15.6727 16.6072 16.1864 16.6072 16.7001 16.6072C16.9513 18.9135 16.4324 25.8547 17.0685 26.054C19.5513 26.477 24.7779 27.3494 27.1617 26.8276C27.7756 26.2674 28.2358 24.9892 27.8944 23.9169C24.7213 24.7303 24.305 24.3777 18.3987 24.4767C18.158 22.4605 18.3926 19.0308 18.3987 16.6072C20.5453 16.6072 22.4826 16.5537 24.6808 16.5762C25.3059 16.5826 25.7853 15.0522 24.8766 15.0436C21.5058 14.978 19.548 15.0864 16.7788 14.9406C16.7404 12.8589 16.8222 10.8005 16.7429 8.72176C16.7328 7.82754 14.9601 7.95179 14.8713 8.72928Z" fill="white"/>
<path d="M19.6309 10.3907C20.5668 11.0886 20.9519 12.6512 21.7942 12.7056C22.9222 12.7784 23.8159 12.1196 24.1407 11.4506C24.3197 11.0818 20.8915 10.1016 20.1036 9.83766C19.6833 9.69689 19.4049 10.2223 19.6309 10.3907Z" fill="white"/>
<path d="M11.4173 9.97405C10.1881 10.6007 9.14886 10.5709 7.7213 10.4784C7.0543 11.8408 8.46091 12.8038 8.55847 13.014C8.72776 13.3788 9.46803 13.357 9.75959 13.1271C10.8368 12.2779 12.1573 11.4681 12.1244 10.1154C12.1161 9.77159 11.7774 9.79044 11.4173 9.97405Z" fill="white"/>
<path d="M5.83058 3.22408C5.79024 3.31188 5.82737 3.49747 5.94859 3.48438C6.0867 3.51222 6.30205 3.44079 6.3696 3.58497C6.41412 4.15343 6.38617 4.72831 6.39805 5.29949C6.38898 5.88176 6.42249 6.46727 6.37545 7.04675C6.28759 7.22556 6.10557 7.18293 5.93791 7.20627C5.86384 7.25606 5.86648 7.48468 6.01075 7.43689C7.11014 7.43335 8.12396 7.44484 9.22107 7.42783C9.306 7.2525 9.30438 6.99302 9.35515 6.80195C9.37033 6.63754 9.4481 6.4141 9.42574 6.25077C9.34462 6.1495 9.18941 6.27786 9.18197 6.39282C9.06115 6.67913 8.87523 7.03813 8.53588 7.11172C8.17606 7.19402 8.09652 7.18651 7.73237 7.12965C7.54506 7.11047 7.43186 6.93597 7.45339 6.76529C7.43958 5.73277 7.44086 4.69457 7.46434 3.66229C7.44595 3.48819 7.66461 3.51202 7.79918 3.49592C7.88306 3.48773 8.0412 3.43609 8.02448 3.31534C8.0547 3.13619 7.80973 3.23392 7.70253 3.20944C7.18349 3.21582 6.35693 3.19665 5.84167 3.21905L5.83058 3.22408Z" fill="white"/>
<path d="M9.66328 3.22419C9.6335 3.30008 9.66368 3.48331 9.78686 3.45791C9.92548 3.488 10.2386 3.46769 10.3456 3.5666C10.4192 3.69883 10.3515 3.83366 10.373 3.97729C10.3831 5.00339 10.3974 6.03402 10.3539 7.05662C10.2638 7.21733 9.88229 7.1827 9.72299 7.21023C9.62428 7.2285 9.60905 7.49026 9.76236 7.437C10.346 7.437 11.2297 7.437 11.8134 7.437C11.8906 7.39118 11.8891 7.1642 11.7466 7.20203C11.6021 7.18297 11.4509 7.21947 11.3725 7.07558C11.3263 6.43743 11.3517 5.79411 11.3408 5.15347C11.3481 4.63975 11.3376 4.15244 11.3796 3.642C11.4344 3.49711 11.5773 3.50788 11.7037 3.47197C11.7943 3.47733 11.8806 3.39351 11.8557 3.29387C11.8565 3.13398 11.6802 3.24007 11.5736 3.20957C11.0623 3.21595 10.1818 3.19676 9.67433 3.21916L9.66328 3.22419Z" fill="white"/>
<path d="M14.6927 3.14889C13.934 3.17311 13.0111 3.54298 12.5738 4.268C12.2051 4.88233 12.2304 5.76209 12.5194 6.42271C12.8249 7.09004 13.5505 7.3579 14.1883 7.462C14.8302 7.5574 15.4848 7.44212 16.1 7.2321C16.1606 7.12508 16.1122 6.96518 16.1303 6.83783C16.1472 6.4753 16.1109 6.16125 16.1717 5.80805C16.2349 5.68999 16.384 5.7137 16.4884 5.67917C16.5563 5.68272 16.6415 5.59967 16.6287 5.50155C16.6557 5.32094 16.4454 5.41854 16.3531 5.39428C15.8756 5.40074 15.3928 5.38138 14.9185 5.40387C14.8539 5.51422 14.9209 5.718 15.0519 5.67713C15.1923 5.70954 15.2921 5.67477 15.3965 5.80459C15.4062 5.87546 15.4138 5.94384 15.4192 6.01084C15.4388 6.25094 15.4321 6.47335 15.4114 6.72911C15.3962 6.92715 15.3772 7.13262 15.1909 7.17636C14.7859 7.29409 14.3441 7.22464 13.965 7.03843C13.408 6.72923 13.4206 6.02389 13.4014 5.34986C13.3873 4.80966 13.4938 4.2189 13.8697 3.84503C14.2026 3.50244 14.3975 3.46226 14.835 3.47916C15.2202 3.50452 15.2531 3.49196 15.4624 3.88584C15.5314 4.0203 15.5601 4.17608 15.6129 4.3142C15.731 4.35307 16.1024 4.39714 16.0762 4.23082C16.0397 3.99903 16.0242 3.76614 15.9393 3.54833C15.8587 3.34134 15.5594 3.29487 15.3812 3.22914C15.0841 3.14961 14.9979 3.14017 14.6927 3.14889Z" fill="white"/>
<path d="M17.0893 3.22401C17.061 3.29991 17.0748 3.485 17.1913 3.45961C17.3225 3.48969 17.4844 3.46939 17.5857 3.5683C17.6553 3.70052 17.6062 3.83349 17.6265 3.97711C17.6361 5.00321 17.6496 6.00284 17.6084 7.02544C17.5232 7.18614 17.2965 7.15154 17.1457 7.17907C17.0523 7.19734 17.0379 7.49008 17.183 7.43683C17.7497 7.43037 18.5232 7.46061 19.0863 7.438C19.1357 7.34084 19.0935 7.13734 18.9461 7.18186C18.8164 7.16028 18.6005 7.1817 18.5603 7.01743C18.5159 6.47792 18.5437 5.9612 18.5288 5.41751C18.4781 5.22713 18.7255 5.33551 18.8368 5.30741C19.4808 5.30741 19.5219 5.29647 20.1659 5.29647C20.152 5.87652 20.1774 6.42985 20.1341 7.00578C20.093 7.1742 19.8747 7.14828 19.7427 7.16842C19.5917 7.12867 19.5899 7.32953 19.6267 7.4269C20.1979 7.4497 21.1788 7.43006 21.7531 7.43663C21.8524 7.43782 21.8518 7.14729 21.7338 7.17277C21.5918 7.1519 21.4548 7.18238 21.3615 7.04755C21.292 6.69751 21.3341 6.36107 21.3196 6.00357C21.3275 5.2239 21.3007 4.47471 21.3402 3.69698C21.3331 3.60323 21.3861 3.51258 21.4836 3.50888C21.6029 3.46757 21.6744 3.48144 21.7889 3.43713C21.838 3.36527 21.8342 3.16804 21.7089 3.20921C21.1514 3.21562 20.1862 3.19639 19.6323 3.2188C19.5754 3.29455 19.6168 3.47874 19.7335 3.4622C19.8579 3.49004 20.0246 3.47269 20.1135 3.57856C20.1941 3.87986 20.1465 4.16653 20.1581 4.47575C20.1565 4.64435 20.1549 4.81294 20.1535 4.98153C19.4148 4.98153 19.279 4.99249 18.5403 4.99249C18.5492 4.53379 18.5001 4.10364 18.5603 3.64872C18.6018 3.48123 18.8214 3.50445 18.9526 3.47665C19.0485 3.48767 19.1329 3.38297 19.1036 3.28076C19.0647 3.15303 18.8608 3.25063 18.7548 3.22014C18.2708 3.2266 17.5801 3.19628 17.0997 3.21896L17.0893 3.22401Z" fill="white"/>
<path d="M22.2815 3.23702C22.2088 3.5446 22.1288 3.85886 22.0815 4.16858C22.1784 4.24202 22.3421 4.17859 22.3812 4.06886C22.5251 3.81902 22.7134 3.53252 23.0515 3.49271C23.3431 3.44303 23.4497 3.46446 23.7447 3.45922C23.7322 4.63192 23.7527 5.80711 23.7148 6.97814C23.7244 7.15575 23.674 7.18974 23.5271 7.20224C23.4399 7.20827 23.2777 7.2046 23.2946 7.323C23.2642 7.50067 23.5213 7.40277 23.6336 7.42748C24.1801 7.4211 24.7329 7.4403 25.2754 7.41789C25.3329 7.3501 25.2992 7.20507 25.1781 7.21291C25.0388 7.18125 24.8055 7.20023 24.6998 7.10213C24.619 6.78505 24.6648 6.4507 24.6461 6.12608C24.6416 5.23596 24.6391 4.34585 24.6354 3.45574C24.9628 3.47972 25.207 3.43091 25.5254 3.51424C25.8421 3.61238 25.9879 3.91117 26.1558 4.15032C26.2223 4.23631 26.4447 4.19855 26.3701 4.06984C26.3116 3.79723 26.3467 3.51897 26.2762 3.25021C26.0377 3.20939 25.8441 3.23958 25.5993 3.22639C24.5046 3.21923 23.41 3.22364 22.3153 3.22238L22.2931 3.23197L22.2815 3.23702Z" fill="white"/>
</g>
<defs>
<radialGradient id="paint0_radial_344_185" cx="0" cy="0" r="1" gradientUnits="userSpaceOnUse" gradientTransform="translate(15.9337 16.005) scale(15.9225 15.9855)">
<stop stop-color="#F3C87D" stop-opacity="0.758929"/>
<stop offset="0.913524" stop-color="#D69C45"/>
<stop offset="1" stop-color="#E5FF6A"/>
</radialGradient>
<radialGradient id="paint1_radial_344_185" cx="0" cy="0" r="1" gradientUnits="userSpaceOnUse" gradientTransform="translate(12.0502 13.2181) rotate(47.2022) scale(15.5505 14.3576)">
<stop stop-color="#A5864D"/>
<stop offset="0.786028" stop-color="#332815"/>
<stop offset="1" stop-color="#1A1911"/>
</radialGradient>
<radialGradient id="paint2_radial_344_185" cx="0" cy="0" r="1" gradientUnits="userSpaceOnUse" gradientTransform="translate(7.42875 8.57972) rotate(39.3028) scale(1.89654 3.3853)">
<stop stop-color="#F0BF7A" stop-opacity="0.910714"/>
<stop offset="0.64173" stop-color="#F0BF7A" stop-opacity="0.454902"/>
<stop offset="1" stop-color="#F0BF7A" stop-opacity="0"/>
</radialGradient>
<clipPath id="clip0_344_185">
<rect width="31.8756" height="32" fill="white"/>
</clipPath>
</defs>
</svg>
