<svg width="48" height="48" viewBox="0 0 48 48" fill="none" xmlns="http://www.w3.org/2000/svg">
<g clip-path="url(#clip0_350_223)">
<path d="M18.3013 13.8924H18.0772C18.0639 13.8279 18.0408 13.7713 18.0076 13.7225C17.9751 13.6737 17.9353 13.6327 17.8883 13.5996C17.8419 13.5658 17.7904 13.5405 17.7338 13.5237C17.6772 13.5068 17.6181 13.4984 17.5567 13.4984C17.4446 13.4984 17.3431 13.5267 17.2521 13.5833C17.1617 13.6399 17.0898 13.7234 17.0361 13.8336C16.9831 13.9439 16.9566 14.0791 16.9566 14.2394C16.9566 14.3997 16.9831 14.5349 17.0361 14.6452C17.0898 14.7554 17.1617 14.8389 17.2521 14.8955C17.3431 14.9521 17.4446 14.9804 17.5567 14.9804C17.6181 14.9804 17.6772 14.972 17.7338 14.9551C17.7904 14.9383 17.8419 14.9133 17.8883 14.8801C17.9353 14.8464 17.9751 14.8051 18.0076 14.7563C18.0408 14.7069 18.0639 14.6503 18.0772 14.5864H18.3013C18.2845 14.681 18.2537 14.7657 18.2091 14.8404C18.1646 14.9151 18.1091 14.9786 18.0429 15.031C17.9766 15.0829 17.9022 15.1223 17.8196 15.1494C17.7377 15.1765 17.65 15.1901 17.5567 15.1901C17.3988 15.1901 17.2584 15.1515 17.1355 15.0744C17.0126 14.9973 16.9159 14.8877 16.8454 14.7455C16.775 14.6033 16.7397 14.4346 16.7397 14.2394C16.7397 14.0442 16.775 13.8755 16.8454 13.7333C16.9159 13.5911 17.0126 13.4815 17.1355 13.4044C17.2584 13.3273 17.3988 13.2887 17.5567 13.2887C17.65 13.2887 17.7377 13.3023 17.8196 13.3294C17.9022 13.3565 17.9766 13.3962 18.0429 13.4487C18.1091 13.5005 18.1646 13.5637 18.2091 13.6384C18.2537 13.7125 18.2845 13.7972 18.3013 13.8924ZM18.6346 15.1648V13.7767H18.8406V13.9864H18.8551C18.8804 13.9177 18.9262 13.8619 18.9924 13.8192C19.0587 13.7764 19.1334 13.755 19.2166 13.755C19.2322 13.755 19.2518 13.7553 19.2753 13.7559C19.2988 13.7565 19.3166 13.7574 19.3286 13.7586V13.9755C19.3214 13.9737 19.3048 13.971 19.2789 13.9674C19.2536 13.9632 19.2268 13.9611 19.1985 13.9611C19.131 13.9611 19.0708 13.9752 19.0177 14.0035C18.9653 14.0312 18.9238 14.0698 18.893 14.1192C18.8629 14.168 18.8478 14.2237 18.8478 14.2864V15.1648H18.6346ZM20.1212 15.1937C19.9874 15.1937 19.872 15.1642 19.775 15.1052C19.6786 15.0455 19.6042 14.9624 19.5518 14.8557C19.5 14.7485 19.4741 14.6238 19.4741 14.4816C19.4741 14.3394 19.5 14.2141 19.5518 14.1056C19.6042 13.9966 19.6771 13.9117 19.7705 13.8508C19.8645 13.7894 19.9742 13.7586 20.0995 13.7586C20.1718 13.7586 20.2432 13.7707 20.3137 13.7948C20.3841 13.8189 20.4483 13.858 20.5061 13.9123C20.564 13.9659 20.6101 14.037 20.6444 14.1255C20.6788 14.2141 20.6959 14.3231 20.6959 14.4527V14.543H19.6259V14.3587H20.479C20.479 14.2804 20.4634 14.2105 20.432 14.149C20.4013 14.0876 20.3573 14.0391 20.3001 14.0035C20.2435 13.968 20.1766 13.9502 20.0995 13.9502C20.0145 13.9502 19.941 13.9713 19.879 14.0135C19.8175 14.055 19.7702 14.1093 19.7371 14.1761C19.704 14.243 19.6874 14.3147 19.6874 14.3912V14.5141C19.6874 14.619 19.7055 14.7078 19.7416 14.7807C19.7784 14.853 19.8293 14.9081 19.8943 14.9461C19.9594 14.9835 20.035 15.0021 20.1212 15.0021C20.1772 15.0021 20.2278 14.9943 20.273 14.9786C20.3188 14.9624 20.3582 14.9383 20.3914 14.9063C20.4245 14.8738 20.4501 14.8334 20.4682 14.7852L20.6742 14.8431C20.6525 14.913 20.6161 14.9744 20.5649 15.0274C20.5137 15.0798 20.4504 15.1208 20.3751 15.1503C20.2998 15.1793 20.2152 15.1937 20.1212 15.1937ZM21.4288 15.1973C21.3409 15.1973 21.261 15.1808 21.1893 15.1476C21.1177 15.1139 21.0607 15.0654 21.0185 15.0021C20.9764 14.9383 20.9553 14.8611 20.9553 14.7708C20.9553 14.6913 20.971 14.6268 21.0023 14.5774C21.0336 14.5274 21.0755 14.4882 21.1279 14.4599C21.1803 14.4316 21.2381 14.4105 21.3014 14.3966C21.3653 14.3822 21.4294 14.3707 21.4939 14.3623C21.5782 14.3515 21.6466 14.3433 21.699 14.3379C21.7521 14.3319 21.7906 14.3219 21.8147 14.3081C21.8394 14.2942 21.8518 14.2701 21.8518 14.2358V14.2286C21.8518 14.1394 21.8274 14.0701 21.7786 14.0207C21.7304 13.9713 21.6572 13.9466 21.559 13.9466C21.4571 13.9466 21.3773 13.9689 21.3195 14.0135C21.2616 14.0581 21.221 14.1056 21.1975 14.1563L20.9951 14.084C21.0312 13.9996 21.0794 13.9339 21.1396 13.887C21.2005 13.8394 21.2668 13.8062 21.3385 13.7875C21.4108 13.7683 21.4818 13.7586 21.5517 13.7586C21.5963 13.7586 21.6475 13.764 21.7054 13.7749C21.7638 13.7851 21.8201 13.8065 21.8744 13.8391C21.9292 13.8716 21.9747 13.9207 22.0108 13.9864C22.047 14.052 22.065 14.14 22.065 14.2502V15.1648H21.8518V14.9768H21.8409C21.8265 15.0069 21.8024 15.0392 21.7686 15.0735C21.7349 15.1079 21.69 15.1371 21.634 15.1612C21.5779 15.1853 21.5096 15.1973 21.4288 15.1973ZM21.4614 15.0057C21.5457 15.0057 21.6168 14.9892 21.6746 14.956C21.7331 14.9229 21.7771 14.8801 21.8066 14.8277C21.8367 14.7753 21.8518 14.7202 21.8518 14.6623V14.4671C21.8427 14.478 21.8228 14.4879 21.7921 14.497C21.762 14.5054 21.7271 14.5129 21.6873 14.5195C21.6481 14.5256 21.6099 14.531 21.5725 14.5358C21.5358 14.54 21.5059 14.5436 21.4831 14.5467C21.4276 14.5539 21.3758 14.5656 21.3276 14.5819C21.28 14.5976 21.2415 14.6214 21.2119 14.6533C21.183 14.6846 21.1686 14.7274 21.1686 14.7816C21.1686 14.8557 21.196 14.9118 21.2508 14.9497C21.3062 14.9871 21.3764 15.0057 21.4614 15.0057ZM23.058 13.7767V13.9574H22.3386V13.7767H23.058ZM22.5483 13.4441H22.7616V14.7672C22.7616 14.8274 22.7703 14.8726 22.7878 14.9027C22.8059 14.9322 22.8288 14.9521 22.8565 14.9624C22.8848 14.972 22.9146 14.9768 22.9459 14.9768C22.9694 14.9768 22.9887 14.9756 23.0038 14.9732C23.0188 14.9702 23.0309 14.9678 23.0399 14.966L23.0833 15.1576C23.0688 15.163 23.0487 15.1684 23.0227 15.1738C22.9968 15.1799 22.964 15.1829 22.9242 15.1829C22.864 15.1829 22.805 15.1699 22.7471 15.144C22.6899 15.1181 22.6423 15.0786 22.6043 15.0256C22.567 14.9726 22.5483 14.9057 22.5483 14.825V13.4441ZM23.9459 15.1937C23.8121 15.1937 23.6968 15.1642 23.5998 15.1052C23.5034 15.0455 23.429 14.9624 23.3765 14.8557C23.3247 14.7485 23.2988 14.6238 23.2988 14.4816C23.2988 14.3394 23.3247 14.2141 23.3765 14.1056C23.429 13.9966 23.5019 13.9117 23.5952 13.8508C23.6892 13.7894 23.7989 13.7586 23.9242 13.7586C23.9965 13.7586 24.0679 13.7707 24.1384 13.7948C24.2089 13.8189 24.273 13.858 24.3309 13.9123C24.3887 13.9659 24.4348 14.037 24.4691 14.1255C24.5035 14.2141 24.5206 14.3231 24.5206 14.4527V14.543H23.4507V14.3587H24.3038C24.3038 14.2804 24.2881 14.2105 24.2568 14.149C24.226 14.0876 24.1821 14.0391 24.1248 14.0035C24.0682 13.968 24.0013 13.9502 23.9242 13.9502C23.8392 13.9502 23.7657 13.9713 23.7037 14.0135C23.6422 14.055 23.5949 14.1093 23.5618 14.1761C23.5287 14.243 23.5121 14.3147 23.5121 14.3912V14.5141C23.5121 14.619 23.5302 14.7078 23.5663 14.7807C23.6031 14.853 23.654 14.9081 23.7191 14.9461C23.7841 14.9835 23.8597 15.0021 23.9459 15.0021C24.0019 15.0021 24.0525 14.9943 24.0977 14.9786C24.1435 14.9624 24.183 14.9383 24.2161 14.9063C24.2492 14.8738 24.2748 14.8334 24.2929 14.7852L24.499 14.8431C24.4773 14.913 24.4408 14.9744 24.3896 15.0274C24.3384 15.0798 24.2751 15.1208 24.1998 15.1503C24.1245 15.1793 24.0399 15.1937 23.9459 15.1937ZM25.3692 15.1937C25.2536 15.1937 25.1514 15.1645 25.0629 15.1061C24.9743 15.047 24.905 14.9639 24.855 14.8566C24.805 14.7488 24.78 14.6214 24.78 14.4744C24.78 14.3286 24.805 14.202 24.855 14.0948C24.905 13.9876 24.9746 13.9047 25.0638 13.8463C25.1529 13.7878 25.256 13.7586 25.3728 13.7586C25.4632 13.7586 25.5346 13.7737 25.587 13.8038C25.64 13.8333 25.6804 13.8671 25.7081 13.905C25.7364 13.9424 25.7584 13.9731 25.7741 13.9972H25.7922V13.314H26.0054V15.1648H25.7994V14.9515H25.7741C25.7584 14.9768 25.7361 15.0088 25.7072 15.0473C25.6783 15.0853 25.637 15.1193 25.5834 15.1494C25.5298 15.179 25.4584 15.1937 25.3692 15.1937ZM25.3981 15.0021C25.4837 15.0021 25.556 14.9798 25.615 14.9353C25.6741 14.8901 25.719 14.8277 25.7497 14.7482C25.7804 14.6681 25.7958 14.5756 25.7958 14.4707C25.7958 14.3671 25.7807 14.2764 25.7506 14.1987C25.7205 14.1204 25.6759 14.0596 25.6168 14.0162C25.5578 13.9722 25.4849 13.9502 25.3981 13.9502C25.3078 13.9502 25.2325 13.9734 25.1722 14.0198C25.1126 14.0656 25.0677 14.1279 25.0376 14.2069C25.008 14.2852 24.9933 14.3731 24.9933 14.4707C24.9933 14.5696 25.0083 14.6593 25.0385 14.7401C25.0692 14.8202 25.1144 14.884 25.174 14.9316C25.2343 14.9786 25.309 15.0021 25.3981 15.0021ZM27.1703 15.1648V13.314H27.3836V13.9972H27.4017C27.4173 13.9731 27.439 13.9424 27.4667 13.905C27.4951 13.8671 27.5354 13.8333 27.5878 13.8038C27.6408 13.7737 27.7125 13.7586 27.8029 13.7586C27.9198 13.7586 28.0228 13.7878 28.112 13.8463C28.2011 13.9047 28.2707 13.9876 28.3207 14.0948C28.3707 14.202 28.3957 14.3286 28.3957 14.4744C28.3957 14.6214 28.3707 14.7488 28.3207 14.8566C28.2707 14.9639 28.2014 15.047 28.1129 15.1061C28.0243 15.1645 27.9222 15.1937 27.8065 15.1937C27.7174 15.1937 27.646 15.179 27.5924 15.1494C27.5387 15.1193 27.4975 15.0853 27.4685 15.0473C27.4396 15.0088 27.4173 14.9768 27.4017 14.9515H27.3764V15.1648H27.1703ZM27.38 14.4707C27.38 14.5756 27.3953 14.6681 27.4261 14.7482C27.4568 14.8277 27.5017 14.8901 27.5607 14.9353C27.6198 14.9798 27.6921 15.0021 27.7776 15.0021C27.8668 15.0021 27.9412 14.9786 28.0008 14.9316C28.0611 14.884 28.1063 14.8202 28.1364 14.7401C28.1671 14.6593 28.1825 14.5696 28.1825 14.4707C28.1825 14.3731 28.1674 14.2852 28.1373 14.2069C28.1078 14.1279 28.0629 14.0656 28.0026 14.0198C27.943 13.9734 27.868 13.9502 27.7776 13.9502C27.6909 13.9502 27.618 13.9722 27.5589 14.0162C27.4999 14.0596 27.4553 14.1204 27.4252 14.1987C27.395 14.2764 27.38 14.3671 27.38 14.4707ZM28.8096 15.6853C28.7735 15.6853 28.7413 15.6823 28.7129 15.6763C28.6846 15.6709 28.6651 15.6654 28.6542 15.66L28.7084 15.4721C28.7602 15.4853 28.806 15.4901 28.8458 15.4865C28.8856 15.4829 28.9208 15.4651 28.9515 15.4332C28.9829 15.4019 29.0115 15.351 29.0374 15.2805L29.0771 15.172L28.5638 13.7767H28.7952L29.1784 14.8828H29.1928L29.576 13.7767H29.8073L29.2181 15.3672C29.1916 15.4389 29.1588 15.4983 29.1196 15.5453C29.0805 15.5929 29.035 15.6281 28.9832 15.651C28.9319 15.6739 28.8741 15.6853 28.8096 15.6853ZM16.812 18.1648V16.314H17.9218V16.5128H17.0361V17.1382H17.8386V17.337H17.0361V18.1648H16.812ZM18.6852 18.1973C18.5972 18.1973 18.5174 18.1808 18.4457 18.1476C18.374 18.1139 18.3171 18.0654 18.2749 18.0021C18.2327 17.9383 18.2116 17.8611 18.2116 17.7708C18.2116 17.6913 18.2273 17.6268 18.2586 17.5774C18.29 17.5274 18.3318 17.4882 18.3842 17.4599C18.4367 17.4316 18.4945 17.4105 18.5577 17.3966C18.6216 17.3822 18.6858 17.3707 18.7502 17.3623C18.8346 17.3515 18.903 17.3433 18.9554 17.3379C19.0084 17.3319 19.047 17.3219 19.0711 17.3081C19.0958 17.2942 19.1081 17.2701 19.1081 17.2358V17.2286C19.1081 17.1394 19.0837 17.0701 19.0349 17.0207C18.9867 16.9713 18.9135 16.9466 18.8153 16.9466C18.7135 16.9466 18.6337 16.9689 18.5758 17.0135C18.518 17.0581 18.4773 17.1056 18.4538 17.1563L18.2514 17.084C18.2875 16.9996 18.3357 16.9339 18.396 16.887C18.4568 16.8394 18.5231 16.8062 18.5948 16.7875C18.6671 16.7683 18.7382 16.7586 18.8081 16.7586C18.8527 16.7586 18.9039 16.764 18.9617 16.7749C19.0201 16.7851 19.0765 16.8065 19.1307 16.8391C19.1855 16.8716 19.231 16.9207 19.2672 16.9864C19.3033 17.052 19.3214 17.14 19.3214 17.2502V18.1648H19.1081V17.9768H19.0973C19.0828 18.0069 19.0587 18.0392 19.025 18.0735C18.9912 18.1079 18.9463 18.1371 18.8903 18.1612C18.8343 18.1853 18.7659 18.1973 18.6852 18.1973ZM18.7177 18.0057C18.8021 18.0057 18.8731 17.9892 18.931 17.956C18.9894 17.9229 19.0334 17.8801 19.0629 17.8277C19.093 17.7753 19.1081 17.7202 19.1081 17.6623V17.4671C19.0991 17.478 19.0792 17.4879 19.0485 17.497C19.0183 17.5054 18.9834 17.5129 18.9436 17.5195C18.9045 17.5256 18.8662 17.531 18.8289 17.5358C18.7921 17.54 18.7623 17.5436 18.7394 17.5467C18.684 17.5539 18.6322 17.5656 18.584 17.5819C18.5364 17.5976 18.4978 17.6214 18.4683 17.6533C18.4394 17.6846 18.4249 17.7274 18.4249 17.7816C18.4249 17.8557 18.4523 17.9118 18.5071 17.9497C18.5626 17.9871 18.6328 18.0057 18.7177 18.0057ZM19.9239 16.314V18.1648H19.7107V16.314H19.9239ZM20.2748 18.1648V18.0021L21.0628 16.99V16.9755H20.3001V16.7767H21.3376V16.9466L20.5712 17.9515V17.966H21.3629V18.1648H20.2748ZM22.0998 18.1973C22.0119 18.1973 21.932 18.1808 21.8604 18.1476C21.7887 18.1139 21.7317 18.0654 21.6896 18.0021C21.6474 17.9383 21.6263 17.8611 21.6263 17.7708C21.6263 17.6913 21.642 17.6268 21.6733 17.5774C21.7046 17.5274 21.7465 17.4882 21.7989 17.4599C21.8513 17.4316 21.9092 17.4105 21.9724 17.3966C22.0363 17.3822 22.1004 17.3707 22.1649 17.3623C22.2492 17.3515 22.3176 17.3433 22.37 17.3379C22.4231 17.3319 22.4616 17.3219 22.4857 17.3081C22.5104 17.2942 22.5228 17.2701 22.5228 17.2358V17.2286C22.5228 17.1394 22.4984 17.0701 22.4496 17.0207C22.4014 16.9713 22.3282 16.9466 22.23 16.9466C22.1282 16.9466 22.0483 16.9689 21.9905 17.0135C21.9326 17.0581 21.892 17.1056 21.8685 17.1563L21.6661 17.084C21.7022 16.9996 21.7504 16.9339 21.8106 16.887C21.8715 16.8394 21.9378 16.8062 22.0095 16.7875C22.0818 16.7683 22.1529 16.7586 22.2227 16.7586C22.2673 16.7586 22.3185 16.764 22.3764 16.7749C22.4348 16.7851 22.4911 16.8065 22.5454 16.8391C22.6002 16.8716 22.6457 16.9207 22.6818 16.9864C22.718 17.052 22.736 17.14 22.736 17.2502V18.1648H22.5228V17.9768H22.5119C22.4975 18.0069 22.4734 18.0392 22.4396 18.0735C22.4059 18.1079 22.361 18.1371 22.305 18.1612C22.2489 18.1853 22.1806 18.1973 22.0998 18.1973ZM22.1324 18.0057C22.2167 18.0057 22.2878 17.9892 22.3456 17.956C22.4041 17.9229 22.4481 17.8801 22.4776 17.8277C22.5077 17.7753 22.5228 17.7202 22.5228 17.6623V17.4671C22.5137 17.478 22.4939 17.4879 22.4631 17.497C22.433 17.5054 22.3981 17.5129 22.3583 17.5195C22.3191 17.5256 22.2809 17.531 22.2435 17.5358C22.2068 17.54 22.177 17.5436 22.1541 17.5467C22.0986 17.5539 22.0468 17.5656 21.9986 17.5819C21.951 17.5976 21.9125 17.6214 21.8829 17.6533C21.854 17.6846 21.8396 17.7274 21.8396 17.7816C21.8396 17.8557 21.867 17.9118 21.9218 17.9497C21.9772 17.9871 22.0474 18.0057 22.1324 18.0057ZM23.1253 18.1648V16.7767H23.3314V16.9864H23.3458C23.3711 16.9177 23.4169 16.8619 23.4832 16.8192C23.5495 16.7764 23.6242 16.755 23.7073 16.755C23.723 16.755 23.7426 16.7553 23.766 16.7559C23.7895 16.7565 23.8073 16.7574 23.8194 16.7586V16.9755C23.8121 16.9737 23.7956 16.971 23.7697 16.9674C23.7444 16.9632 23.7175 16.9611 23.6892 16.9611C23.6218 16.9611 23.5615 16.9752 23.5085 17.0035C23.4561 17.0312 23.4145 17.0698 23.3838 17.1192C23.3537 17.168 23.3386 17.2237 23.3386 17.2864V18.1648H23.1253ZM24.8168 18.1648V16.314H25.9266V16.5128H25.041V17.1382H25.8434V17.337H25.041V18.1648H24.8168ZM26.249 18.1648V18.0021L27.2467 16.5128H26.2381V16.314H27.5142V16.4767L26.5165 17.966H27.525V18.1648H26.249Z" fill="black"/>
<path d="M22.2935 0.129065C15.0725 0.204267 8.00789 3.93932 4.24587 10.0326C-1.73863 19.1349 -1.28153 32.1355 6.10898 40.3575C10.851 45.6166 18.1825 48.313 25.2885 47.8184C33.0626 47.6686 40.6219 43.2648 44.2728 36.4918C47.5091 30.9405 48.4225 24.2342 47.1056 17.9892C45.7281 9.76007 38.9868 2.56432 30.6891 0.672819C27.9279 0.174588 25.0945 0.107062 22.2935 0.129065Z" fill="url(#paint0_radial_350_223)"/>
<path d="M14.3018 1.71822C32.2986 2.50683 40.4047 9.16233 47.109 17.991C45.7315 9.76183 38.9902 2.56608 30.6925 0.674579C28.6849 0.30799 19.6687 -0.753349 14.3018 1.71822Z" fill="url(#paint1_radial_350_223)"/>
<path d="M6.36359 7.67383C5.62045 13.9393 7.61799 23.815 12.7289 31.348C19.4304 41.2253 26.2056 49.5924 33.3221 46.1223C29.3987 45.713 21.1787 40.7741 14.231 30.5691C10.0798 24.4718 7.28155 16.6553 6.36359 7.67383Z" fill="url(#paint2_radial_350_223)"/>
<path d="M4.35355 14.458C3.78755 27.0798 10.1228 37.257 18.0614 41.627C11.0721 34.481 4.99626 24.2456 4.35355 14.458Z" fill="url(#paint3_radial_350_223)"/>
<path d="M3.33838 33.9717C4.70691 39.1942 10.183 43.841 14.2657 45.8086C9.81698 43.3127 5.24455 37.5948 3.33838 33.9717Z" fill="url(#paint4_radial_350_223)"/>
<path d="M2.1447 14.3423C1.51619 19.6413 2.38431 27.7199 6.70689 34.091C12.3746 42.4447 22.4565 49.3475 26.9969 47.015C23.5692 46.8879 14.0723 42.7201 8.19625 34.0893C4.68542 28.9324 2.22415 24.0292 2.1447 14.3423Z" fill="url(#paint5_radial_350_223)"/>
<path d="M1.55615 25.022C1.73177 28.4973 3.35151 33.7217 6.96709 37.7796C11.856 43.2665 17.464 47.859 20.5924 47.125C17.8026 46.1081 12.6089 43.1791 7.99842 37.8332C5.12173 34.4975 3.15014 31.7941 1.55615 25.022Z" fill="url(#paint6_radial_350_223)"/>
<path d="M20.9126 36.3877C25.1769 40.6139 33.6903 47.7266 36.3817 44.1631C32.0744 40.6416 26.3931 38.4022 20.9126 36.3877Z" fill="url(#paint7_radial_350_223)"/>
<path d="M9.60254 4.30103C10.7746 12.3366 13.078 19.065 16.4197 24.5556C21.0852 32.2214 27.4119 36.2556 33.2746 39.1604C28.2993 35.0251 22.9428 31.4104 17.8763 23.6617C13.7342 17.3267 12.0011 10.8898 9.60254 4.30103Z" fill="url(#paint8_radial_350_223)"/>
<path d="M14.2505 1.77595C17.7371 2.63963 20.0973 1.9159 21.1609 6.24032C21.8199 8.91994 21.3919 12.6581 22.2612 16.1682C23.2526 20.1716 28.2102 26.6627 29.6455 29.0262C35.8634 39.2653 35.693 42.7275 37.3477 43.8659C43.4503 40.8378 34.3335 33.5162 28.2278 22.3716C27.3264 20.7263 25.3021 18.3816 24.4718 15.6692C23.337 11.9622 23.4244 7.70265 22.3955 4.83744C21.1771 1.44464 17.9803 1.30408 14.2505 1.77595Z" fill="url(#paint9_radial_350_223)"/>
<path d="M29.0244 23.1367C35.8768 29.6785 40.0449 33.5002 41.0864 40.3631C51.0809 31.5181 32.5009 25.6182 29.0244 23.1367Z" fill="url(#paint10_radial_350_223)"/>
<path d="M25.1938 5.46753C29.2935 12.107 32.4155 18.4948 35.1841 21.7089C40.0548 27.3634 44.4898 29.0317 44.4871 35.6255C48.8601 28.3469 43.5194 25.2292 37.5779 19.3401C33.2643 15.0646 29.1628 10.106 25.1938 5.46753Z" fill="url(#paint11_radial_350_223)"/>
<path d="M18.5649 0.559825C30.045 2.55462 31.8073 7.85818 35.0379 11.8791C40.5335 18.7194 46.8564 26.4665 46.3878 30.1976C49.6765 24.0939 43.3314 17.6411 37.1823 10.4169C32.2419 4.61263 27.6837 0.0578471 18.5649 0.559825Z" fill="url(#paint12_radial_350_223)"/>
<path d="M22.7944 0.163809C32.5564 1.88884 34.6108 6.12636 37.4014 9.29136C42.1488 14.6755 46.9138 20.4638 47.2059 23.7103C47.4914 19.5255 44.4108 13.7493 39.099 8.06295C34.8313 3.49427 29.6648 -0.308749 22.7944 0.163809Z" fill="url(#paint13_radial_350_223)"/>
<path d="M27.3774 0.282945C35.3095 1.88999 39.832 7.60557 42.0995 10.5541C45.9569 15.57 46.9636 19.1814 47.2009 22.2059C47.4329 18.3073 45.7816 13.1585 41.4655 7.86104C37.9978 3.60482 32.9599 -0.157294 27.3774 0.282945Z" fill="url(#paint14_radial_350_223)"/>
<path d="M11.7344 2.97729C15.1469 8.28758 17.6204 15.6326 22.5574 19.4254C20.2634 15.9814 17.2149 4.37229 11.7344 2.97729Z" fill="url(#paint15_linear_350_223)"/>
<path d="M5.8357 32.6668C4.97226 32.4761 4.18182 32.0228 3.83361 31.5186C3.56897 31.1354 3.39648 30.7061 3.39648 30.4308C3.39648 30.228 3.442 30.1869 3.84175 30.028C6.83199 29.2299 7.62437 28.1234 8.41149 27.3236C9.82874 25.2488 9.66425 19.0151 9.59684 13.8995C9.67893 13.2876 11.1597 12.9146 11.8894 13.8808C15.4788 13.874 21.2795 13.9136 23.2161 13.8283C23.0716 12.0635 22.7835 10.9698 23.8142 10.9845C25.4463 11.0079 24.9348 11.8937 25.4491 13.853C29.8929 13.8477 32.2123 13.8269 37.2773 13.8249C37.9274 14.1939 37.5667 15.4526 37.1834 15.7325C34.4351 16.462 33.8765 15.5391 32.0826 15.6645C32.0712 16.276 32.0737 16.709 32.1037 17.3225C33.41 17.3728 35.607 17.3822 36.6342 17.3872C36.9311 18.0564 36.9525 18.5838 36.5308 19.1622C34.9564 19.1514 32.8749 19.1193 31.9985 19.1904C34.0343 20.9205 38.7201 22.2459 40.4091 22.3042C39.8006 24.2253 38.5425 24.7686 36.631 24.3046C35.9058 23.9932 32.795 21.7538 32.0823 21.2569C32.0586 22.1596 32.0214 22.2429 31.9258 23.6632C31.5005 24.1879 30.9376 24.2038 30.5428 23.7437C30.272 23.4077 30.3524 22.0492 30.3289 21.3575C29.633 21.4736 29.0335 23.6466 26.2351 23.8154C24.5494 22.7714 25.0357 21.9314 25.2514 21.642C26.7354 21.7774 29.9689 21.0999 30.2581 19.1741C28.5648 19.1633 27.89 19.1717 26.1351 19.1705C25.8767 18.6746 25.8296 18.1835 26.1507 17.3826C27.4624 17.3768 29.2192 17.3873 30.2313 17.3862C30.2951 16.5928 30.1689 16.1899 30.2091 15.6246C26.9764 15.6438 22.6708 15.6361 20.1962 15.5959C20.1655 15.966 20.1852 16.7475 20.225 17.3781C21.9494 17.3921 22.8916 17.372 24.0151 17.4458C24.4938 17.737 24.5115 18.814 24.0362 19.1028C23.0893 19.1661 21.3434 19.1264 20.1763 19.1549C21.2398 21.0611 24.911 20.5844 22.8663 22.1974C21.9959 22.2381 20.83 21.6465 20.28 21.0432L20.2969 23.5301C19.7572 24.0882 19.1317 24.0278 18.5005 23.5119C18.4786 23.0387 18.4747 22.0139 18.477 21.1616C17.9503 22.179 16.5953 23.0105 16.3705 23.1776C14.525 24.5493 12.8895 24.2941 12.5322 22.2756C14.4729 22.2369 17.4236 20.9493 18.3892 19.1694C17.1727 19.1614 15.3674 19.1436 14.2724 19.1107C13.9728 18.4953 13.8925 18.0009 14.3056 17.4336C15.702 17.354 17.44 17.3937 18.4411 17.3486C18.4329 16.8619 18.3648 15.9975 18.3688 15.5871C16.4291 15.6077 13.8022 15.6289 11.8756 15.6226C11.8092 20.7721 12.8791 27.8682 9.57699 30.9357C9.10619 31.5502 8.08713 32.3966 7.77408 32.5584C7.48965 32.7055 6.29796 32.7689 5.8357 32.6668ZM22.1443 25.0421L16.0306 25.1181C16.0306 25.1181 16.0166 31.0284 16.0197 33.3801C17.5503 33.3651 18.9526 33.4029 20.4852 33.4204C17.8884 36.2324 14.6109 37.2437 10.9162 37.1371C9.35679 38.6559 10.2065 40.269 12.9254 39.8807C18.1505 39.1046 20.6576 37.222 22.7149 33.4451C23.5859 33.4628 23.9888 33.3584 24.9144 33.4378C24.9388 34.9655 24.9406 37.0728 24.9714 38.6207C25.0702 39.4626 29.9581 39.5211 31.4744 39.6071C33.5483 39.7748 35.2442 40.15 37.8015 40.2087C39.0353 40.1573 40.5888 38.1774 40.3391 36.5368C38.9792 36.1553 38.9208 36.7559 37.4204 37.0772C33.7705 36.9912 30.2171 37.1192 26.7128 37.0383C26.6527 35.6581 26.7192 33.4093 26.7192 33.4093L31.4751 33.3844C31.4751 33.3844 31.4554 33.1798 31.4562 33.8772C30.7104 34.6134 30.4836 35.0832 30.3012 35.68C32.4435 35.7499 34.9164 35.7678 37.9473 35.7341C38.2125 34.9614 37.7495 33.3449 36.3077 32.7229C36.1584 33.2539 36.262 33.3279 36.2134 34.5612C34.5827 34.6007 33.7159 34.5703 32.8016 34.5806C33.7962 33.4811 34.8134 32.8638 35.5627 31.7744C35.7196 31.4283 35.6146 31.0353 35.2012 30.9891C34.5989 30.9478 33.9607 31.6445 32.7566 32.5793C32.5642 30.3986 32.6378 26.4267 32.615 25.0489L23.9766 25.0888C23.9766 25.0888 24.3306 23.8671 24.318 22.9655C23.8969 22.5863 22.9267 22.6081 22.5839 23.0148L22.1443 25.0421ZM23.1128 26.8752L23.1517 28.6204L18.446 28.6342L18.4221 26.9158L23.1128 26.8752ZM30.2875 26.8524L30.2628 28.625L25.4974 28.5875L25.5504 26.9073L30.2875 26.8524ZM30.2935 32.1983L25.5392 32.1871L25.5282 30.4153L30.3201 30.3759L30.2935 32.1983ZM23.2157 30.4974L23.117 32.1813L18.3793 32.1872L18.402 30.48L23.2157 30.4974Z" fill="white"/>
<path d="M11.9565 10.6769C11.5411 10.628 11.0927 10.5382 10.9179 10.4689L10.7734 10.4116V9.77078V9.13H10.8918C11.0009 9.13 11.014 9.14575 11.0605 9.33325C11.1991 9.89138 11.5399 10.2131 12.1795 10.3896C12.5068 10.4799 13.1167 10.4521 13.4001 10.3341C13.8447 10.1489 14.1086 9.82077 14.1485 9.40362C14.2071 8.78983 13.8283 8.40706 12.3058 7.54181C11.4946 7.08079 11.1618 6.82108 11.0018 6.5242C10.8066 6.16201 10.8472 5.72287 11.1106 5.34895C11.3762 4.9717 12.0402 4.67417 12.8069 4.5888C13.2329 4.54134 14.1593 4.59573 14.486 4.68738L14.6696 4.73889L14.6809 5.3277L14.6922 5.91647L14.5789 5.9164C14.4762 5.91635 14.4592 5.8956 14.3966 5.69318C14.2041 5.0715 13.746 4.79809 12.9684 4.84081C12.3532 4.87463 12.1989 5.1806 12.1564 5.66752C12.117 6.11852 12.3168 6.36237 13.1477 6.87733C14.493 7.71114 14.7302 7.86682 14.9532 8.06274C15.0842 8.17787 15.2456 8.36495 15.3119 8.47844C15.4216 8.66635 15.4323 8.71765 15.4323 9.0526C15.4323 9.3767 15.4188 9.44652 15.3186 9.64022C15.0903 10.0813 14.3033 10.445 13.6183 10.6027C13.2234 10.6935 12.4077 10.73 11.9565 10.6769Z" fill="#FFFBFF"/>
<path d="M15.98 10.5098C15.98 10.4242 15.9985 10.4172 16.2812 10.3969C16.6386 10.3713 16.8236 10.2918 16.8668 10.1454C16.9075 10.0073 16.9075 5.27095 16.8668 5.13285C16.8236 4.98639 16.6386 4.90689 16.2812 4.88124C15.9958 4.86077 15.98 4.85471 15.98 4.76561V4.67163L18.0197 4.68714C19.7486 4.70173 19.6935 4.70796 20.0086 4.78611C20.3965 4.88227 20.7686 5.05022 20.9751 5.22224C21.0541 5.2881 21.1788 5.45781 21.2522 5.59936C21.3747 5.83567 21.3857 5.88698 21.3857 6.22722C21.3857 6.5774 21.3773 6.6139 21.2326 6.8917C20.9756 7.38502 20.4726 7.74835 19.8267 7.9072C19.5616 7.97239 19.1301 8.04385 18.8152 8.04494C18.6484 8.04552 18.6214 8.0348 18.6214 7.96815C18.6214 7.90168 18.6489 7.89065 18.8152 7.89007C19.3429 7.88831 19.4836 7.67755 19.7679 7.37744C20.046 7.08395 20.1295 6.83675 20.1309 6.30332C20.1321 5.75694 20.0508 5.54483 19.7364 5.27656C19.4308 5.01585 19.5708 4.94219 18.7744 4.91897L18.1319 4.90027L18.1226 7.27635C18.1178 8.58319 18.1178 9.74823 18.1229 9.86535C18.1417 10.2803 18.2347 10.3614 18.7336 10.3973C19.0107 10.4172 19.0294 10.4243 19.0294 10.5098V10.601H17.4079H15.98L15.98 10.5098Z" fill="#FFFBFF"/>
<path d="M22.0674 10.507C22.0674 10.4222 22.0871 10.4142 22.3499 10.3933C22.6987 10.3656 22.8604 10.2906 22.9197 10.129C22.951 10.044 22.9649 9.26876 22.9649 7.62925C22.9649 5.09926 22.9613 5.04711 22.7695 4.94978C22.7255 4.92743 22.6093 4.89902 22.5111 4.88657C22.0805 4.83199 22.1448 4.78924 22.1448 4.71135C22.1448 4.63711 24.5261 4.67441 24.454 4.67441H26.8407V5.33261V5.9908H26.7191C26.6194 5.9908 26.5931 5.97156 26.5734 5.88433C26.4652 5.40601 26.3082 5.14218 26.0553 5.01397C25.8918 4.93107 25.8282 4.92537 24.9334 4.91381L24.2172 4.90161V6.14312V7.38467H24.5992C24.937 7.38467 25.2971 7.36467 25.3994 7.34026C25.6501 7.28035 25.8376 7.09712 25.9055 6.84569C25.9535 6.66788 25.9695 6.64904 26.0732 6.64904H26.1879V7.53954V8.43003H26.0691C25.9635 8.43003 25.9474 8.41381 25.9243 8.28411C25.8785 8.02723 25.7387 7.83931 25.5149 7.73411C25.3288 7.64662 25.2534 7.63697 24.6486 7.62311L24.2185 7.60792L24.2076 8.64815C24.1955 9.81626 24.213 9.98829 24.3618 10.1354C24.5181 10.2903 24.4779 10.3315 25.1515 10.3547C26.1867 10.3904 26.6234 10.2701 26.94 9.86188C27.0355 9.73869 27.1749 9.51422 27.2496 9.36307C27.3607 9.13834 27.4027 9.08823 27.4802 9.08823C27.5323 9.08823 27.575 9.11002 27.575 9.13666C27.5749 9.1633 27.5108 9.49864 27.4325 9.88195C27.3541 10.2653 27.2899 10.5832 27.2897 10.5885C27.2895 10.5938 26.1145 10.5983 24.6784 10.5983H22.0674L22.0674 10.507Z" fill="#FFFBFF"/>
<path d="M28.3443 10.5016C28.3443 10.4114 28.3582 10.4045 28.5408 10.4045C28.6489 10.4045 28.8303 10.3783 28.9439 10.3463C29.1121 10.2989 29.1027 10.2648 29.1482 10.1624C29.1935 10.0605 29.2041 9.58177 29.2041 7.63619C29.2041 6.31592 29.1901 5.2462 29.1729 5.18802C29.1293 5.04022 28.9905 4.95558 28.64 4.93401C28.3615 4.91683 28.3442 4.85236 28.3442 4.76604V4.67432H29.7721H31.2V4.76604C31.2 4.85228 31.1825 4.91696 30.9043 4.93512C30.7416 4.94576 30.6173 4.97639 30.5571 5.00329C30.3405 5.10005 30.3402 5.04566 30.3402 7.57815C30.3402 10.2483 30.3222 10.106 30.6797 10.2626C30.854 10.339 30.8796 10.3462 31.5876 10.3463C32.2777 10.3464 32.3947 10.3369 32.6544 10.2594C32.9035 10.1851 32.9752 10.142 33.1467 9.96392C33.2584 9.84791 33.4233 9.60754 33.5185 9.42182C33.6652 9.13551 33.7039 9.08811 33.7911 9.08811C33.847 9.08811 33.8918 9.10119 33.8907 9.11719C33.8895 9.13318 33.82 9.46853 33.7359 9.86247L33.5829 10.5788L30.9636 10.5887L28.3442 10.5986L28.3443 10.5016Z" fill="#FFFBFF"/>
<path d="M33.9727 10.5067C33.9727 10.4212 33.9911 10.4139 34.2503 10.3963C34.5753 10.3742 34.6295 10.3069 34.7012 10.1724C34.7686 10.0461 34.7779 5.35125 34.7112 5.16964C34.6562 5.01978 34.6358 4.96278 34.2685 4.93633C33.9914 4.91639 33.9727 4.85118 33.9727 4.76574V4.67456H35.3949H36.8172L36.7988 4.76639C36.782 4.8498 36.7551 4.91801 36.5063 4.9349C36.1496 4.95913 36.1214 5.02654 36.0597 5.19767C35.9973 5.37082 35.9859 9.73308 36.0473 9.94299C36.1365 10.2475 36.2418 10.3306 37.0326 10.356C38.3275 10.3976 38.7328 10.218 39.1277 9.42748C39.2811 9.12045 39.3075 9.08905 39.4118 9.08871C39.502 9.0884 39.5223 9.10294 39.5061 9.15609C39.4947 9.19338 39.4281 9.50262 39.358 9.84333C39.2879 10.184 39.2213 10.4933 39.2099 10.5306C39.1906 10.5942 39.0301 10.5983 36.5811 10.5983H33.9728L33.9727 10.5067Z" fill="#FFFBFF"/>
</g>
<defs>
<radialGradient id="paint0_radial_350_223" cx="0" cy="0" r="1" gradientUnits="userSpaceOnUse" gradientTransform="translate(7.76433 8.1053) rotate(83.7571) scale(42.6063 43.9496)">
<stop stop-color="#C8DFC7"/>
<stop offset="0.671447" stop-color="#4FA5DE"/>
<stop offset="1" stop-color="#1C7AC2"/>
</radialGradient>
<radialGradient id="paint1_radial_350_223" cx="0" cy="0" r="1" gradientUnits="userSpaceOnUse" gradientTransform="translate(24.0459 23.7742) rotate(31.0905) scale(28.6547 24.5684)">
<stop stop-color="#63AEDA" stop-opacity="0.133929"/>
<stop offset="0.878012" stop-color="#60ADDB" stop-opacity="0.151786"/>
<stop offset="0.932229" stop-color="#74B490"/>
<stop offset="1" stop-color="#71B184"/>
</radialGradient>
<radialGradient id="paint2_radial_350_223" cx="0" cy="0" r="1" gradientUnits="userSpaceOnUse" gradientTransform="translate(16.5365 20.9516) rotate(47.8786) scale(27.217 22.5716)">
<stop stop-color="#5690D0"/>
<stop offset="0.722435" stop-color="#155C8C"/>
<stop offset="1" stop-color="#050505"/>
</radialGradient>
<radialGradient id="paint3_radial_350_223" cx="0" cy="0" r="1" gradientUnits="userSpaceOnUse" gradientTransform="translate(16.5365 20.9517) rotate(47.8786) scale(27.217 22.5716)">
<stop stop-color="#5690D0"/>
<stop offset="0.722435" stop-color="#155C8C"/>
<stop offset="1" stop-color="#050505"/>
</radialGradient>
<radialGradient id="paint4_radial_350_223" cx="0" cy="0" r="1" gradientUnits="userSpaceOnUse" gradientTransform="translate(16.5366 20.9517) rotate(47.8785) scale(27.217 22.5716)">
<stop stop-color="#5690D0"/>
<stop offset="0.722435" stop-color="#155C8C"/>
<stop offset="1" stop-color="#050505"/>
</radialGradient>
<radialGradient id="paint5_radial_350_223" cx="0" cy="0" r="1" gradientUnits="userSpaceOnUse" gradientTransform="translate(16.5365 20.9518) rotate(47.8786) scale(27.217 22.5716)">
<stop stop-color="#5690D0"/>
<stop offset="0.722435" stop-color="#155C8C"/>
<stop offset="1" stop-color="#050505"/>
</radialGradient>
<radialGradient id="paint6_radial_350_223" cx="0" cy="0" r="1" gradientUnits="userSpaceOnUse" gradientTransform="translate(16.5367 20.9516) rotate(47.8785) scale(27.217 22.5716)">
<stop stop-color="#5690D0"/>
<stop offset="0.722435" stop-color="#155C8C"/>
<stop offset="1" stop-color="#050505"/>
</radialGradient>
<radialGradient id="paint7_radial_350_223" cx="0" cy="0" r="1" gradientUnits="userSpaceOnUse" gradientTransform="translate(16.5368 20.9517) rotate(47.8785) scale(27.217 22.5716)">
<stop stop-color="#5690D0"/>
<stop offset="0.722435" stop-color="#155C8C"/>
<stop offset="1" stop-color="#050505"/>
</radialGradient>
<radialGradient id="paint8_radial_350_223" cx="0" cy="0" r="1" gradientUnits="userSpaceOnUse" gradientTransform="translate(16.5368 20.9516) rotate(47.8786) scale(27.217 22.5716)">
<stop stop-color="#5690D0"/>
<stop offset="0.722435" stop-color="#155C8C"/>
<stop offset="1" stop-color="#050505"/>
</radialGradient>
<radialGradient id="paint9_radial_350_223" cx="0" cy="0" r="1" gradientUnits="userSpaceOnUse" gradientTransform="translate(16.5365 20.9516) rotate(47.8785) scale(27.217 22.5716)">
<stop stop-color="#5690D0"/>
<stop offset="0.722435" stop-color="#155C8C"/>
<stop offset="1" stop-color="#050505"/>
</radialGradient>
<radialGradient id="paint10_radial_350_223" cx="0" cy="0" r="1" gradientUnits="userSpaceOnUse" gradientTransform="translate(16.5367 20.9518) rotate(47.8786) scale(27.217 22.5716)">
<stop stop-color="#5690D0"/>
<stop offset="0.722435" stop-color="#155C8C"/>
<stop offset="1" stop-color="#050505"/>
</radialGradient>
<radialGradient id="paint11_radial_350_223" cx="0" cy="0" r="1" gradientUnits="userSpaceOnUse" gradientTransform="translate(16.5368 20.9518) rotate(47.8786) scale(27.217 22.5716)">
<stop stop-color="#5690D0"/>
<stop offset="0.722435" stop-color="#155C8C"/>
<stop offset="1" stop-color="#050505"/>
</radialGradient>
<radialGradient id="paint12_radial_350_223" cx="0" cy="0" r="1" gradientUnits="userSpaceOnUse" gradientTransform="translate(16.5366 20.9516) rotate(47.8786) scale(27.217 22.5716)">
<stop stop-color="#5690D0"/>
<stop offset="0.722435" stop-color="#155C8C"/>
<stop offset="1" stop-color="#050505"/>
</radialGradient>
<radialGradient id="paint13_radial_350_223" cx="0" cy="0" r="1" gradientUnits="userSpaceOnUse" gradientTransform="translate(16.5367 20.9517) rotate(47.8786) scale(27.217 22.5716)">
<stop stop-color="#5690D0"/>
<stop offset="0.722435" stop-color="#155C8C"/>
<stop offset="1" stop-color="#050505"/>
</radialGradient>
<radialGradient id="paint14_radial_350_223" cx="0" cy="0" r="1" gradientUnits="userSpaceOnUse" gradientTransform="translate(16.5365 20.9517) rotate(47.8786) scale(27.217 22.5716)">
<stop stop-color="#5690D0"/>
<stop offset="0.722435" stop-color="#155C8C"/>
<stop offset="1" stop-color="#050505"/>
</radialGradient>
<linearGradient id="paint15_linear_350_223" x1="19.3141" y1="15.1506" x2="14.3488" y2="6.24187" gradientUnits="userSpaceOnUse">
<stop stop-color="#5693C9"/>
<stop offset="1" stop-color="#2D88CA"/>
</linearGradient>
<clipPath id="clip0_350_223">
<rect width="47.8102" height="48" fill="white"/>
</clipPath>
</defs>
</svg>
