<svg width="48" height="48" viewBox="0 0 48 48" fill="none" xmlns="http://www.w3.org/2000/svg">
<g clip-path="url(#clip0_347_191)">
<path d="M16.3474 15.2705H16.0565C16.0393 15.1868 16.0092 15.1133 15.9661 15.0499C15.9239 14.9866 15.8723 14.9334 15.8113 14.8904C15.7511 14.8466 15.6842 14.8137 15.6107 14.7918C15.5371 14.7699 15.4605 14.759 15.3807 14.759C15.2352 14.759 15.1034 14.7957 14.9853 14.8693C14.868 14.9428 14.7746 15.0511 14.705 15.1942C14.6361 15.3374 14.6017 15.513 14.6017 15.721C14.6017 15.9291 14.6361 16.1046 14.705 16.2478C14.7746 16.3909 14.868 16.4992 14.9853 16.5728C15.1034 16.6463 15.2352 16.683 15.3807 16.683C15.4605 16.683 15.5371 16.6721 15.6107 16.6502C15.6842 16.6283 15.7511 16.5958 15.8113 16.5528C15.8723 16.509 15.9239 16.4554 15.9661 16.3921C16.0092 16.3279 16.0393 16.2544 16.0565 16.1715H16.3474C16.3255 16.2943 16.2856 16.4042 16.2278 16.5012C16.1699 16.5982 16.0979 16.6807 16.0119 16.7487C15.9259 16.816 15.8293 16.8672 15.7221 16.9024C15.6157 16.9376 15.5019 16.9552 15.3807 16.9552C15.1758 16.9552 14.9936 16.9052 14.834 16.805C14.6744 16.7049 14.5489 16.5626 14.4574 16.378C14.3659 16.1934 14.3201 15.9744 14.3201 15.721C14.3201 15.4676 14.3659 15.2486 14.4574 15.064C14.5489 14.8794 14.6744 14.7371 14.834 14.637C14.9936 14.5369 15.1758 14.4868 15.3807 14.4868C15.5019 14.4868 15.6157 14.5044 15.7221 14.5396C15.8293 14.5748 15.9259 14.6264 16.0119 14.6945C16.0979 14.7617 16.1699 14.8438 16.2278 14.9408C16.2856 15.037 16.3255 15.1469 16.3474 15.2705ZM16.78 16.9224V15.1203H17.0475V15.3925H17.0663C17.0992 15.3034 17.1586 15.231 17.2446 15.1755C17.3307 15.1199 17.4276 15.0922 17.5356 15.0922C17.5559 15.0922 17.5813 15.0926 17.6118 15.0933C17.6423 15.0941 17.6654 15.0953 17.6811 15.0969V15.3784C17.6717 15.3761 17.6502 15.3726 17.6165 15.3679C17.5837 15.3624 17.5489 15.3597 17.5121 15.3597C17.4245 15.3597 17.3463 15.378 17.2775 15.4148C17.2094 15.4508 17.1555 15.5008 17.1156 15.565C17.0765 15.6283 17.0569 15.7007 17.0569 15.782V16.9224H16.78ZM18.71 16.9599C18.5363 16.9599 18.3865 16.9216 18.2606 16.8449C18.1355 16.7675 18.0389 16.6596 17.9708 16.5211C17.9036 16.3819 17.8699 16.22 17.8699 16.0354C17.8699 15.8508 17.9036 15.6882 17.9708 15.5474C18.0389 15.4058 18.1335 15.2955 18.2548 15.2165C18.3768 15.1368 18.5191 15.0969 18.6818 15.0969C18.7757 15.0969 18.8683 15.1125 18.9598 15.1438C19.0514 15.1751 19.1347 15.2259 19.2097 15.2963C19.2848 15.3659 19.3447 15.4582 19.3892 15.5732C19.4338 15.6882 19.4561 15.8297 19.4561 15.9979V16.1152H18.067V15.8759H19.1745C19.1745 15.7742 19.1542 15.6835 19.1135 15.6037C19.0736 15.5239 19.0165 15.461 18.9422 15.4148C18.8687 15.3687 18.7819 15.3456 18.6818 15.3456C18.5715 15.3456 18.4761 15.373 18.3955 15.4277C18.3158 15.4817 18.2544 15.5521 18.2113 15.6389C18.1683 15.7257 18.1468 15.8188 18.1468 15.9181V16.0777C18.1468 16.2138 18.1703 16.3291 18.2172 16.4238C18.2649 16.5176 18.331 16.5892 18.4155 16.6384C18.5 16.6869 18.5981 16.7112 18.71 16.7112C18.7827 16.7112 18.8484 16.701 18.9071 16.6807C18.9665 16.6596 19.0177 16.6283 19.0607 16.5868C19.1038 16.5446 19.137 16.4922 19.1605 16.4296L19.428 16.5047C19.3998 16.5954 19.3525 16.6752 19.286 16.744C19.2195 16.8121 19.1374 16.8653 19.0396 16.9036C18.9419 16.9411 18.832 16.9599 18.71 16.9599ZM20.4076 16.9646C20.2934 16.9646 20.1897 16.9431 20.0967 16.9001C20.0036 16.8563 19.9297 16.7933 19.8749 16.7112C19.8202 16.6283 19.7928 16.5282 19.7928 16.4108C19.7928 16.3076 19.8132 16.2239 19.8538 16.1598C19.8945 16.0949 19.9489 16.044 20.0169 16.0073C20.0849 15.9705 20.16 15.9431 20.2421 15.9251C20.3251 15.9064 20.4084 15.8915 20.492 15.8806C20.6015 15.8665 20.6903 15.8559 20.7584 15.8489C20.8272 15.8411 20.8772 15.8282 20.9085 15.8102C20.9406 15.7922 20.9566 15.7609 20.9566 15.7163V15.7069C20.9566 15.5912 20.925 15.5012 20.8616 15.4371C20.799 15.373 20.704 15.3409 20.5765 15.3409C20.4443 15.3409 20.3407 15.3698 20.2656 15.4277C20.1905 15.4856 20.1377 15.5474 20.1072 15.6131L19.8444 15.5192C19.8914 15.4097 19.9539 15.3245 20.0321 15.2635C20.1111 15.2017 20.1972 15.1587 20.2903 15.1344C20.3841 15.1094 20.4764 15.0969 20.5671 15.0969C20.625 15.0969 20.6915 15.1039 20.7666 15.118C20.8424 15.1313 20.9156 15.159 20.986 15.2013C21.0571 15.2435 21.1162 15.3073 21.1631 15.3925C21.21 15.4778 21.2335 15.592 21.2335 15.7351V16.9224H20.9566V16.6783H20.9425C20.9238 16.7174 20.8925 16.7593 20.8487 16.8039C20.8049 16.8485 20.7466 16.8864 20.6739 16.9177C20.6011 16.949 20.5124 16.9646 20.4076 16.9646ZM20.4498 16.7159C20.5593 16.7159 20.6516 16.6944 20.7267 16.6514C20.8025 16.6083 20.8596 16.5528 20.898 16.4848C20.9371 16.4167 20.9566 16.3452 20.9566 16.2701V16.0167C20.9449 16.0307 20.9191 16.0436 20.8792 16.0554C20.8401 16.0663 20.7947 16.0761 20.7431 16.0847C20.6923 16.0925 20.6426 16.0996 20.5941 16.1058C20.5464 16.1113 20.5077 16.116 20.478 16.1199C20.406 16.1293 20.3387 16.1445 20.2762 16.1657C20.2144 16.186 20.1643 16.2169 20.126 16.2583C20.0885 16.299 20.0697 16.3545 20.0697 16.4249C20.0697 16.5211 20.1053 16.5939 20.1765 16.6431C20.2484 16.6916 20.3395 16.7159 20.4498 16.7159ZM22.5226 15.1203V15.355H21.5887V15.1203H22.5226ZM21.8609 14.6886H22.1377V16.4062C22.1377 16.4844 22.1491 16.543 22.1718 16.5821C22.1952 16.6205 22.225 16.6463 22.2609 16.6596C22.2977 16.6721 22.3364 16.6783 22.3771 16.6783C22.4076 16.6783 22.4326 16.6768 22.4522 16.6736C22.4717 16.6697 22.4874 16.6666 22.4991 16.6643L22.5554 16.913C22.5366 16.92 22.5104 16.9271 22.4768 16.9341C22.4432 16.9419 22.4005 16.9458 22.3489 16.9458C22.2707 16.9458 22.1941 16.929 22.119 16.8954C22.0447 16.8617 21.9829 16.8105 21.9336 16.7417C21.8851 16.6729 21.8609 16.586 21.8609 16.4812V14.6886ZM23.6752 16.9599C23.5016 16.9599 23.3518 16.9216 23.2259 16.8449C23.1007 16.7675 23.0041 16.6596 22.9361 16.5211C22.8688 16.3819 22.8352 16.22 22.8352 16.0354C22.8352 15.8508 22.8688 15.6882 22.9361 15.5474C23.0041 15.4058 23.0988 15.2955 23.22 15.2165C23.342 15.1368 23.4844 15.0969 23.6471 15.0969C23.7409 15.0969 23.8336 15.1125 23.9251 15.1438C24.0166 15.1751 24.0999 15.2259 24.175 15.2963C24.2501 15.3659 24.3099 15.4582 24.3545 15.5732C24.3991 15.6882 24.4214 15.8297 24.4214 15.9979V16.1152H23.0323V15.8759H24.1398C24.1398 15.7742 24.1195 15.6835 24.0788 15.6037C24.0389 15.5239 23.9818 15.461 23.9075 15.4148C23.834 15.3687 23.7472 15.3456 23.6471 15.3456C23.5368 15.3456 23.4414 15.373 23.3608 15.4277C23.281 15.4817 23.2196 15.5521 23.1766 15.6389C23.1336 15.7257 23.1121 15.8188 23.1121 15.9181V16.0777C23.1121 16.2138 23.1355 16.3291 23.1825 16.4238C23.2302 16.5176 23.2963 16.5892 23.3807 16.6384C23.4652 16.6869 23.5634 16.7112 23.6752 16.7112C23.748 16.7112 23.8137 16.701 23.8723 16.6807C23.9318 16.6596 23.983 16.6283 24.026 16.5868C24.069 16.5446 24.1023 16.4922 24.1257 16.4296L24.3932 16.5047C24.3651 16.5954 24.3177 16.6752 24.2513 16.744C24.1848 16.8121 24.1027 16.8653 24.0049 16.9036C23.9071 16.9411 23.7972 16.9599 23.6752 16.9599ZM25.523 16.9599C25.3728 16.9599 25.2403 16.922 25.1253 16.8461C25.0103 16.7695 24.9204 16.6615 24.8555 16.5223C24.7905 16.3823 24.7581 16.2169 24.7581 16.026C24.7581 15.8368 24.7905 15.6725 24.8555 15.5333C24.9204 15.3941 25.0107 15.2865 25.1265 15.2107C25.2422 15.1348 25.376 15.0969 25.5277 15.0969C25.645 15.0969 25.7377 15.1164 25.8057 15.1555C25.8746 15.1939 25.927 15.2377 25.963 15.2869C25.9997 15.3354 26.0283 15.3753 26.0486 15.4066H26.0721V14.5197H26.3489V16.9224H26.0814V16.6455H26.0486C26.0283 16.6783 25.9993 16.7198 25.9618 16.7698C25.9242 16.8191 25.8707 16.8633 25.8011 16.9024C25.7314 16.9407 25.6388 16.9599 25.523 16.9599ZM25.5605 16.7112C25.6716 16.7112 25.7655 16.6822 25.8421 16.6244C25.9188 16.5657 25.977 16.4848 26.0169 16.3815C26.0568 16.2775 26.0768 16.1574 26.0768 16.0213C26.0768 15.8868 26.0572 15.7691 26.0181 15.6682C25.979 15.5665 25.9211 15.4875 25.8445 15.4312C25.7678 15.3741 25.6732 15.3456 25.5605 15.3456C25.4432 15.3456 25.3455 15.3757 25.2672 15.4359C25.1898 15.4954 25.1315 15.5763 25.0924 15.6788C25.0541 15.7805 25.035 15.8946 25.035 16.0213C25.035 16.1496 25.0545 16.2662 25.0936 16.371C25.1335 16.475 25.1922 16.5579 25.2696 16.6197C25.3478 16.6807 25.4448 16.7112 25.5605 16.7112ZM27.8612 16.9224V14.5197H28.1381V15.4066H28.1615C28.1819 15.3753 28.21 15.3354 28.246 15.2869C28.2828 15.2377 28.3352 15.1939 28.4032 15.1555C28.472 15.1164 28.5651 15.0969 28.6824 15.0969C28.8342 15.0969 28.9679 15.1348 29.0837 15.2107C29.1994 15.2865 29.2897 15.3941 29.3547 15.5333C29.4196 15.6725 29.452 15.8368 29.452 16.026C29.452 16.2169 29.4196 16.3823 29.3547 16.5223C29.2897 16.6615 29.1998 16.7695 29.0848 16.8461C28.9699 16.922 28.8373 16.9599 28.6871 16.9599C28.5714 16.9599 28.4787 16.9407 28.4091 16.9024C28.3395 16.8633 28.2859 16.8191 28.2483 16.7698C28.2108 16.7198 28.1819 16.6783 28.1615 16.6455H28.1287V16.9224H27.8612ZM28.1334 16.0213C28.1334 16.1574 28.1533 16.2775 28.1932 16.3815C28.2331 16.4848 28.2914 16.5657 28.368 16.6244C28.4447 16.6822 28.5385 16.7112 28.6496 16.7112C28.7653 16.7112 28.8619 16.6807 28.9394 16.6197C29.0176 16.5579 29.0762 16.475 29.1153 16.371C29.1552 16.2662 29.1752 16.1496 29.1752 16.0213C29.1752 15.8946 29.1556 15.7805 29.1165 15.6788C29.0782 15.5763 29.0199 15.4954 28.9417 15.4359C28.8643 15.3757 28.7669 15.3456 28.6496 15.3456C28.5369 15.3456 28.4423 15.3741 28.3657 15.4312C28.289 15.4875 28.2311 15.5665 28.192 15.6682C28.1529 15.7691 28.1334 15.8868 28.1334 16.0213ZM29.9894 17.5981C29.9424 17.5981 29.9006 17.5942 29.8638 17.5864C29.8271 17.5794 29.8017 17.5723 29.7876 17.5653L29.858 17.3213C29.9252 17.3385 29.9847 17.3447 30.0363 17.34C30.0879 17.3353 30.1337 17.3123 30.1736 17.2708C30.2142 17.2301 30.2514 17.164 30.285 17.0725L30.3366 16.9317L29.6703 15.1203H29.9706L30.468 16.5563H30.4868L30.9842 15.1203H31.2846L30.5196 17.1852C30.4852 17.2782 30.4426 17.3553 30.3918 17.4163C30.3409 17.4781 30.2819 17.5238 30.2146 17.5535C30.1481 17.5833 30.0731 17.5981 29.9894 17.5981ZM14.414 20.9224V18.5197H15.8547V18.7778H14.705V19.5896H15.7468V19.8477H14.705V20.9224H14.414ZM16.8457 20.9646C16.7316 20.9646 16.6279 20.9431 16.5348 20.9001C16.4418 20.8563 16.3679 20.7933 16.3131 20.7112C16.2584 20.6283 16.231 20.5282 16.231 20.4108C16.231 20.3076 16.2513 20.2239 16.292 20.1598C16.3327 20.0949 16.387 20.044 16.4551 20.0073C16.5231 19.9705 16.5982 19.9431 16.6803 19.9251C16.7632 19.9064 16.8465 19.8915 16.9302 19.8806C17.0397 19.8665 17.1285 19.8559 17.1965 19.8489C17.2654 19.8411 17.3154 19.8282 17.3467 19.8102C17.3788 19.7922 17.3948 19.7609 17.3948 19.7163V19.7069C17.3948 19.5912 17.3631 19.5012 17.2998 19.4371C17.2372 19.373 17.1422 19.3409 17.0147 19.3409C16.8825 19.3409 16.7789 19.3698 16.7038 19.4277C16.6287 19.4856 16.5759 19.5474 16.5454 19.6131L16.2826 19.5192C16.3295 19.4097 16.3921 19.3245 16.4703 19.2635C16.5493 19.2017 16.6354 19.1587 16.7284 19.1344C16.8223 19.1094 16.9146 19.0969 17.0053 19.0969C17.0632 19.0969 17.1297 19.1039 17.2047 19.118C17.2806 19.1313 17.3537 19.159 17.4241 19.2013C17.4953 19.2435 17.5544 19.3073 17.6013 19.3925C17.6482 19.4778 17.6717 19.592 17.6717 19.7351V20.9224H17.3948V20.6783H17.3807C17.362 20.7174 17.3307 20.7593 17.2869 20.8039C17.2431 20.8485 17.1848 20.8864 17.1121 20.9177C17.0393 20.949 16.9505 20.9646 16.8457 20.9646ZM16.888 20.7159C16.9975 20.7159 17.0898 20.6944 17.1649 20.6514C17.2407 20.6083 17.2978 20.5528 17.3361 20.4848C17.3752 20.4167 17.3948 20.3452 17.3948 20.2701V20.0167C17.3831 20.0307 17.3573 20.0436 17.3174 20.0554C17.2783 20.0663 17.2329 20.0761 17.1813 20.0847C17.1304 20.0925 17.0808 20.0996 17.0323 20.1058C16.9846 20.1113 16.9459 20.116 16.9161 20.1199C16.8442 20.1293 16.7769 20.1445 16.7143 20.1657C16.6526 20.186 16.6025 20.2169 16.5642 20.2583C16.5266 20.299 16.5079 20.3545 16.5079 20.4249C16.5079 20.5211 16.5435 20.5939 16.6146 20.6431C16.6866 20.6916 16.7777 20.7159 16.888 20.7159ZM18.4539 18.5197V20.9224H18.177V18.5197H18.4539ZM18.9094 20.9224V20.7112L19.9324 19.3972V19.3784H18.9422V19.1203H20.2891V19.3409L19.2942 20.6455V20.6643H20.3219V20.9224H18.9094ZM21.2787 20.9646C21.1645 20.9646 21.0608 20.9431 20.9678 20.9001C20.8747 20.8563 20.8008 20.7933 20.746 20.7112C20.6913 20.6283 20.6639 20.5282 20.6639 20.4108C20.6639 20.3076 20.6842 20.2239 20.7249 20.1598C20.7656 20.0949 20.8199 20.044 20.888 20.0073C20.956 19.9705 21.0311 19.9431 21.1132 19.9251C21.1962 19.9064 21.2795 19.8915 21.3631 19.8806C21.4726 19.8665 21.5614 19.8559 21.6295 19.8489C21.6983 19.8411 21.7483 19.8282 21.7796 19.8102C21.8117 19.7922 21.8277 19.7609 21.8277 19.7163V19.7069C21.8277 19.5912 21.796 19.5012 21.7327 19.4371C21.6701 19.373 21.5751 19.3409 21.4476 19.3409C21.3154 19.3409 21.2118 19.3698 21.1367 19.4277C21.0616 19.4856 21.0088 19.5474 20.9783 19.6131L20.7155 19.5192C20.7625 19.4097 20.825 19.3245 20.9032 19.2635C20.9822 19.2017 21.0683 19.1587 21.1613 19.1344C21.2552 19.1094 21.3475 19.0969 21.4382 19.0969C21.4961 19.0969 21.5626 19.1039 21.6377 19.118C21.7135 19.1313 21.7867 19.159 21.8571 19.2013C21.9282 19.2435 21.9873 19.3073 22.0342 19.3925C22.0811 19.4778 22.1046 19.592 22.1046 19.7351V20.9224H21.8277V20.6783H21.8136C21.7949 20.7174 21.7636 20.7593 21.7198 20.8039C21.676 20.8485 21.6177 20.8864 21.545 20.9177C21.4722 20.949 21.3835 20.9646 21.2787 20.9646ZM21.3209 20.7159C21.4304 20.7159 21.5227 20.6944 21.5978 20.6514C21.6736 20.6083 21.7307 20.5528 21.7691 20.4848C21.8082 20.4167 21.8277 20.3452 21.8277 20.2701V20.0167C21.816 20.0307 21.7902 20.0436 21.7503 20.0554C21.7112 20.0663 21.6658 20.0761 21.6142 20.0847C21.5634 20.0925 21.5137 20.0996 21.4652 20.1058C21.4175 20.1113 21.3788 20.116 21.3491 20.1199C21.2771 20.1293 21.2098 20.1445 21.1473 20.1657C21.0855 20.186 21.0354 20.2169 20.9971 20.2583C20.9596 20.299 20.9408 20.3545 20.9408 20.4249C20.9408 20.5211 20.9764 20.5939 21.0475 20.6431C21.1195 20.6916 21.2106 20.7159 21.3209 20.7159ZM22.61 20.9224V19.1203H22.8774V19.3925H22.8962C22.9291 19.3034 22.9885 19.231 23.0745 19.1755C23.1606 19.1199 23.2576 19.0922 23.3655 19.0922C23.3858 19.0922 23.4112 19.0926 23.4418 19.0933C23.4723 19.0941 23.4953 19.0953 23.511 19.0969V19.3784C23.5016 19.3761 23.4801 19.3726 23.4464 19.3679C23.4136 19.3624 23.3788 19.3597 23.342 19.3597C23.2544 19.3597 23.1762 19.378 23.1074 19.4148C23.0393 19.4508 22.9854 19.5008 22.9455 19.565C22.9064 19.6283 22.8868 19.7007 22.8868 19.782V20.9224H22.61ZM24.8059 20.9224V18.5197H26.2466V18.7778H25.0968V19.5896H26.1386V19.8477H25.0968V20.9224H24.8059ZM26.6651 20.9224V20.7112L27.9603 18.7778H26.651V18.5197H28.3076V18.7308L27.0124 20.6643H28.3217V20.9224H26.6651Z" fill="black"/>
<path d="M22.2942 0.127599C15.0729 0.202806 8.00813 3.93798 4.246 10.0315C-1.73869 19.134 -1.28157 32.135 6.10916 40.3572C10.8513 45.6165 18.1831 48.3131 25.2892 47.8184C33.0636 47.6686 40.6231 43.2646 44.2742 36.4914C47.5106 30.94 48.424 24.2335 47.107 17.9883C45.7295 9.75891 38.988 2.56294 30.69 0.67138C27.9288 0.173136 25.0952 0.1056 22.2942 0.127599Z" fill="url(#paint0_radial_347_191)"/>
<g opacity="0.6" filter="url(#filter0_f_347_191)">
<path d="M22.4054 1.77335C15.682 1.84337 9.10423 5.32103 5.60147 10.9944C0.0293804 19.4694 0.454981 31.5741 7.33619 39.2295C11.7514 44.1262 18.5777 46.6368 25.194 46.1763C32.4323 46.0368 39.4707 41.9365 42.8701 35.6302C45.8833 30.4615 46.7337 24.2174 45.5076 18.4027C44.225 10.7407 37.9483 4.04079 30.2224 2.27964C27.6515 1.81575 25.0133 1.75287 22.4054 1.77335Z" fill="url(#paint1_radial_347_191)"/>
</g>
<path d="M28.9189 16.4668C25.5207 17.6428 20.1299 17.8875 16.9299 17.9881C14.7025 18.0581 16.585 20.2562 18.0084 20.0466C20.9035 19.6204 22.2378 19.8891 22.2378 19.8891L22.2461 23.4391L15.5802 23.3649L15.5388 31.9462L20.7095 31.8951C20.7095 31.8951 19.2181 35.0471 16.8388 37.3236C16.598 38.0888 17.1263 38.5936 18.1966 38.5956C21.0615 38.6008 26.527 38.5061 29.1865 38.3589C29.6139 36.6756 28.9357 34.2614 27.7735 33.266C27.0461 32.643 26.1122 32.7785 26.2882 33.7502C26.5279 35.0742 26.9277 36.3102 26.9277 36.3102L21.1575 36.2907C21.1575 36.2907 22.4047 34.1966 23.6047 31.8898C26.0592 31.8991 30.66 31.9523 30.66 31.9523L30.6563 23.4002L24.9792 23.3781L24.9954 19.482C24.9954 19.482 27.1858 18.9065 29.9993 18.3633C31.3643 18.0998 29.977 16.1006 28.9189 16.4668ZM18.165 25.3317L22.3178 25.3248L22.0554 29.4676L18.1968 29.4497L18.165 25.3317ZM28.4621 25.3317L28.3883 29.5368L24.3285 29.4851L24.6621 25.3716L28.4621 25.3317ZM10.7186 12.7067C10.7186 12.7067 10.7976 29.215 10.7614 30.7915C9.39686 35.0885 6.44494 35.3198 4.21289 36.8387C8.78516 44.0267 12.6095 35.8721 13.7066 29.0586C13.8212 24.6544 13.7246 15.0474 13.7246 15.0474L32.4792 15.0873C32.4792 15.0873 31.9642 28.0489 33.0515 32.1946C35.369 40.6742 40.6338 42.5129 42.3248 35.9145C39.5601 35.0229 38.1322 35.3787 36.1413 31.8864C34.8036 26.6868 35.5071 12.6555 35.5071 12.6555L10.7186 12.7067Z" fill="white"/>
<path d="M9.92497 4.18894C9.75339 4.22801 9.46239 4.12676 9.35303 4.28177C9.3806 4.51483 9.76921 4.44996 9.90196 4.62018C10.3583 5.04402 10.3917 5.69012 10.622 6.22134C11.0769 7.57962 11.4624 8.97011 11.9251 10.3176C12.3174 10.4294 12.5516 10.1383 12.6369 9.85231C13.2187 8.4462 13.6449 7.30501 14.2474 5.90685C14.9245 7.44623 15.2535 8.75835 15.9275 10.2921C16.3262 10.4419 16.6682 10.1443 16.7338 9.84802C17.3289 8.16521 17.8414 6.44884 18.5221 4.79686C18.636 4.53015 19.0089 4.53843 19.1746 4.33119C19.1967 4.12285 18.8313 4.22401 18.6979 4.18894C18.1718 4.21344 17.6206 4.13204 17.1087 4.23536C16.9946 4.42891 17.3684 4.45612 17.4982 4.49439C17.8043 4.54385 17.9635 4.84753 17.8187 5.09633C17.4324 6.35687 17.0354 7.64804 16.5778 8.86965C15.8816 7.37218 15.3122 5.81063 14.6434 4.30723C14.2608 4.19198 14.1902 4.50677 14.0991 4.77094C13.5276 6.13046 12.9857 7.55418 12.3803 8.86817C11.945 7.54965 11.5387 6.21499 11.1872 4.87921C11.1425 4.57736 11.5089 4.46616 11.764 4.42103C11.9548 4.37209 11.8532 4.15139 11.672 4.20241C11.0941 4.17347 10.5062 4.19234 9.92497 4.18894Z" fill="white"/>
<path d="M20.284 4.18901C20.1139 4.23057 19.8088 4.12085 19.7105 4.28933C19.7321 4.53843 20.1235 4.4336 20.2972 4.53938C20.5851 4.66051 20.4058 5.03121 20.4728 5.25358C20.4974 6.7755 20.541 8.30666 20.4533 9.82354C20.3256 10.0892 19.9315 9.95985 19.7401 10.123C19.6002 10.365 19.9124 10.3272 20.0967 10.3177C20.8198 10.3177 21.543 10.3177 22.2661 10.3177C22.3755 10.0942 22.4565 10.0182 22.023 10.0182C21.7859 10.0093 21.5766 9.84108 21.6252 9.61092C21.598 8.00887 21.5853 6.40043 21.6335 4.80142C21.6266 4.45338 21.9788 4.50572 22.2234 4.41211C22.3708 4.32753 22.235 4.16301 22.0886 4.20248C21.4915 4.17333 20.8844 4.19258 20.284 4.18901Z" fill="white"/>
<path d="M23.1568 4.18894C23.0247 4.19559 22.68 4.1585 22.7788 4.37011C22.9617 4.52099 23.2701 4.48774 23.4542 4.65911C23.6704 4.8243 23.9632 5.0009 23.8665 5.30296C23.836 6.75538 23.8947 8.21636 23.7895 9.66326C23.6936 9.97167 23.2712 9.96426 23.022 10.1035C22.9092 10.2331 22.9924 10.3913 23.1995 10.3176C23.9051 10.3176 24.6107 10.3176 25.3163 10.3176C25.4248 10.0934 25.1276 10.0066 24.935 10.0121C24.5583 10.003 24.2794 9.70905 24.3082 9.36841C24.264 8.02051 24.3439 6.66446 24.343 5.31345C25.8505 6.92523 26.956 8.58869 28.5115 10.1604C28.3415 10.3304 29.3031 10.433 29.2263 10.1514C29.2412 8.42295 29.1944 6.6867 29.2788 4.96307C29.3343 4.62342 29.7213 4.5134 30.0315 4.42402C30.1637 4.36292 30.1256 4.16605 29.9559 4.20241C29.2458 4.19231 28.5117 4.14834 27.8079 4.22637C27.6486 4.34379 27.9037 4.50685 28.0478 4.47194C28.3874 4.48515 28.8102 4.65 28.7726 5.02446C28.8377 6.30958 28.7742 7.22941 28.7825 8.5183C27.3429 6.95133 26.4622 5.71113 25.0142 4.15332C24.5771 4.15415 23.5939 4.18584 23.1568 4.18894Z" fill="white"/>
<path d="M31.0538 4.19035C30.9284 4.18284 30.5252 4.17815 30.6939 4.37753C30.906 4.52092 31.4062 4.43416 31.3915 4.77268C31.4507 6.45429 31.4731 8.15134 31.3957 9.83237C31.2593 10.067 30.9016 9.98569 30.6807 10.069C30.6076 10.1804 30.6279 10.3927 30.8319 10.3175C32.1823 10.2819 33.5635 10.4204 34.8848 10.1139C36.3033 9.74861 37.3328 8.46194 37.2873 7.12068C37.3947 6.06318 36.7831 4.95834 35.7 4.52127C34.6985 4.07059 33.5511 4.2587 32.4755 4.19691C32.0016 4.19144 31.5277 4.18598 31.0538 4.19035ZM33.5435 4.48532C34.3262 4.49555 34.658 4.5555 35.1887 5.15166C35.9585 5.87683 35.9723 6.98761 35.8642 7.93373C35.7162 8.81762 35.1036 9.69074 34.0991 9.89376C33.5604 9.99373 33.5578 10.0386 33.0258 9.90275C32.5935 9.67718 32.7702 9.13655 32.7162 8.75879C32.6971 7.3259 32.6958 5.89284 32.6839 4.45988C32.9704 4.46837 33.2569 4.47684 33.5435 4.48532Z" fill="white"/>
</g>
<defs>
<filter id="filter0_f_347_191" x="-3.82268" y="-3.81633" width="55.4574" height="55.6329" filterUnits="userSpaceOnUse" color-interpolation-filters="sRGB">
<feFlood flood-opacity="0" result="BackgroundImageFix"/>
<feBlend mode="normal" in="SourceGraphic" in2="BackgroundImageFix" result="shape"/>
<feGaussianBlur stdDeviation="2.79318" result="effect1_foregroundBlur_347_191"/>
</filter>
<radialGradient id="paint0_radial_347_191" cx="0" cy="0" r="1" gradientUnits="userSpaceOnUse" gradientTransform="translate(-0.799804 2.18952) rotate(47.8477) scale(58.3023 36.0711)">
<stop stop-color="#96CF6E"/>
<stop offset="0.664448" stop-color="#62B840"/>
<stop offset="0.774431" stop-color="#519B38"/>
<stop offset="1" stop-color="#042500"/>
</radialGradient>
<radialGradient id="paint1_radial_347_191" cx="0" cy="0" r="1" gradientUnits="userSpaceOnUse" gradientTransform="translate(0.903535 3.69311) rotate(47.8477) scale(54.2829 33.5843)">
<stop stop-color="#96CF6E"/>
<stop offset="0.664448" stop-color="#62B840"/>
<stop offset="0.774431" stop-color="#519B38"/>
<stop offset="1" stop-color="#042500"/>
</radialGradient>
<clipPath id="clip0_347_191">
<rect width="47.8117" height="48" fill="white"/>
</clipPath>
</defs>
</svg>
