<svg width="48" height="48" viewBox="0 0 48 48" fill="none" xmlns="http://www.w3.org/2000/svg">
<g clip-path="url(#clip0_350_257)">
<path d="M17.4151 19.7954H17.191C17.1777 19.731 17.1545 19.6744 17.1214 19.6256C17.0889 19.5768 17.0491 19.5358 17.0021 19.5026C16.9557 19.4689 16.9042 19.4436 16.8476 19.4267C16.7909 19.4099 16.7319 19.4014 16.6704 19.4014C16.5584 19.4014 16.4569 19.4297 16.3659 19.4864C16.2755 19.543 16.2035 19.6265 16.1499 19.7367C16.0969 19.847 16.0704 19.9822 16.0704 20.1425C16.0704 20.3027 16.0969 20.438 16.1499 20.5482C16.2035 20.6585 16.2755 20.7419 16.3659 20.7986C16.4569 20.8552 16.5584 20.8835 16.6704 20.8835C16.7319 20.8835 16.7909 20.8751 16.8476 20.8582C16.9042 20.8413 16.9557 20.8163 17.0021 20.7832C17.0491 20.7495 17.0889 20.7082 17.1214 20.6594C17.1545 20.61 17.1777 20.5534 17.191 20.4895H17.4151C17.3982 20.5841 17.3675 20.6687 17.3229 20.7434C17.2783 20.8181 17.2229 20.8817 17.1566 20.9341C17.0904 20.9859 17.016 21.0254 16.9334 21.0525C16.8515 21.0796 16.7638 21.0932 16.6704 21.0932C16.5126 21.0932 16.3722 21.0546 16.2493 20.9775C16.1264 20.9004 16.0297 20.7907 15.9592 20.6486C15.8887 20.5064 15.8535 20.3377 15.8535 20.1425C15.8535 19.9473 15.8887 19.7786 15.9592 19.6364C16.0297 19.4942 16.1264 19.3846 16.2493 19.3074C16.3722 19.2303 16.5126 19.1918 16.6704 19.1918C16.7638 19.1918 16.8515 19.2053 16.9334 19.2324C17.016 19.2596 17.0904 19.2993 17.1566 19.3517C17.2229 19.4035 17.2783 19.4668 17.3229 19.5415C17.3675 19.6156 17.3982 19.7003 17.4151 19.7954ZM17.7483 21.0679V19.6798H17.9544V19.8894H17.9688C17.9941 19.8208 18.0399 19.765 18.1062 19.7222C18.1725 19.6795 18.2472 19.6581 18.3303 19.6581C18.346 19.6581 18.3656 19.6584 18.3891 19.659C18.4126 19.6596 18.4303 19.6605 18.4424 19.6617V19.8786C18.4352 19.8768 18.4186 19.8741 18.3927 19.8705C18.3674 19.8662 18.3406 19.8641 18.3122 19.8641C18.2448 19.8641 18.1845 19.8783 18.1315 19.9066C18.0791 19.9343 18.0375 19.9729 18.0068 20.0223C17.9767 20.0711 17.9616 20.1268 17.9616 20.1895V21.0679H17.7483ZM19.2349 21.0968C19.1012 21.0968 18.9858 21.0673 18.8888 21.0082C18.7924 20.9486 18.718 20.8654 18.6656 20.7588C18.6138 20.6516 18.5879 20.5269 18.5879 20.3847C18.5879 20.2425 18.6138 20.1172 18.6656 20.0087C18.718 19.8997 18.7909 19.8147 18.8843 19.7539C18.9783 19.6924 19.0879 19.6617 19.2132 19.6617C19.2855 19.6617 19.3569 19.6737 19.4274 19.6978C19.4979 19.7219 19.5621 19.7611 19.6199 19.8153C19.6778 19.869 19.7238 19.94 19.7582 20.0286C19.7925 20.1172 19.8097 20.2262 19.8097 20.3557V20.4461H18.7397V20.2618H19.5928C19.5928 20.1834 19.5771 20.1136 19.5458 20.0521C19.5151 19.9907 19.4711 19.9422 19.4139 19.9066C19.3572 19.8711 19.2904 19.8533 19.2132 19.8533C19.1283 19.8533 19.0548 19.8744 18.9927 19.9165C18.9313 19.9581 18.884 20.0123 18.8509 20.0792C18.8177 20.1461 18.8012 20.2178 18.8012 20.2943V20.4172C18.8012 20.522 18.8192 20.6109 18.8554 20.6838C18.8921 20.7561 18.943 20.8112 19.0081 20.8492C19.0732 20.8865 19.1488 20.9052 19.2349 20.9052C19.291 20.9052 19.3416 20.8974 19.3868 20.8817C19.4325 20.8654 19.472 20.8413 19.5051 20.8094C19.5383 20.7769 19.5639 20.7365 19.582 20.6883L19.788 20.7462C19.7663 20.816 19.7299 20.8775 19.6787 20.9305C19.6274 20.9829 19.5642 21.0239 19.4889 21.0534C19.4136 21.0823 19.3289 21.0968 19.2349 21.0968ZM20.5426 21.1004C20.4546 21.1004 20.3748 21.0838 20.3031 21.0507C20.2314 21.017 20.1745 20.9685 20.1323 20.9052C20.0901 20.8413 20.0691 20.7642 20.0691 20.6739C20.0691 20.5943 20.0847 20.5299 20.1161 20.4805C20.1474 20.4305 20.1893 20.3913 20.2417 20.363C20.2941 20.3347 20.3519 20.3136 20.4152 20.2997C20.479 20.2853 20.5432 20.2738 20.6077 20.2654C20.692 20.2545 20.7604 20.2464 20.8128 20.241C20.8658 20.235 20.9044 20.225 20.9285 20.2112C20.9532 20.1973 20.9655 20.1732 20.9655 20.1389V20.1316C20.9655 20.0425 20.9411 19.9732 20.8923 19.9238C20.8441 19.8744 20.7709 19.8497 20.6727 19.8497C20.5709 19.8497 20.4911 19.872 20.4333 19.9165C20.3754 19.9611 20.3347 20.0087 20.3113 20.0593L20.1088 19.987C20.145 19.9027 20.1932 19.837 20.2534 19.79C20.3143 19.7424 20.3805 19.7093 20.4522 19.6906C20.5245 19.6713 20.5956 19.6617 20.6655 19.6617C20.7101 19.6617 20.7613 19.6671 20.8191 19.678C20.8776 19.6882 20.9339 19.7096 20.9881 19.7421C21.043 19.7747 21.0884 19.8238 21.1246 19.8894C21.1607 19.9551 21.1788 20.0431 21.1788 20.1533V21.0679H20.9655V20.8799H20.9547C20.9402 20.91 20.9161 20.9423 20.8824 20.9766C20.8487 21.0109 20.8038 21.0402 20.7477 21.0643C20.6917 21.0884 20.6233 21.1004 20.5426 21.1004ZM20.5751 20.9088C20.6595 20.9088 20.7306 20.8923 20.7884 20.8591C20.8468 20.826 20.8908 20.7832 20.9204 20.7308C20.9505 20.6784 20.9655 20.6232 20.9655 20.5654V20.3702C20.9565 20.3811 20.9366 20.391 20.9059 20.4C20.8758 20.4085 20.8408 20.416 20.8011 20.4226C20.7619 20.4286 20.7236 20.4341 20.6863 20.4389C20.6495 20.4431 20.6197 20.4467 20.5968 20.4497C20.5414 20.457 20.4896 20.4687 20.4414 20.485C20.3938 20.5006 20.3552 20.5244 20.3257 20.5564C20.2968 20.5877 20.2823 20.6305 20.2823 20.6847C20.2823 20.7588 20.3097 20.8148 20.3646 20.8528C20.42 20.8901 20.4902 20.9088 20.5751 20.9088ZM22.1718 19.6798V19.8605H21.4524V19.6798H22.1718ZM21.6621 19.3472H21.8753V20.6702C21.8753 20.7305 21.8841 20.7757 21.9016 20.8058C21.9196 20.8353 21.9425 20.8552 21.9702 20.8654C21.9986 20.8751 22.0284 20.8799 22.0597 20.8799C22.0832 20.8799 22.1025 20.8787 22.1175 20.8763C22.1326 20.8733 22.1447 20.8709 22.1537 20.8691L22.1971 21.0606C22.1826 21.0661 22.1624 21.0715 22.1365 21.0769C22.1106 21.0829 22.0778 21.0859 22.038 21.0859C21.9778 21.0859 21.9187 21.073 21.8609 21.0471C21.8037 21.0212 21.7561 20.9817 21.7181 20.9287C21.6807 20.8757 21.6621 20.8088 21.6621 20.7281V19.3472ZM23.0597 21.0968C22.9259 21.0968 22.8105 21.0673 22.7135 21.0082C22.6171 20.9486 22.5427 20.8654 22.4903 20.7588C22.4385 20.6516 22.4126 20.5269 22.4126 20.3847C22.4126 20.2425 22.4385 20.1172 22.4903 20.0087C22.5427 19.8997 22.6156 19.8147 22.709 19.7539C22.803 19.6924 22.9127 19.6617 23.038 19.6617C23.1103 19.6617 23.1817 19.6737 23.2521 19.6978C23.3226 19.7219 23.3868 19.7611 23.4446 19.8153C23.5025 19.869 23.5486 19.94 23.5829 20.0286C23.6172 20.1172 23.6344 20.2262 23.6344 20.3557V20.4461H22.5644V20.2618H23.4175C23.4175 20.1834 23.4019 20.1136 23.3705 20.0521C23.3398 19.9907 23.2958 19.9422 23.2386 19.9066C23.182 19.8711 23.1151 19.8533 23.038 19.8533C22.953 19.8533 22.8795 19.8744 22.8175 19.9165C22.756 19.9581 22.7087 20.0123 22.6756 20.0792C22.6424 20.1461 22.6259 20.2178 22.6259 20.2943V20.4172C22.6259 20.522 22.6439 20.6109 22.6801 20.6838C22.7168 20.7561 22.7678 20.8112 22.8328 20.8492C22.8979 20.8865 22.9735 20.9052 23.0597 20.9052C23.1157 20.9052 23.1663 20.8974 23.2115 20.8817C23.2573 20.8654 23.2967 20.8413 23.3299 20.8094C23.363 20.7769 23.3886 20.7365 23.4067 20.6883L23.6127 20.7462C23.591 20.816 23.5546 20.8775 23.5034 20.9305C23.4522 20.9829 23.3889 21.0239 23.3136 21.0534C23.2383 21.0823 23.1536 21.0968 23.0597 21.0968ZM24.483 21.0968C24.3673 21.0968 24.2652 21.0676 24.1766 21.0091C24.0881 20.9501 24.0188 20.8669 23.9688 20.7597C23.9188 20.6519 23.8938 20.5244 23.8938 20.3774C23.8938 20.2316 23.9188 20.1051 23.9688 19.9979C24.0188 19.8906 24.0884 19.8078 24.1775 19.7494C24.2667 19.6909 24.3697 19.6617 24.4866 19.6617C24.577 19.6617 24.6484 19.6768 24.7008 19.7069C24.7538 19.7364 24.7942 19.7701 24.8219 19.8081C24.8502 19.8455 24.8722 19.8762 24.8879 19.9003H24.9059V19.2171H25.1192V21.0679H24.9132V20.8546H24.8879C24.8722 20.8799 24.8499 20.9118 24.821 20.9504C24.7921 20.9883 24.7508 21.0224 24.6972 21.0525C24.6436 21.082 24.5722 21.0968 24.483 21.0968ZM24.5119 20.9052C24.5975 20.9052 24.6698 20.8829 24.7288 20.8383C24.7878 20.7931 24.8327 20.7308 24.8635 20.6513C24.8942 20.5711 24.9095 20.4787 24.9095 20.3738C24.9095 20.2702 24.8945 20.1795 24.8644 20.1018C24.8342 20.0235 24.7897 19.9626 24.7306 19.9193C24.6716 19.8753 24.5987 19.8533 24.5119 19.8533C24.4215 19.8533 24.3462 19.8765 24.286 19.9229C24.2263 19.9687 24.1815 20.031 24.1513 20.1099C24.1218 20.1883 24.1071 20.2762 24.1071 20.3738C24.1071 20.4726 24.1221 20.5624 24.1522 20.6431C24.183 20.7233 24.2282 20.7871 24.2878 20.8347C24.348 20.8817 24.4227 20.9052 24.5119 20.9052ZM26.2841 21.0679V19.2171H26.4974V19.9003H26.5154C26.5311 19.8762 26.5528 19.8455 26.5805 19.8081C26.6088 19.7701 26.6492 19.7364 26.7016 19.7069C26.7546 19.6768 26.8263 19.6617 26.9167 19.6617C27.0336 19.6617 27.1366 19.6909 27.2258 19.7494C27.3149 19.8078 27.3845 19.8906 27.4345 19.9979C27.4845 20.1051 27.5095 20.2316 27.5095 20.3774C27.5095 20.5244 27.4845 20.6519 27.4345 20.7597C27.3845 20.8669 27.3152 20.9501 27.2267 21.0091C27.1381 21.0676 27.036 21.0968 26.9203 21.0968C26.8311 21.0968 26.7597 21.082 26.7061 21.0525C26.6525 21.0224 26.6112 20.9883 26.5823 20.9504C26.5534 20.9118 26.5311 20.8799 26.5154 20.8546H26.4901V21.0679H26.2841ZM26.4937 20.3738C26.4937 20.4787 26.5091 20.5711 26.5398 20.6513C26.5706 20.7308 26.6154 20.7931 26.6745 20.8383C26.7335 20.8829 26.8058 20.9052 26.8914 20.9052C26.9805 20.9052 27.055 20.8817 27.1146 20.8347C27.1748 20.7871 27.22 20.7233 27.2502 20.6431C27.2809 20.5624 27.2962 20.4726 27.2962 20.3738C27.2962 20.2762 27.2812 20.1883 27.2511 20.1099C27.2215 20.031 27.1767 19.9687 27.1164 19.9229C27.0568 19.8765 26.9818 19.8533 26.8914 19.8533C26.8046 19.8533 26.7317 19.8753 26.6727 19.9193C26.6136 19.9626 26.5691 20.0235 26.5389 20.1018C26.5088 20.1795 26.4937 20.2702 26.4937 20.3738ZM27.9234 21.5884C27.8873 21.5884 27.855 21.5854 27.8267 21.5794C27.7984 21.5739 27.7788 21.5685 27.768 21.5631L27.8222 21.3751C27.874 21.3884 27.9198 21.3932 27.9596 21.3896C27.9993 21.386 28.0346 21.3682 28.0653 21.3363C28.0966 21.3049 28.1252 21.254 28.1512 21.1835L28.1909 21.0751L27.6776 19.6798H27.909L28.2921 20.7859H28.3066L28.6898 19.6798H28.9211L28.3319 21.2703C28.3054 21.342 28.2725 21.4013 28.2334 21.4483C28.1942 21.4959 28.1487 21.5312 28.0969 21.5541C28.0457 21.577 27.9879 21.5884 27.9234 21.5884ZM15.9258 24.0679V22.2171H17.0355V22.4159H16.1499V23.0413H16.9524V23.2401H16.1499V24.0679H15.9258ZM17.7989 24.1004C17.711 24.1004 17.6312 24.0838 17.5595 24.0507C17.4878 24.017 17.4308 23.9685 17.3887 23.9052C17.3465 23.8413 17.3254 23.7642 17.3254 23.6739C17.3254 23.5943 17.3411 23.5299 17.3724 23.4805C17.4037 23.4305 17.4456 23.3913 17.498 23.363C17.5504 23.3347 17.6083 23.3136 17.6715 23.2997C17.7354 23.2853 17.7995 23.2738 17.864 23.2654C17.9484 23.2545 18.0167 23.2464 18.0692 23.241C18.1222 23.235 18.1607 23.225 18.1848 23.2112C18.2095 23.1973 18.2219 23.1732 18.2219 23.1389V23.1316C18.2219 23.0425 18.1975 22.9732 18.1487 22.9238C18.1005 22.8744 18.0273 22.8497 17.9291 22.8497C17.8273 22.8497 17.7474 22.872 17.6896 22.9165C17.6318 22.9611 17.5911 23.0087 17.5676 23.0593L17.3652 22.987C17.4013 22.9027 17.4495 22.837 17.5098 22.79C17.5706 22.7424 17.6369 22.7093 17.7086 22.6906C17.7809 22.6713 17.852 22.6617 17.9218 22.6617C17.9664 22.6617 18.0176 22.6671 18.0755 22.678C18.1339 22.6882 18.1902 22.7096 18.2445 22.7421C18.2993 22.7747 18.3448 22.8238 18.3809 22.8894C18.4171 22.9551 18.4352 23.0431 18.4352 23.1533V24.0679H18.2219V23.8799H18.211C18.1966 23.91 18.1725 23.9423 18.1387 23.9766C18.105 24.0109 18.0601 24.0402 18.0041 24.0643C17.9481 24.0884 17.8797 24.1004 17.7989 24.1004ZM17.8315 23.9088C17.9158 23.9088 17.9869 23.8923 18.0448 23.8591C18.1032 23.826 18.1472 23.7832 18.1767 23.7308C18.2068 23.6784 18.2219 23.6232 18.2219 23.5654V23.3702C18.2128 23.3811 18.193 23.391 18.1622 23.4C18.1321 23.4085 18.0972 23.416 18.0574 23.4226C18.0182 23.4286 17.98 23.4341 17.9426 23.4389C17.9059 23.4431 17.8761 23.4467 17.8532 23.4497C17.7977 23.457 17.7459 23.4687 17.6977 23.485C17.6501 23.5006 17.6116 23.5244 17.5821 23.5564C17.5531 23.5877 17.5387 23.6305 17.5387 23.6847C17.5387 23.7588 17.5661 23.8148 17.6209 23.8528C17.6763 23.8901 17.7465 23.9088 17.8315 23.9088ZM19.0377 22.2171V24.0679H18.8244V22.2171H19.0377ZM19.3886 24.0679V23.9052L20.1766 22.893V22.8786H19.4139V22.6798H20.4513V22.8497L19.685 23.8546V23.8691H20.4766V24.0679H19.3886ZM21.2136 24.1004C21.1256 24.1004 21.0458 24.0838 20.9741 24.0507C20.9024 24.017 20.8455 23.9685 20.8033 23.9052C20.7611 23.8413 20.7401 23.7642 20.7401 23.6739C20.7401 23.5943 20.7557 23.5299 20.7871 23.4805C20.8184 23.4305 20.8603 23.3913 20.9127 23.363C20.9651 23.3347 21.0229 23.3136 21.0862 23.2997C21.15 23.2853 21.2142 23.2738 21.2787 23.2654C21.363 23.2545 21.4314 23.2464 21.4838 23.241C21.5368 23.235 21.5754 23.225 21.5995 23.2112C21.6242 23.1973 21.6365 23.1732 21.6365 23.1389V23.1316C21.6365 23.0425 21.6121 22.9732 21.5633 22.9238C21.5151 22.8744 21.4419 22.8497 21.3437 22.8497C21.2419 22.8497 21.1621 22.872 21.1043 22.9165C21.0464 22.9611 21.0058 23.0087 20.9823 23.0593L20.7798 22.987C20.816 22.9027 20.8642 22.837 20.9244 22.79C20.9853 22.7424 21.0515 22.7093 21.1232 22.6906C21.1955 22.6713 21.2666 22.6617 21.3365 22.6617C21.3811 22.6617 21.4323 22.6671 21.4901 22.678C21.5486 22.6882 21.6049 22.7096 21.6591 22.7421C21.714 22.7747 21.7594 22.8238 21.7956 22.8894C21.8317 22.9551 21.8498 23.0431 21.8498 23.1533V24.0679H21.6365V23.8799H21.6257C21.6112 23.91 21.5871 23.9423 21.5534 23.9766C21.5197 24.0109 21.4748 24.0402 21.4187 24.0643C21.3627 24.0884 21.2943 24.1004 21.2136 24.1004ZM21.2461 23.9088C21.3305 23.9088 21.4016 23.8923 21.4594 23.8591C21.5179 23.826 21.5618 23.7832 21.5914 23.7308C21.6215 23.6784 21.6365 23.6232 21.6365 23.5654V23.3702C21.6275 23.3811 21.6076 23.391 21.5769 23.4C21.5468 23.4085 21.5118 23.416 21.4721 23.4226C21.4329 23.4286 21.3946 23.4341 21.3573 23.4389C21.3205 23.4431 21.2907 23.4467 21.2678 23.4497C21.2124 23.457 21.1606 23.4687 21.1124 23.485C21.0648 23.5006 21.0262 23.5244 20.9967 23.5564C20.9678 23.5877 20.9533 23.6305 20.9533 23.6847C20.9533 23.7588 20.9807 23.8148 21.0356 23.8528C21.091 23.8901 21.1612 23.9088 21.2461 23.9088ZM22.2391 24.0679V22.6798H22.4451V22.8894H22.4596C22.4849 22.8208 22.5307 22.765 22.597 22.7222C22.6632 22.6795 22.7379 22.6581 22.8211 22.6581C22.8367 22.6581 22.8563 22.6584 22.8798 22.659C22.9033 22.6596 22.9211 22.6605 22.9331 22.6617V22.8786C22.9259 22.8768 22.9093 22.8741 22.8834 22.8705C22.8581 22.8662 22.8313 22.8641 22.803 22.8641C22.7355 22.8641 22.6753 22.8783 22.6223 22.9066C22.5698 22.9343 22.5283 22.9729 22.4975 23.0223C22.4674 23.0711 22.4524 23.1268 22.4524 23.1895V24.0679H22.2391ZM23.9306 24.0679V22.2171H25.0404V22.4159H24.1547V23.0413H24.9572V23.2401H24.1547V24.0679H23.9306ZM25.3628 24.0679V23.9052L26.3605 22.4159H25.3519V22.2171H26.6279V22.3797L25.6303 23.8691H26.6388V24.0679H25.3628Z" fill="black"/>
<path d="M22.2942 0.127356C15.0729 0.202561 8.00813 3.93772 4.246 10.0312C-1.73869 19.1337 -1.28157 32.1348 6.10916 40.357C10.8513 45.6162 18.1831 48.3128 25.2893 47.8182C33.0636 47.6683 40.6231 43.2644 44.2742 36.4912C47.5105 30.9397 48.424 24.2333 47.1071 17.9881C45.7295 9.75866 38.988 2.56268 30.69 0.671127C27.9288 0.172881 25.0952 0.105352 22.2942 0.127356Z" fill="url(#paint0_radial_350_257)"/>
<path d="M39.938 9.40112C41.5939 11.9615 42.066 14.7293 43.2186 18.8109C42.0178 14.9605 40.8589 14.0785 40.2404 13.2065C42.9447 23.419 45.5389 27.5145 45.1552 34.5641C47.0829 31.1269 47.9131 27.1576 46.9611 22.3103C45.7772 16.2822 42.2604 11.1828 39.938 9.40112Z" fill="url(#paint1_linear_350_257)"/>
<path d="M9.33233 4.23366C6.97214 6.55698 -5.37982 14.3726 7.26234 36.557C5.12189 21.6403 9.51851 18.2062 19.146 8.10259C28.0834 -1.27669 12.3741 1.23935 9.33233 4.23366Z" fill="url(#paint2_linear_350_257)"/>
<path d="M35.0558 45.2816C27.5497 44.6294 25.8002 46.3397 15.6758 40.8789C20.3123 49.6311 27.6819 48.8449 35.0558 45.2816Z" fill="url(#paint3_linear_350_257)"/>
<path d="M32.8176 4.72266C25.8518 19.8266 -2.41097 40.6909 26.6353 44.9675C20.2251 28.645 47.2365 23.5295 32.8176 4.72266Z" fill="url(#paint4_linear_350_257)"/>
<path d="M41.0791 6.46606C42.8949 9.64228 45.3186 13.4063 47.3046 19.1106C46.4056 14.0195 44.8359 9.81179 41.0791 6.46606Z" fill="url(#paint5_linear_350_257)"/>
<path d="M10.1143 3.64056C14.9252 1.20012 18.4756 1.48826 21.5257 3.16945C23.1446 3.69893 25.0383 3.74735 25.8752 3.67674C26.4463 -0.890288 18.3407 -1.18709 10.1143 3.64056Z" fill="url(#paint6_linear_350_257)"/>
<path d="M27.5373 37.2704C26.8079 37.2368 26.4928 38.2114 26.4723 38.929C26.4415 40.0087 26.2649 41.2375 26.5279 42.3477C26.689 43.0275 27.7361 43.0649 28.331 42.6924C29.3602 42.048 30.342 40.9803 30.1806 39.7753C29.9521 38.0698 28.9386 37.3349 27.5373 37.2704Z" fill="url(#paint7_radial_350_257)"/>
<path d="M12.6779 36.3145C12.6779 36.3145 11.1216 37.5348 11.595 39.671C11.8834 41.2471 15.6044 38.3231 24.216 37.7511C28.143 36.2651 24.1669 34.8584 22.3105 35.5187C17.2756 36.2439 15.0047 36.6103 15.0047 36.6103L15.098 32.6857L25.7021 32.5398C28.2007 36.1723 30.1798 38.6444 39.7888 40.19C41.6305 40.6053 43.693 36.8782 42.1352 36.2792C31.5303 36.3706 28.5588 32.5051 28.5588 32.5051C31.5343 32.4745 35.8895 33.3143 36.6947 32.4343C37.3586 32.0821 37.4691 30.6944 37.0476 30.4765C34.7598 30.3983 26.7463 30.6688 26.7463 30.6688C26.7463 30.6688 25.6126 29.0551 25.2508 27.3541C26.8761 27.3222 34.6872 27.2627 34.6872 27.2627C35.0991 25.3134 35.023 23.39 35.1545 21.2937L12.7057 21.2908C12.9491 27.0633 12.6779 36.3145 12.6779 36.3145ZM32.4543 23.0882L32.4756 25.73L15.7258 25.6846L15.7662 23.1452L32.4543 23.0882ZM22.786 27.3156C23.22 28.8219 23.4369 29.4375 24.0832 30.7165C21.3899 30.8275 15.734 30.7361 15.734 30.7361L15.7156 27.2938C15.7156 27.2938 20.7469 27.2801 22.786 27.3156Z" fill="#F9FDF7"/>
<path d="M10.3358 12.3258C10.3358 12.3258 9.90794 13.2738 10.3304 14.1783C10.328 14.9324 10.3215 17.1254 10.3184 18.1663C10.0248 18.8974 10.3142 19.4951 10.3142 19.4951C10.3142 19.4951 10.8054 19.8975 11.6064 19.4968C16.2019 19.5021 37.8871 19.5273 37.8871 19.5273C37.8871 19.5273 37.9131 15.3249 37.9205 14.1202C38.5862 13.0703 37.9318 12.2988 37.9318 12.2988C37.9318 12.2988 20.6526 12.3159 12.013 12.3244C11.0104 11.8039 10.3358 12.3258 10.3358 12.3258ZM19.3227 14.1669L19.27 17.6975L12.7211 17.6998L12.744 14.0939L19.3227 14.1669ZM27.016 14.1601L27.0896 17.7038L21.1399 17.6749L21.1322 14.1756L27.016 14.1601ZM36.0919 14.1396L36.0529 17.6862L29.4854 17.6838L29.4872 14.1377L36.0919 14.1396Z" fill="#F9FDF7"/>
<path d="M10.7809 3.89266C10.6717 4.32202 10.5377 4.76337 10.4766 5.19775C10.6089 5.31766 10.886 5.26933 10.9473 5.08635C11.1849 4.64461 11.6154 4.23986 12.1599 4.25553C12.5464 4.23889 12.9335 4.23789 13.3202 4.22853C13.3023 5.8946 13.3315 7.56191 13.2785 9.22719C13.3021 9.4498 13.0397 9.51906 12.861 9.52681C12.7124 9.58086 12.4336 9.50239 12.3709 9.68886C12.299 9.90702 12.51 9.9251 12.6786 9.89787C13.5907 9.88846 14.5111 9.9167 15.418 9.88376C15.507 9.77252 15.4436 9.55184 15.2651 9.56946C15.0394 9.50582 14.7107 9.57599 14.563 9.35622C14.4829 8.76148 14.5312 8.14425 14.5114 7.54142C14.5072 6.43713 14.5025 5.33286 14.4981 4.22857C15.0086 4.26368 15.5438 4.19378 16.0387 4.31491C16.4744 4.44525 16.7093 4.84376 16.9529 5.18285C17.0448 5.27834 17.2721 5.30488 17.3396 5.17876C17.2412 4.75487 17.1587 4.30861 17.0322 3.89269C16.5772 3.84323 16.0881 3.88559 15.62 3.87148C14.0231 3.87148 12.4262 3.87148 10.8293 3.87148L10.7973 3.88559L10.7809 3.89266Z" fill="#F9FDF7"/>
<path d="M17.7286 3.88851C17.6329 4.11073 17.7816 4.26008 18.0182 4.20511C18.2216 4.23005 18.5574 4.20392 18.6297 4.44402C18.6937 5.97409 18.6768 7.50755 18.647 9.03852C18.6417 9.1948 18.6773 9.42528 18.4747 9.47251C18.2451 9.57113 17.9542 9.50115 17.7396 9.63245C17.6744 9.74332 17.7008 9.95926 17.8824 9.89796C18.8531 9.88849 19.8323 9.91685 20.7977 9.88385C20.8856 9.7714 20.8272 9.53875 20.6437 9.56316C20.4023 9.51864 20.0854 9.55847 19.9207 9.35419C19.8118 9.01305 19.8905 8.63947 19.868 8.28686C19.8716 7.94778 19.8753 7.60872 19.879 7.26964C20.2024 7.27564 20.5258 7.28128 20.8492 7.2867C21.4553 8.06743 22.0202 8.88275 22.6633 9.63248C23.008 9.97364 23.5508 9.86142 23.9929 9.89685C24.1219 9.88038 24.4233 9.96203 24.4115 9.75723C24.3041 9.55742 24.033 9.50976 23.8819 9.34033C23.1138 8.66365 22.4569 7.86877 21.8052 7.09158C22.4279 6.87119 23.216 6.47505 23.4091 5.82379C23.5849 5.27238 23.4012 4.61949 22.896 4.29052C22.5575 4.06187 21.9913 3.95812 21.592 3.89124C20.3203 3.88265 19.0486 3.87466 17.777 3.86719L17.745 3.88133L17.7286 3.88851ZM20.3877 4.23505C20.9188 4.23799 21.559 4.22879 21.9008 4.69672C22.1529 5.04482 22.0873 5.50784 22.0678 5.9112C21.9801 6.45474 21.4679 6.90012 20.8911 6.87784C20.5546 6.90083 20.2171 6.90381 19.8801 6.91564C19.8801 6.02175 19.8801 5.12789 19.8801 4.23401C20.0493 4.23436 20.2185 4.23446 20.3877 4.23505Z" fill="#F9FDF7"/>
<path d="M28.0852 3.7764C27.8777 3.74952 27.5532 3.78665 27.5146 4.03663C26.7563 5.66884 26.0289 7.31812 25.2505 8.93933C25.0993 9.29041 24.8974 9.54865 24.5291 9.58114C24.4117 9.66234 24.4312 9.96958 24.6211 9.89782C25.2404 9.88823 25.8676 9.91676 26.4821 9.88371C26.5627 9.76984 26.5091 9.53801 26.3399 9.55235C26.145 9.54324 25.8884 9.39069 25.9669 9.15039C26.0742 8.73127 26.2845 8.33929 26.4441 7.9359C27.297 7.9359 28.1499 7.9359 29.0028 7.9359C29.1644 8.39335 29.4226 8.82819 29.4995 9.31032C29.4809 9.54452 29.1855 9.52843 29.0253 9.56836C28.8237 9.55854 28.8123 9.97576 29.0355 9.89782C29.8074 9.88829 30.5872 9.91676 31.3543 9.88371C31.4343 9.77129 31.381 9.54442 31.2141 9.55451C30.9359 9.50881 30.7253 9.28598 30.6303 9.01752C30.1383 7.93678 29.7107 6.82482 29.2427 5.73217C28.9649 5.0834 28.7199 4.41011 28.413 3.78074C28.317 3.7478 28.1894 3.78345 28.0852 3.7764ZM27.8257 4.9109C28.1735 5.76747 28.5154 6.63191 28.8271 7.50087C28.1024 7.52628 27.3764 7.53134 26.6515 7.51046C27.0229 6.63502 27.4324 5.77312 27.8257 4.9109Z" fill="#F9FDF7"/>
<path d="M32.1532 3.89255C32.054 4.11392 32.2118 4.25665 32.45 4.20635C32.6575 4.23387 32.9672 4.21698 33.0751 4.42246C33.1434 5.97163 33.1237 7.52435 33.0939 9.07451C33.098 9.22315 33.1093 9.43242 32.9162 9.47335C32.6827 9.57274 32.3835 9.50229 32.1656 9.63436C32.0957 9.74322 32.1263 9.95956 32.311 9.89772C33.3067 9.88825 34.311 9.91661 35.3013 9.88361C35.3822 9.78122 35.3413 9.51856 35.1445 9.56508C34.9166 9.5259 34.6462 9.54776 34.4525 9.41577C34.3158 9.2609 34.4127 9.02565 34.3743 8.84005C34.3516 7.30473 34.3627 5.76916 34.3589 4.23374C35.0541 4.24774 35.6899 4.1764 36.2802 4.58774C36.833 5.03423 36.8032 5.87278 36.4425 6.41001C36.0622 6.94067 35.4867 7.03094 34.8661 7.08388C34.6967 7.08334 34.689 7.35041 34.8649 7.33657C35.7911 7.32887 36.8323 7.26057 37.5462 6.63818C37.8829 6.3254 38.1161 5.88963 38.0565 5.43329C38.1032 5.03725 37.905 4.64967 37.5665 4.41715C36.7637 3.86339 35.7161 3.88435 34.7668 3.87654C33.9022 3.87669 33.0291 3.85378 32.1699 3.88537L32.1532 3.89255Z" fill="#F9FDF7"/>
</g>
<defs>
<radialGradient id="paint0_radial_350_257" cx="0" cy="0" r="1" gradientUnits="userSpaceOnUse" gradientTransform="translate(15.596 -33.7174) rotate(82.4348) scale(80.3923 62.0277)">
<stop stop-color="#620E4F"/>
<stop offset="0.482009" stop-color="#68110C"/>
<stop offset="0.570021" stop-color="#812E1C"/>
<stop offset="0.651841" stop-color="#9C3727"/>
<stop offset="0.790744" stop-color="#510047"/>
<stop offset="0.8815" stop-color="#130542"/>
<stop offset="0.933333" stop-color="#3A3481"/>
<stop offset="1" stop-color="#48449D"/>
</radialGradient>
<linearGradient id="paint1_linear_350_257" x1="46.2608" y1="30.191" x2="41.6284" y2="11.5641" gradientUnits="userSpaceOnUse">
<stop stop-color="#51519F"/>
<stop offset="1" stop-color="#341B36"/>
</linearGradient>
<linearGradient id="paint2_linear_350_257" x1="6.14845" y1="32.7466" x2="11.6742" y2="6.60693" gradientUnits="userSpaceOnUse">
<stop stop-color="#110341"/>
<stop offset="0.795763" stop-color="#9D212D"/>
<stop offset="1" stop-color="#B0352A"/>
</linearGradient>
<linearGradient id="paint3_linear_350_257" x1="29.3485" y1="47.1898" x2="29.8689" y2="44.667" gradientUnits="userSpaceOnUse">
<stop stop-color="#790E20" stop-opacity="0.94902"/>
<stop offset="1" stop-color="#331551"/>
</linearGradient>
<linearGradient id="paint4_linear_350_257" x1="28.5816" y1="43.6853" x2="28.7925" y2="6.34133" gradientUnits="userSpaceOnUse">
<stop stop-color="#351650"/>
<stop offset="0.557168" stop-color="#312D6A"/>
<stop offset="1" stop-color="#38074A"/>
</linearGradient>
<linearGradient id="paint5_linear_350_257" x1="46.4316" y1="16.5368" x2="40.3528" y2="3.13082" gradientUnits="userSpaceOnUse">
<stop stop-color="#6D4186" stop-opacity="0.741176"/>
<stop offset="1" stop-color="#5B44A1" stop-opacity="0.780392"/>
</linearGradient>
<linearGradient id="paint6_linear_350_257" x1="20.087" y1="3.01055" x2="19.2648" y2="-0.0175399" gradientUnits="userSpaceOnUse">
<stop stop-color="#420E4F"/>
<stop offset="0.0625" stop-color="#421153" stop-opacity="0.996078"/>
<stop offset="0.125" stop-color="#431458" stop-opacity="0.996078"/>
<stop offset="0.25" stop-color="#441B61" stop-opacity="0.996078"/>
<stop offset="0.5" stop-color="#462974" stop-opacity="0.992157"/>
<stop offset="1" stop-color="#4A459A" stop-opacity="0.984314"/>
</linearGradient>
<radialGradient id="paint7_radial_350_257" cx="0" cy="0" r="1" gradientUnits="userSpaceOnUse" gradientTransform="translate(27.9845 39.9514) rotate(24.563) scale(6.25485 11.6835)">
<stop stop-color="#000005"/>
<stop offset="1" stop-color="#000200" stop-opacity="0"/>
</radialGradient>
<clipPath id="clip0_350_257">
<rect width="47.8117" height="48" fill="white"/>
</clipPath>
</defs>
</svg>
