<svg width="48" height="48" viewBox="0 0 48 48" fill="none" xmlns="http://www.w3.org/2000/svg">
<g clip-path="url(#clip0_347_203)">
<path d="M18.8117 15.3427H18.6212C18.6099 15.2879 18.5902 15.2398 18.5621 15.1983C18.5344 15.1568 18.5006 15.122 18.4607 15.0938C18.4213 15.0652 18.3775 15.0436 18.3293 15.0293C18.2812 15.015 18.231 15.0078 18.1788 15.0078C18.0836 15.0078 17.9973 15.0319 17.92 15.08C17.8432 15.1281 17.782 15.199 17.7364 15.2928C17.6914 15.3865 17.6688 15.5014 17.6688 15.6376C17.6688 15.7738 17.6914 15.8887 17.7364 15.9824C17.782 16.0762 17.8432 16.1471 17.92 16.1952C17.9973 16.2433 18.0836 16.2674 18.1788 16.2674C18.231 16.2674 18.2812 16.2602 18.3293 16.2459C18.3775 16.2316 18.4213 16.2103 18.4607 16.1821C18.5006 16.1535 18.5344 16.1184 18.5621 16.0769C18.5902 16.0349 18.6099 15.9868 18.6212 15.9325H18.8117C18.7973 16.0129 18.7712 16.0849 18.7333 16.1483C18.6954 16.2118 18.6483 16.2659 18.592 16.3104C18.5357 16.3544 18.4725 16.388 18.4023 16.411C18.3327 16.4341 18.2582 16.4456 18.1788 16.4456C18.0447 16.4456 17.9254 16.4128 17.8209 16.3473C17.7164 16.2817 17.6343 16.1885 17.5744 16.0677C17.5145 15.9469 17.4845 15.8035 17.4845 15.6376C17.4845 15.4717 17.5145 15.3283 17.5744 15.2075C17.6343 15.0867 17.7164 14.9935 17.8209 14.9279C17.9254 14.8624 18.0447 14.8296 18.1788 14.8296C18.2582 14.8296 18.3327 14.8411 18.4023 14.8642C18.4725 14.8872 18.5357 14.921 18.592 14.9656C18.6483 15.0096 18.6954 15.0634 18.7333 15.1269C18.7712 15.1898 18.7973 15.2618 18.8117 15.3427ZM19.0949 16.4241V15.2444H19.27V15.4225H19.2823C19.3038 15.3642 19.3427 15.3168 19.399 15.2805C19.4554 15.2441 19.5188 15.2259 19.5895 15.2259C19.6028 15.2259 19.6195 15.2262 19.6394 15.2267C19.6594 15.2272 19.6745 15.228 19.6847 15.229V15.4133C19.6786 15.4118 19.6645 15.4095 19.6425 15.4064C19.621 15.4028 19.5982 15.401 19.5741 15.401C19.5168 15.401 19.4656 15.4131 19.4205 15.4371C19.376 15.4607 19.3407 15.4935 19.3145 15.5355C19.2889 15.5769 19.2761 15.6243 19.2761 15.6775V16.4241H19.0949ZM20.3583 16.4486C20.2446 16.4486 20.1466 16.4236 20.0642 16.3734C19.9822 16.3227 19.919 16.252 19.8744 16.1614C19.8304 16.0703 19.8084 15.9643 19.8084 15.8434C19.8084 15.7226 19.8304 15.6161 19.8744 15.5239C19.919 15.4313 19.9809 15.3591 20.0603 15.3073C20.1402 15.2551 20.2334 15.229 20.3399 15.229C20.4013 15.229 20.462 15.2392 20.5219 15.2597C20.5818 15.2802 20.6363 15.3135 20.6855 15.3596C20.7346 15.4051 20.7738 15.4656 20.803 15.5408C20.8322 15.6161 20.8468 15.7088 20.8468 15.8189V15.8957H19.9374V15.739H20.6625C20.6625 15.6724 20.6491 15.613 20.6225 15.5608C20.5964 15.5086 20.559 15.4674 20.5104 15.4371C20.4623 15.4069 20.4054 15.3918 20.3399 15.3918C20.2677 15.3918 20.2052 15.4097 20.1525 15.4456C20.1002 15.4809 20.0601 15.527 20.0319 15.5838C20.0037 15.6407 19.9897 15.7016 19.9897 15.7666V15.8711C19.9897 15.9602 20.005 16.0357 20.0357 16.0977C20.067 16.1591 20.1102 16.2059 20.1655 16.2382C20.2208 16.27 20.2851 16.2858 20.3583 16.2858C20.4059 16.2858 20.4489 16.2792 20.4873 16.2659C20.5263 16.252 20.5598 16.2316 20.588 16.2044C20.6161 16.1768 20.6379 16.1425 20.6532 16.1015L20.8283 16.1507C20.8099 16.21 20.7789 16.2623 20.7354 16.3073C20.6919 16.3519 20.6381 16.3867 20.5741 16.4118C20.5101 16.4364 20.4382 16.4486 20.3583 16.4486ZM21.4697 16.4517C21.3949 16.4517 21.3271 16.4376 21.2661 16.4095C21.2052 16.3808 21.1568 16.3396 21.121 16.2858C21.0851 16.2316 21.0672 16.166 21.0672 16.0892C21.0672 16.0216 21.0805 15.9668 21.1071 15.9248C21.1338 15.8823 21.1694 15.8491 21.2139 15.825C21.2585 15.8009 21.3076 15.783 21.3614 15.7712C21.4156 15.759 21.4702 15.7492 21.525 15.7421C21.5966 15.7328 21.6548 15.7259 21.6993 15.7213C21.7444 15.7162 21.7771 15.7077 21.7976 15.696C21.8186 15.6842 21.8291 15.6637 21.8291 15.6345V15.6284C21.8291 15.5526 21.8084 15.4937 21.7669 15.4517C21.7259 15.4097 21.6637 15.3888 21.5803 15.3888C21.4937 15.3888 21.4259 15.4077 21.3767 15.4456C21.3276 15.4835 21.293 15.5239 21.273 15.5669L21.101 15.5055C21.1317 15.4338 21.1727 15.378 21.2239 15.3381C21.2756 15.2976 21.3319 15.2695 21.3929 15.2536C21.4543 15.2372 21.5147 15.229 21.5741 15.229C21.612 15.229 21.6555 15.2336 21.7047 15.2428C21.7543 15.2515 21.8022 15.2697 21.8483 15.2974C21.8949 15.325 21.9336 15.3667 21.9643 15.4225C21.995 15.4784 22.0104 15.5531 22.0104 15.6468V16.4241H21.8291V16.2643H21.8199C21.8076 16.2899 21.7871 16.3173 21.7584 16.3465C21.7298 16.3757 21.6916 16.4005 21.644 16.421C21.5964 16.4415 21.5383 16.4517 21.4697 16.4517ZM21.4973 16.2889C21.569 16.2889 21.6294 16.2748 21.6786 16.2467C21.7282 16.2185 21.7656 16.1821 21.7907 16.1376C21.8163 16.093 21.8291 16.0462 21.8291 15.997V15.8311C21.8214 15.8404 21.8045 15.8488 21.7784 15.8565C21.7528 15.8637 21.7231 15.8701 21.6893 15.8757C21.656 15.8808 21.6235 15.8854 21.5918 15.8895C21.5605 15.8931 21.5352 15.8962 21.5157 15.8987C21.4686 15.9049 21.4246 15.9149 21.3836 15.9287C21.3432 15.942 21.3104 15.9622 21.2853 15.9894C21.2608 16.016 21.2485 16.0523 21.2485 16.0984C21.2485 16.1614 21.2718 16.209 21.3184 16.2413C21.3655 16.273 21.4251 16.2889 21.4973 16.2889ZM22.8542 15.2444V15.398H22.2429V15.2444H22.8542ZM22.4211 14.9617H22.6023V16.0861C22.6023 16.1373 22.6098 16.1757 22.6246 16.2013C22.64 16.2264 22.6594 16.2433 22.683 16.252C22.707 16.2602 22.7324 16.2643 22.759 16.2643C22.779 16.2643 22.7954 16.2633 22.8082 16.2612C22.821 16.2587 22.8312 16.2566 22.8389 16.2551L22.8757 16.4179C22.8635 16.4225 22.8463 16.4271 22.8243 16.4318C22.8023 16.4369 22.7744 16.4394 22.7406 16.4394C22.6894 16.4394 22.6392 16.4284 22.59 16.4064C22.5414 16.3844 22.5009 16.3509 22.4687 16.3058C22.4369 16.2607 22.4211 16.2039 22.4211 16.1353V14.9617ZM23.6088 16.4486C23.4952 16.4486 23.3971 16.4236 23.3147 16.3734C23.2328 16.3227 23.1695 16.252 23.125 16.1614C23.0809 16.0703 23.0589 15.9643 23.0589 15.8434C23.0589 15.7226 23.0809 15.6161 23.125 15.5239C23.1695 15.4313 23.2315 15.3591 23.3108 15.3073C23.3907 15.2551 23.4839 15.229 23.5904 15.229C23.6519 15.229 23.7125 15.2392 23.7724 15.2597C23.8323 15.2802 23.8869 15.3135 23.936 15.3596C23.9852 15.4051 24.0244 15.4656 24.0535 15.5408C24.0827 15.6161 24.0973 15.7088 24.0973 15.8189V15.8957H23.188V15.739H23.913C23.913 15.6724 23.8997 15.613 23.873 15.5608C23.8469 15.5086 23.8096 15.4674 23.7609 15.4371C23.7128 15.4069 23.6559 15.3918 23.5904 15.3918C23.5182 15.3918 23.4557 15.4097 23.403 15.4456C23.3508 15.4809 23.3106 15.527 23.2824 15.5838C23.2543 15.6407 23.2402 15.7016 23.2402 15.7666V15.8711C23.2402 15.9602 23.2555 16.0357 23.2863 16.0977C23.3175 16.1591 23.3608 16.2059 23.4161 16.2382C23.4714 16.27 23.5356 16.2858 23.6088 16.2858C23.6565 16.2858 23.6995 16.2792 23.7379 16.2659C23.7768 16.252 23.8103 16.2316 23.8385 16.2044C23.8666 16.1768 23.8884 16.1425 23.9038 16.1015L24.0789 16.1507C24.0605 16.21 24.0295 16.2623 23.986 16.3073C23.9424 16.3519 23.8887 16.3867 23.8247 16.4118C23.7607 16.4364 23.6887 16.4486 23.6088 16.4486ZM24.8185 16.4486C24.7202 16.4486 24.6334 16.4238 24.5581 16.3741C24.4829 16.324 24.424 16.2533 24.3815 16.1622C24.339 16.0705 24.3177 15.9622 24.3177 15.8373C24.3177 15.7134 24.339 15.6059 24.3815 15.5147C24.424 15.4236 24.4831 15.3532 24.5589 15.3035C24.6347 15.2538 24.7222 15.229 24.8216 15.229C24.8984 15.229 24.9591 15.2418 25.0036 15.2674C25.0487 15.2925 25.083 15.3212 25.1065 15.3534C25.1306 15.3852 25.1493 15.4113 25.1626 15.4318H25.1779V14.8511H25.3592V16.4241H25.1841V16.2428H25.1626C25.1493 16.2643 25.1303 16.2915 25.1058 16.3242C25.0812 16.3565 25.0461 16.3854 25.0005 16.411C24.955 16.4361 24.8943 16.4486 24.8185 16.4486ZM24.8431 16.2858C24.9158 16.2858 24.9772 16.2669 25.0274 16.229C25.0776 16.1906 25.1157 16.1376 25.1418 16.07C25.168 16.0019 25.181 15.9233 25.181 15.8342C25.181 15.7461 25.1682 15.6691 25.1426 15.603C25.117 15.5365 25.0791 15.4848 25.0289 15.4479C24.9788 15.4105 24.9168 15.3918 24.8431 15.3918C24.7663 15.3918 24.7023 15.4115 24.6511 15.451C24.6004 15.4899 24.5622 15.5429 24.5366 15.61C24.5115 15.6765 24.499 15.7513 24.499 15.8342C24.499 15.9182 24.5118 15.9945 24.5374 16.0631C24.5635 16.1312 24.6019 16.1855 24.6526 16.2259C24.7038 16.2659 24.7673 16.2858 24.8431 16.2858ZM26.3492 16.4241V14.8511H26.5305V15.4318H26.5458C26.5591 15.4113 26.5776 15.3852 26.6011 15.3534C26.6252 15.3212 26.6595 15.2925 26.704 15.2674C26.7491 15.2418 26.81 15.229 26.8868 15.229C26.9862 15.229 27.0737 15.2538 27.1495 15.3035C27.2253 15.3532 27.2844 15.4236 27.3269 15.5147C27.3694 15.6059 27.3907 15.7134 27.3907 15.8373C27.3907 15.9622 27.3694 16.0705 27.3269 16.1622C27.2844 16.2533 27.2255 16.324 27.1503 16.3741C27.075 16.4238 26.9882 16.4486 26.8899 16.4486C26.8141 16.4486 26.7535 16.4361 26.7079 16.411C26.6623 16.3854 26.6272 16.3565 26.6027 16.3242C26.5781 16.2915 26.5591 16.2643 26.5458 16.2428H26.5243V16.4241H26.3492ZM26.5274 15.8342C26.5274 15.9233 26.5404 16.0019 26.5666 16.07C26.5927 16.1376 26.6308 16.1906 26.681 16.229C26.7312 16.2669 26.7926 16.2858 26.8653 16.2858C26.9411 16.2858 27.0043 16.2659 27.055 16.2259C27.1062 16.1855 27.1446 16.1312 27.1702 16.0631C27.1964 15.9945 27.2094 15.9182 27.2094 15.8342C27.2094 15.7513 27.1966 15.6765 27.171 15.61C27.1459 15.5429 27.1078 15.4899 27.0566 15.451C27.0059 15.4115 26.9421 15.3918 26.8653 15.3918C26.7916 15.3918 26.7296 15.4105 26.6795 15.4479C26.6293 15.4848 26.5914 15.5365 26.5658 15.603C26.5402 15.6691 26.5274 15.7461 26.5274 15.8342ZM27.7424 16.8665C27.7117 16.8665 27.6843 16.8639 27.6602 16.8588C27.6362 16.8542 27.6195 16.8496 27.6103 16.845L27.6564 16.6852C27.7004 16.6965 27.7394 16.7006 27.7732 16.6975C27.8069 16.6944 27.8369 16.6793 27.863 16.6522C27.8896 16.6256 27.914 16.5823 27.936 16.5224L27.9698 16.4302L27.5335 15.2444H27.7301L28.0558 16.1844H28.0681L28.3937 15.2444H28.5903L28.0896 16.5961C28.0671 16.657 28.0391 16.7075 28.0059 16.7474C27.9726 16.7879 27.9339 16.8178 27.8899 16.8373C27.8464 16.8567 27.7972 16.8665 27.7424 16.8665ZM17.5459 19.4241V17.8511H18.4891V18.0201H17.7364V18.5516H18.4184V18.7205H17.7364V19.4241H17.5459ZM19.1379 19.4517C19.0631 19.4517 18.9953 19.4376 18.9344 19.4095C18.8734 19.3808 18.825 19.3396 18.7892 19.2858C18.7534 19.2316 18.7354 19.166 18.7354 19.0892C18.7354 19.0216 18.7488 18.9668 18.7754 18.9248C18.802 18.8823 18.8376 18.8491 18.8821 18.825C18.9267 18.8009 18.9758 18.783 19.0296 18.7712C19.0839 18.759 19.1384 18.7492 19.1932 18.7421C19.2649 18.7328 19.323 18.7259 19.3675 18.7213C19.4126 18.7162 19.4454 18.7077 19.4658 18.696C19.4868 18.6842 19.4973 18.6637 19.4973 18.6345V18.6284C19.4973 18.5526 19.4766 18.4937 19.4351 18.4517C19.3942 18.4097 19.332 18.3888 19.2485 18.3888C19.162 18.3888 19.0941 18.4077 19.045 18.4456C18.9958 18.4835 18.9612 18.5239 18.9413 18.5669L18.7692 18.5055C18.8 18.4338 18.8409 18.378 18.8921 18.3381C18.9438 18.2976 19.0002 18.2695 19.0611 18.2536C19.1225 18.2372 19.183 18.229 19.2423 18.229C19.2802 18.229 19.3238 18.2336 19.3729 18.2428C19.4226 18.2515 19.4705 18.2697 19.5165 18.2974C19.5631 18.325 19.6018 18.3667 19.6325 18.4225C19.6632 18.4784 19.6786 18.5531 19.6786 18.6468V19.4241H19.4973V19.2643H19.4881C19.4758 19.2899 19.4554 19.3173 19.4267 19.3465C19.398 19.3757 19.3599 19.4005 19.3122 19.421C19.2646 19.4415 19.2065 19.4517 19.1379 19.4517ZM19.1655 19.2889C19.2372 19.2889 19.2976 19.2748 19.3468 19.2467C19.3965 19.2185 19.4338 19.1821 19.4589 19.1376C19.4845 19.093 19.4973 19.0462 19.4973 18.997V18.8311C19.4897 18.8404 19.4728 18.8488 19.4466 18.8565C19.421 18.8637 19.3913 18.8701 19.3576 18.8757C19.3243 18.8808 19.2918 18.8854 19.26 18.8895C19.2288 18.8931 19.2034 18.8962 19.184 18.8987C19.1369 18.9049 19.0928 18.9149 19.0519 18.9287C19.0114 18.942 18.9787 18.9622 18.9536 18.9894C18.929 19.016 18.9167 19.0523 18.9167 19.0984C18.9167 19.1614 18.94 19.209 18.9866 19.2413C19.0337 19.273 19.0933 19.2889 19.1655 19.2889ZM20.1907 17.8511V19.4241H20.0094V17.8511H20.1907ZM20.4889 19.4241V19.2858L21.1586 18.4256V18.4133H20.5104V18.2444H21.3921V18.3888L20.7408 19.2428V19.2551H21.4136V19.4241H20.4889ZM22.0399 19.4517C21.9652 19.4517 21.8973 19.4376 21.8364 19.4095C21.7755 19.3808 21.7271 19.3396 21.6912 19.2858C21.6554 19.2316 21.6375 19.166 21.6375 19.0892C21.6375 19.0216 21.6508 18.9668 21.6774 18.9248C21.704 18.8823 21.7396 18.8491 21.7842 18.825C21.8287 18.8009 21.8779 18.783 21.9316 18.7712C21.9859 18.759 22.0404 18.7492 22.0952 18.7421C22.1669 18.7328 22.225 18.7259 22.2696 18.7213C22.3146 18.7162 22.3474 18.7077 22.3679 18.696C22.3889 18.6842 22.3994 18.6637 22.3994 18.6345V18.6284C22.3994 18.5526 22.3786 18.4937 22.3372 18.4517C22.2962 18.4097 22.234 18.3888 22.1505 18.3888C22.064 18.3888 21.9962 18.4077 21.947 18.4456C21.8978 18.4835 21.8633 18.5239 21.8433 18.5669L21.6713 18.5055C21.702 18.4338 21.743 18.378 21.7942 18.3381C21.8459 18.2976 21.9022 18.2695 21.9631 18.2536C22.0246 18.2372 22.085 18.229 22.1444 18.229C22.1823 18.229 22.2258 18.2336 22.275 18.2428C22.3246 18.2515 22.3725 18.2697 22.4186 18.2974C22.4652 18.325 22.5038 18.3667 22.5345 18.4225C22.5653 18.4784 22.5806 18.5531 22.5806 18.6468V19.4241H22.3994V19.2643H22.3902C22.3779 19.2899 22.3574 19.3173 22.3287 19.3465C22.3 19.3757 22.2619 19.4005 22.2143 19.421C22.1667 19.4415 22.1085 19.4517 22.0399 19.4517ZM22.0676 19.2889C22.1393 19.2889 22.1997 19.2748 22.2488 19.2467C22.2985 19.2185 22.3359 19.1821 22.361 19.1376C22.3866 19.093 22.3994 19.0462 22.3994 18.997V18.8311C22.3917 18.8404 22.3748 18.8488 22.3487 18.8565C22.3231 18.8637 22.2934 18.8701 22.2596 18.8757C22.2263 18.8808 22.1938 18.8854 22.162 18.8895C22.1308 18.8931 22.1055 18.8962 22.086 18.8987C22.0389 18.9049 21.9949 18.9149 21.9539 18.9287C21.9135 18.942 21.8807 18.9622 21.8556 18.9894C21.831 19.016 21.8187 19.0523 21.8187 19.0984C21.8187 19.1614 21.842 19.209 21.8886 19.2413C21.9357 19.273 21.9954 19.2889 22.0676 19.2889ZM22.9115 19.4241V18.2444H23.0866V18.4225H23.0989C23.1204 18.3642 23.1593 18.3168 23.2156 18.2805C23.2719 18.2441 23.3354 18.2259 23.4061 18.2259C23.4194 18.2259 23.436 18.2262 23.456 18.2267C23.476 18.2272 23.4911 18.228 23.5013 18.229V18.4133C23.4952 18.4118 23.4811 18.4095 23.4591 18.4064C23.4376 18.4028 23.4148 18.401 23.3907 18.401C23.3334 18.401 23.2822 18.4131 23.2371 18.4371C23.1926 18.4607 23.1572 18.4935 23.1311 18.5355C23.1055 18.5769 23.0927 18.6243 23.0927 18.6775V19.4241H22.9115ZM24.349 19.4241V17.8511H25.2922V18.0201H24.5395V18.5516H25.2215V18.7205H24.5395V19.4241H24.349ZM25.5662 19.4241V19.2858L26.4141 18.0201H25.557V17.8511H26.6414V17.9894L25.7935 19.2551H26.6507V19.4241H25.5662Z" fill="black"/>
<path d="M22.2821 0.032889C15.0299 0.108415 7.93493 3.85956 4.1567 9.97914C-1.85359 19.1206 -1.39452 32.1772 6.02784 40.4346C10.7903 45.7164 18.1534 48.4245 25.29 47.9278C33.0976 47.7773 40.6894 43.3545 44.3562 36.5523C47.6064 30.9771 48.5237 24.242 47.2011 17.97C45.8177 9.7054 39.0473 2.47863 30.7139 0.578987C27.9408 0.0786085 25.0951 0.0107911 22.2821 0.032889Z" fill="url(#paint0_linear_347_203)"/>
<path d="M15.4488 12.1964C5.75893 13.3296 2.2007 41.3945 29.412 37.9222C40.3539 31.3732 45.5999 25.0346 44.6156 20.4434C42.0337 14.9613 40.7831 16.4184 37.272 18.0911C23.5496 21.4673 23.7743 10.6687 15.4488 12.1964Z" fill="url(#paint1_linear_347_203)"/>
<path d="M18.7504 0.419434C8.41221 2.04061 2.211 10.2515 0.374478 19.7665C-0.989927 27.5904 1.64797 36.8075 7.01328 41.4678C11.3161 45.2052 14.2207 47.9521 25.8126 48.0463C33.5741 48.1094 41.2167 42.8689 45.1471 36.0614C49.1468 29.1338 47.593 19.4651 47.0108 17.0274C45.3854 19.8095 42.5285 22.5892 35.9361 22.5673C31.291 23.0088 30.3896 24.7723 35.6165 27.8718C31.5639 30.7889 31.1819 31.7527 29.0772 32.2819C27.783 30.7109 24.9575 27.5013 22.867 27.6335C21.1546 37.8857 16.3897 35.1313 13.7282 31.4696C7.82024 22.2958 6.79973 21.0901 6.71368 16.4339C7.66182 8.14894 9.91818 3.53544 18.7504 0.419434Z" fill="url(#paint2_linear_347_203)"/>
<path d="M19.2545 30.5523C19.2545 30.5523 18.9225 31.7019 19.2497 32.3111C19.2467 33.4841 19.2382 36.4223 19.235 37.5904C18.7698 38.3554 19.2302 39.3193 19.2302 39.3193L30.482 39.3158C30.482 39.3158 30.943 38.5331 30.5036 37.5352C30.5179 36.3586 30.5534 33.4199 30.5675 32.2562C30.9316 31.6368 30.5882 30.5525 30.5882 30.5525L19.2545 30.5523ZM28.5005 32.3078L28.49 34.0624L21.5072 34.0547L21.4699 32.3275L28.5005 32.3078ZM28.5035 35.8252L28.4748 37.5616L21.5041 37.5669L21.469 35.813L28.5035 35.8252ZM23.9658 22.3635C23.961 22.9671 24.4026 24.085 24.4026 24.085C24.4026 24.085 19.0963 24.0925 17.7687 24.1298C17.2621 24.6435 17.2326 25.1063 18.0894 25.5838C18.8459 25.334 20.2763 25.2643 21.3027 25.4683C21.4599 25.8262 21.5221 27.6164 21.5221 27.6164C21.5221 27.6164 16.7557 27.6625 16.0247 27.9666C14.7183 28.2757 13.3482 30.0537 16.0132 29.9446C18.1264 29.1052 21.2832 29.1786 24.8529 29.162C28.022 29.1473 31.7725 29.8129 34.2965 30.2776C35.6646 29.822 35.9756 28.643 35.8337 27.6419C34.7372 27.693 28.7888 27.5127 28.7888 27.5127C28.7888 27.5127 28.9103 26.1695 29.1705 25.3166C30.3713 25.3696 32.066 25.382 32.5979 25.111C32.9265 24.5358 32.9175 24.0723 32.3725 23.9381C31.6577 23.7267 26.0095 24.0436 26.0095 24.0436C26.0095 24.0436 25.7715 23.2248 25.5708 22.5504C25.2423 21.447 23.9747 21.2914 23.9658 22.3635ZM27.3402 25.2937L27.0559 27.637L22.8712 27.6273L22.6337 25.312L27.3402 25.2937ZM27.8477 12.4729C27.8477 12.4729 27.3537 13.2666 27.8633 14.1385C27.8769 15.5822 27.9292 21.1354 27.9292 21.1354C27.9292 21.1354 29.2229 21.995 30.8182 21.2032C33.2334 21.2193 37.8279 21.2396 37.8279 21.2396C37.8279 21.2396 37.8416 33.5258 37.8908 38.3025C37.8829 39.7714 40.1782 39.7871 40.1514 38.4456C40.212 33.237 40.1835 12.4938 40.1835 12.4938C40.1835 12.4938 39.3183 11.9306 38.2976 12.4453C36.5802 12.4412 31.5197 12.4555 29.7942 12.4512C28.5629 12.0092 27.8477 12.4729 27.8477 12.4729ZM37.8636 13.6778L37.85 15.9419L29.6959 15.9138L29.6652 13.617L37.8636 13.6778ZM37.8491 17.7245L37.7937 20.0341L29.7259 20.0082L29.6717 17.7011L37.8491 17.7245ZM9.72431 12.4021C9.72431 12.4021 9.87094 29.5629 9.60149 32.0209C8.50506 34.6428 7.26636 35.7916 6.61789 36.22C6.15865 36.8867 7.09519 37.6936 8.31034 38.4574C14.1698 40.3576 12.3997 21.8031 12.3997 21.8031L22.6245 21.8096C22.6245 21.8096 22.6529 15.5089 22.66 13.944C23.1896 13.039 22.667 12.4201 22.667 12.4201C22.667 12.4201 21.9095 11.7604 20.9661 12.4178C19.1704 12.4154 13.7662 12.4077 11.8926 12.4051C10.5139 11.6326 9.72431 12.4021 9.72431 12.4021ZM20.8462 16.4577L12.1344 16.45L12.1308 13.6698L20.9054 13.7239L20.8462 16.4577ZM20.8737 20.582L12.1505 20.6593L12.1523 17.7113L20.9227 17.7271L20.8737 20.582Z" fill="#FFF9F9"/>
<path d="M10.2181 4.1731C10.156 4.3151 10.2259 4.49912 10.3992 4.48658C10.6225 4.53018 10.9902 4.49445 11.0371 4.79646C11.0991 5.6871 11.0519 6.58587 11.0614 7.47946C11.0547 8.37907 11.0476 9.27869 11.0407 10.1783C10.8257 10.4076 10.4446 10.2526 10.2193 10.4444C10.1686 10.5689 10.2082 10.7541 10.3834 10.6911C11.6841 10.6692 12.9904 10.7449 14.2872 10.6223C15.2972 10.4643 16.3177 9.95246 16.8783 9.07615C17.2829 8.44121 17.4887 7.68765 17.4238 6.93394C17.3918 5.89861 16.7236 4.92171 15.7625 4.53266C14.7546 4.05839 13.6147 4.18258 12.5342 4.1523C11.7676 4.16051 10.992 4.13045 10.2312 4.16719L10.2181 4.1731ZM13.0542 4.55829C13.7451 4.56851 14.1745 4.56006 14.7627 4.97629C15.5364 5.45982 15.8584 6.41122 15.86 7.28871C15.8796 8.27908 15.5549 9.39243 14.6525 9.9194C13.9554 10.309 13.4182 10.3452 12.6387 10.25C12.3405 10.219 12.1618 9.92867 12.1927 9.64486C12.1512 7.94371 12.1683 6.24159 12.1526 4.54005C12.4531 4.54613 12.7537 4.55221 13.0542 4.55829Z" fill="#FFF9F9"/>
<path d="M20.8513 4.03934C20.586 4.03521 20.6161 4.37397 20.5016 4.5283C19.7372 6.26298 19.0148 8.01611 18.214 9.7356C18.0826 10.0795 17.7526 10.3215 17.3899 10.3969C17.2586 10.4847 17.2989 10.7719 17.5087 10.691C18.1375 10.6766 18.7793 10.72 19.3998 10.6691C19.4864 10.4924 19.3349 10.3375 19.1519 10.3313C18.8749 10.2719 18.7802 9.95389 18.9066 9.73229C19.0431 9.33748 19.2148 8.94514 19.3692 8.55237C20.2431 8.55237 21.1171 8.55237 21.9911 8.55237C22.1665 9.0813 22.4782 9.59246 22.506 10.1478C22.4608 10.3683 22.1294 10.3082 21.9719 10.4055C21.8346 10.489 21.8825 10.7723 22.0882 10.691C22.8763 10.6804 23.674 10.7123 24.4561 10.6751C24.5706 10.5133 24.4025 10.3387 24.2208 10.335C23.7327 10.1919 23.6769 9.63555 23.4842 9.2605C22.7824 7.54487 22.1149 5.81645 21.4314 4.09407C21.2687 4.01047 21.039 4.05399 20.8513 4.03934ZM20.8028 5.27514C21.1567 6.21851 21.4859 7.17058 21.8301 8.11736C21.076 8.10855 20.3204 8.13724 19.5672 8.09666C19.9736 7.15009 20.3833 6.20512 20.7977 5.26176L20.8028 5.27514Z" fill="#FFF9F9"/>
<path d="M24.8011 4.1681C24.7494 4.29529 24.7809 4.52137 24.9805 4.48281C25.2066 4.53261 25.6099 4.49393 25.6695 4.76352C25.7233 6.52409 25.7186 8.28733 25.6731 10.0481C25.6535 10.3134 25.2811 10.3222 25.0709 10.3574C24.8821 10.3442 24.6934 10.4944 24.8087 10.6776C25.7889 10.7089 26.7793 10.6817 27.7635 10.6909C27.9166 10.6122 27.8189 10.3469 27.6322 10.3652C27.3976 10.3017 27.0262 10.3536 26.9198 10.0931C26.8397 9.35082 26.8869 8.59846 26.873 7.85238C27.1928 7.85238 27.5126 7.85238 27.8324 7.85238C28.4348 8.706 28.9729 9.60254 29.6224 10.4248C29.8348 10.6679 30.177 10.7169 30.4947 10.6909C30.7685 10.667 31.0786 10.7397 31.3319 10.6314C31.4409 10.4586 31.1253 10.3953 31.0329 10.2948C30.2108 9.64166 29.6428 8.74601 28.9905 7.94604C28.9639 7.84398 28.6648 7.67631 28.8581 7.61785C29.5322 7.35054 30.1432 6.82148 30.2477 6.11472C30.4008 5.40105 29.9873 4.61916 29.2532 4.35522C28.6389 4.09835 27.9364 4.20508 27.2825 4.16561C26.4608 4.16857 25.6291 4.13047 24.8137 4.16266L24.8011 4.1681ZM27.5025 4.55452C27.9522 4.54814 28.3622 4.55628 28.6611 4.92634C29.0449 5.41087 28.9957 6.08079 28.8496 6.6336C28.7238 7.13191 28.1984 7.45621 27.6588 7.44411C27.3586 7.46366 27.174 7.4536 26.8733 7.45626C26.8733 6.48496 26.8733 5.51366 26.8733 4.54237C27.083 4.54651 27.2928 4.55044 27.5025 4.55452Z" fill="#FFF9F9"/>
<path d="M31.4888 4.17302C31.4363 4.30665 31.4686 4.52199 31.6612 4.50475C31.8899 4.53847 32.1551 4.49082 32.2255 4.77208C32.2968 6.47005 32.2758 8.17194 32.2356 9.87076C32.2584 10.0395 32.3297 10.2387 32.137 10.2827C31.9356 10.3838 31.6573 10.2961 31.4913 10.4528C31.4358 10.5755 31.4837 10.7531 31.66 10.691C32.5706 10.6804 33.4906 10.7122 34.3953 10.675C34.4978 10.5344 34.3747 10.3412 34.1937 10.3641C33.9827 10.3263 33.6588 10.3336 33.5568 10.1126C33.4693 9.2343 33.5185 8.34576 33.4914 7.46359C33.7437 7.44286 33.8625 7.73588 34.0352 7.86256C34.8675 8.72668 35.639 9.65523 36.5072 10.4832C36.8294 10.7751 37.3162 10.6617 37.7155 10.6913C37.8652 10.6559 38.1357 10.7428 38.2089 10.5756C38.0537 10.3207 37.7154 10.2073 37.4978 9.99716C36.643 9.36249 35.9829 8.54477 35.2233 7.80693C34.9917 7.56708 34.7515 7.32472 34.5298 7.07718C35.3651 6.32474 36.2203 5.57551 37.1189 4.89481C37.338 4.70847 37.6743 4.64809 37.8364 4.40632C37.9049 4.22158 37.7871 4.08519 37.5809 4.15114C36.9883 4.16555 36.383 4.12218 35.7985 4.17298C35.7291 4.33368 35.808 4.53855 36.01 4.52537C36.1476 4.52773 36.395 4.62872 36.2794 4.79393C35.7892 5.35707 35.161 5.8002 34.6018 6.29919C34.2506 6.58529 33.9257 6.90807 33.5165 7.11363C33.4913 6.34293 33.4763 5.56006 33.5543 4.79515C33.63 4.46946 34.0507 4.54058 34.3032 4.48041C34.4741 4.43056 34.4821 4.06295 34.2428 4.15114C33.3306 4.16201 32.4088 4.12968 31.5025 4.16707L31.4888 4.17302Z" fill="#FFF9F9"/>
</g>
<defs>
<linearGradient id="paint0_linear_347_203" x1="5.75697" y1="11.6776" x2="42.6663" y2="21.9016" gradientUnits="userSpaceOnUse">
<stop stop-color="#D23388"/>
<stop offset="0.293488" stop-color="#EF2E43"/>
<stop offset="0.689862" stop-color="#E5282C"/>
<stop offset="1" stop-color="#602B33"/>
</linearGradient>
<linearGradient id="paint1_linear_347_203" x1="24.4196" y1="38.5121" x2="28.1652" y2="8.63106" gradientUnits="userSpaceOnUse">
<stop stop-color="#1C2224"/>
<stop offset="0.630927" stop-color="#2A2723"/>
<stop offset="1" stop-color="#E6282E"/>
</linearGradient>
<linearGradient id="paint2_linear_347_203" x1="8.14155" y1="41.4094" x2="21.2264" y2="17.8413" gradientUnits="userSpaceOnUse">
<stop stop-color="#7260A4"/>
<stop offset="0.5" stop-color="#8D4B99"/>
<stop offset="1" stop-color="#A8378F"/>
</linearGradient>
<clipPath id="clip0_347_203">
<rect width="47.8134" height="48" fill="white"/>
</clipPath>
</defs>
</svg>
