<svg width="48" height="49" viewBox="0 0 48 49" fill="none" xmlns="http://www.w3.org/2000/svg">
<g clip-path="url(#clip0_347_102)">
<path d="M15.5576 14.9067H15.2194C15.1994 14.8094 15.1644 14.724 15.1144 14.6503C15.0653 14.5767 15.0053 14.5149 14.9344 14.4649C14.8644 14.414 14.7867 14.3758 14.7012 14.3503C14.6158 14.3249 14.5267 14.3122 14.434 14.3122C14.2649 14.3122 14.1117 14.3549 13.9744 14.4403C13.8381 14.5258 13.7294 14.6517 13.6485 14.8181C13.5685 14.9844 13.5285 15.1885 13.5285 15.4303C13.5285 15.6721 13.5685 15.8762 13.6485 16.0426C13.7294 16.2089 13.8381 16.3349 13.9744 16.4203C14.1117 16.5058 14.2649 16.5485 14.434 16.5485C14.5267 16.5485 14.6158 16.5358 14.7012 16.5103C14.7867 16.4848 14.8644 16.4471 14.9344 16.3971C15.0053 16.3462 15.0653 16.2839 15.1144 16.2103C15.1644 16.1358 15.1994 16.0503 15.2194 15.954H15.5576C15.5321 16.0967 15.4858 16.2244 15.4185 16.3371C15.3512 16.4499 15.2676 16.5458 15.1676 16.6248C15.0676 16.703 14.9553 16.7626 14.8308 16.8035C14.7071 16.8444 14.5749 16.8648 14.434 16.8648C14.1958 16.8648 13.984 16.8067 13.7985 16.6903C13.6131 16.5739 13.4672 16.4085 13.3608 16.1939C13.2544 15.9794 13.2013 15.7249 13.2013 15.4303C13.2013 15.1358 13.2544 14.8812 13.3608 14.6667C13.4672 14.4522 13.6131 14.2867 13.7985 14.1704C13.984 14.054 14.1958 13.9958 14.434 13.9958C14.5749 13.9958 14.7071 14.0163 14.8308 14.0572C14.9553 14.0981 15.0676 14.1581 15.1676 14.2372C15.2676 14.3154 15.3512 14.4108 15.4185 14.5235C15.4858 14.6353 15.5321 14.7631 15.5576 14.9067ZM16.0604 16.8267V14.7322H16.3713V15.0485H16.3931C16.4313 14.9449 16.5004 14.8608 16.6004 14.7962C16.7004 14.7317 16.8131 14.6994 16.9386 14.6994C16.9622 14.6994 16.9917 14.6999 17.0272 14.7008C17.0626 14.7017 17.0895 14.7031 17.1076 14.7049V15.0322C17.0967 15.0294 17.0717 15.0253 17.0326 15.0199C16.9945 15.0135 16.954 15.0103 16.9113 15.0103C16.8095 15.0103 16.7186 15.0317 16.6386 15.0744C16.5595 15.1162 16.4968 15.1744 16.4504 15.249C16.4049 15.3226 16.3822 15.4067 16.3822 15.5012V16.8267H16.0604ZM18.3035 16.8703C18.1017 16.8703 17.9276 16.8258 17.7813 16.7367C17.6358 16.6467 17.5235 16.5212 17.4445 16.3603C17.3663 16.1985 17.3272 16.0103 17.3272 15.7958C17.3272 15.5812 17.3663 15.3921 17.4445 15.2285C17.5235 15.064 17.6335 14.9358 17.7745 14.844C17.9163 14.7513 18.0817 14.7049 18.2708 14.7049C18.3799 14.7049 18.4876 14.7231 18.594 14.7594C18.7003 14.7958 18.7972 14.8549 18.8844 14.9367C18.9717 15.0176 19.0412 15.1249 19.0931 15.2585C19.1449 15.3921 19.1708 15.5567 19.1708 15.7521V15.8885H17.5563V15.6103H18.8435C18.8435 15.4921 18.8199 15.3867 18.7726 15.294C18.7262 15.2012 18.6599 15.1281 18.5735 15.0744C18.4881 15.0208 18.3872 14.994 18.2708 14.994C18.1426 14.994 18.0317 15.0258 17.9381 15.0894C17.8454 15.1522 17.774 15.234 17.724 15.3349C17.674 15.4358 17.649 15.544 17.649 15.6594V15.8449C17.649 16.003 17.6763 16.1371 17.7308 16.2471C17.7863 16.3562 17.8631 16.4394 17.9613 16.4967C18.0594 16.553 18.1735 16.5812 18.3035 16.5812C18.3881 16.5812 18.4644 16.5694 18.5326 16.5458C18.6017 16.5212 18.6613 16.4848 18.7112 16.4367C18.7612 16.3876 18.7999 16.3267 18.8272 16.2539L19.1381 16.3412C19.1053 16.4467 19.0503 16.5394 18.9731 16.6194C18.8958 16.6985 18.8003 16.7603 18.6867 16.8048C18.5731 16.8485 18.4453 16.8703 18.3035 16.8703ZM20.2767 16.8758C20.1439 16.8758 20.0235 16.8508 19.9153 16.8008C19.8071 16.7498 19.7212 16.6767 19.6576 16.5812C19.594 16.4848 19.5621 16.3685 19.5621 16.2321C19.5621 16.1121 19.5858 16.0149 19.633 15.9403C19.6803 15.8649 19.7435 15.8058 19.8226 15.763C19.9017 15.7203 19.9889 15.6885 20.0844 15.6676C20.1808 15.6458 20.2776 15.6285 20.3749 15.6158C20.5021 15.5994 20.6053 15.5871 20.6844 15.579C20.7644 15.5699 20.8226 15.5549 20.8589 15.534C20.8962 15.5131 20.9148 15.4767 20.9148 15.4249V15.414C20.9148 15.2794 20.878 15.1749 20.8044 15.1003C20.7317 15.0258 20.6212 14.9885 20.473 14.9885C20.3194 14.9885 20.1989 15.0222 20.1117 15.0894C20.0244 15.1567 19.963 15.2285 19.9276 15.3049L19.6221 15.1958C19.6767 15.0685 19.7494 14.9694 19.8403 14.8985C19.9321 14.8267 20.0321 14.7767 20.1403 14.7485C20.2494 14.7194 20.3567 14.7049 20.4621 14.7049C20.5294 14.7049 20.6067 14.7131 20.6939 14.7294C20.7821 14.7449 20.8671 14.7772 20.9489 14.8262C21.0317 14.8753 21.1003 14.9494 21.1548 15.0485C21.2094 15.1476 21.2366 15.2803 21.2366 15.4467V16.8267H20.9148V16.543H20.8985C20.8767 16.5885 20.8403 16.6371 20.7894 16.6889C20.7385 16.7408 20.6708 16.7848 20.5862 16.8212C20.5017 16.8576 20.3985 16.8758 20.2767 16.8758ZM20.3258 16.5867C20.453 16.5867 20.5603 16.5617 20.6476 16.5117C20.7358 16.4617 20.8021 16.3971 20.8467 16.318C20.8921 16.2389 20.9148 16.1558 20.9148 16.0685V15.774C20.9012 15.7903 20.8712 15.8053 20.8248 15.819C20.7794 15.8317 20.7267 15.843 20.6667 15.853C20.6076 15.8621 20.5498 15.8703 20.4935 15.8776C20.438 15.884 20.393 15.8894 20.3585 15.894C20.2749 15.9049 20.1967 15.9226 20.1239 15.9471C20.0521 15.9708 19.9939 16.0067 19.9494 16.0549C19.9058 16.1021 19.884 16.1667 19.884 16.2485C19.884 16.3603 19.9253 16.4449 20.008 16.5021C20.0917 16.5585 20.1976 16.5867 20.3258 16.5867ZM22.7349 14.7322V15.0049H21.6495V14.7322H22.7349ZM21.9658 14.2304H22.2877V16.2267C22.2877 16.3176 22.3008 16.3858 22.3272 16.4312C22.3545 16.4758 22.389 16.5058 22.4308 16.5212C22.4736 16.5358 22.5186 16.543 22.5658 16.543C22.6013 16.543 22.6304 16.5412 22.6531 16.5376C22.6758 16.533 22.694 16.5294 22.7076 16.5267L22.7731 16.8158C22.7513 16.8239 22.7208 16.8321 22.6817 16.8403C22.6426 16.8494 22.5931 16.8539 22.5331 16.8539C22.4422 16.8539 22.3531 16.8344 22.2658 16.7953C22.1795 16.7562 22.1077 16.6967 22.0504 16.6167C21.994 16.5367 21.9658 16.4358 21.9658 16.3139V14.2304ZM24.0747 16.8703C23.8728 16.8703 23.6988 16.8258 23.5524 16.7367C23.4069 16.6467 23.2947 16.5212 23.2156 16.3603C23.1374 16.1985 23.0983 16.0103 23.0983 15.7958C23.0983 15.5812 23.1374 15.3921 23.2156 15.2285C23.2947 15.064 23.4047 14.9358 23.5456 14.844C23.6874 14.7513 23.8528 14.7049 24.0419 14.7049C24.151 14.7049 24.2587 14.7231 24.3651 14.7594C24.4715 14.7958 24.5683 14.8549 24.6556 14.9367C24.7428 15.0176 24.8124 15.1249 24.8642 15.2585C24.916 15.3921 24.9419 15.5567 24.9419 15.7521V15.8885H23.3274V15.6103H24.6146C24.6146 15.4921 24.591 15.3867 24.5437 15.294C24.4974 15.2012 24.431 15.1281 24.3447 15.0744C24.2592 15.0208 24.1583 14.994 24.0419 14.994C23.9138 14.994 23.8028 15.0258 23.7092 15.0894C23.6165 15.1522 23.5451 15.234 23.4951 15.3349C23.4451 15.4358 23.4201 15.544 23.4201 15.6594V15.8449C23.4201 16.003 23.4474 16.1371 23.5019 16.2471C23.5574 16.3562 23.6342 16.4394 23.7324 16.4967C23.8306 16.553 23.9447 16.5812 24.0747 16.5812C24.1592 16.5812 24.2356 16.5694 24.3037 16.5458C24.3728 16.5212 24.4324 16.4848 24.4824 16.4367C24.5324 16.3876 24.571 16.3267 24.5983 16.2539L24.9092 16.3412C24.8765 16.4467 24.8215 16.5394 24.7442 16.6194C24.6669 16.6985 24.5715 16.7603 24.4578 16.8048C24.3442 16.8485 24.2165 16.8703 24.0747 16.8703ZM26.2223 16.8703C26.0478 16.8703 25.8937 16.8262 25.7601 16.738C25.6264 16.6489 25.5219 16.5235 25.4464 16.3617C25.371 16.1989 25.3333 16.0067 25.3333 15.7849C25.3333 15.5649 25.371 15.374 25.4464 15.2121C25.5219 15.0503 25.6269 14.9253 25.7614 14.8372C25.896 14.749 26.0514 14.7049 26.2278 14.7049C26.3642 14.7049 26.4719 14.7276 26.551 14.7731C26.631 14.8176 26.6919 14.8685 26.7337 14.9258C26.7764 14.9822 26.8096 15.0285 26.8332 15.0649H26.8605V14.034H27.1823V16.8267H26.8714V16.5048H26.8332C26.8096 16.543 26.776 16.5912 26.7323 16.6494C26.6887 16.7067 26.6264 16.758 26.5455 16.8035C26.4646 16.848 26.3569 16.8703 26.2223 16.8703ZM26.266 16.5812C26.3951 16.5812 26.5042 16.5476 26.5932 16.4803C26.6823 16.4121 26.7501 16.318 26.7964 16.198C26.8428 16.0771 26.866 15.9376 26.866 15.7794C26.866 15.623 26.8432 15.4862 26.7978 15.369C26.7523 15.2508 26.6851 15.159 26.596 15.0935C26.5069 15.0272 26.3969 14.994 26.266 14.994C26.1296 14.994 26.016 15.029 25.9251 15.099C25.8351 15.1681 25.7673 15.2621 25.7219 15.3812C25.6774 15.4994 25.6551 15.6321 25.6551 15.7794C25.6551 15.9285 25.6778 16.0639 25.7233 16.1858C25.7696 16.3067 25.8378 16.403 25.9278 16.4748C26.0187 16.5458 26.1314 16.5812 26.266 16.5812ZM28.94 16.8267V14.034H29.2618V15.0649H29.2891C29.3127 15.0285 29.3455 14.9822 29.3873 14.9258C29.43 14.8685 29.4909 14.8176 29.57 14.7731C29.65 14.7276 29.7582 14.7049 29.8945 14.7049C30.0709 14.7049 30.2263 14.749 30.3609 14.8372C30.4954 14.9253 30.6004 15.0503 30.6759 15.2121C30.7513 15.374 30.7891 15.5649 30.7891 15.7849C30.7891 16.0067 30.7513 16.1989 30.6759 16.3617C30.6004 16.5235 30.4959 16.6489 30.3623 16.738C30.2286 16.8262 30.0745 16.8703 29.9 16.8703C29.7654 16.8703 29.6577 16.848 29.5768 16.8035C29.4959 16.758 29.4336 16.7067 29.39 16.6494C29.3464 16.5912 29.3127 16.543 29.2891 16.5048H29.2509V16.8267H28.94ZM29.2564 15.7794C29.2564 15.9376 29.2795 16.0771 29.3259 16.198C29.3723 16.318 29.44 16.4121 29.5291 16.4803C29.6182 16.5476 29.7273 16.5812 29.8564 16.5812C29.9909 16.5812 30.1032 16.5458 30.1932 16.4748C30.2841 16.403 30.3523 16.3067 30.3977 16.1858C30.4441 16.0639 30.4672 15.9285 30.4672 15.7794C30.4672 15.6321 30.4445 15.4994 30.3991 15.3812C30.3545 15.2621 30.2868 15.1681 30.1959 15.099C30.1059 15.029 29.9927 14.994 29.8564 14.994C29.7254 14.994 29.6154 15.0272 29.5264 15.0935C29.4373 15.159 29.37 15.2508 29.3245 15.369C29.2791 15.4862 29.2564 15.623 29.2564 15.7794ZM31.4136 17.6121C31.359 17.6121 31.3104 17.6076 31.2677 17.5985C31.225 17.5903 31.1954 17.5821 31.1791 17.5739L31.2609 17.2903C31.339 17.3103 31.4081 17.3176 31.4681 17.3121C31.5281 17.3066 31.5813 17.2798 31.6277 17.2317C31.6749 17.1844 31.7181 17.1076 31.7572 17.0012L31.8172 16.8376L31.0427 14.7322H31.3918L31.9699 16.4012H31.9918L32.5699 14.7322H32.919L32.0299 17.1321C31.9899 17.2403 31.9404 17.3298 31.8813 17.4007C31.8222 17.4726 31.7536 17.5257 31.6754 17.5603C31.5981 17.5948 31.5109 17.6121 31.4136 17.6121ZM13.3103 21.8267V19.034H14.9849V19.334H13.6485V20.2776H14.8594V20.5776H13.6485V21.8267H13.3103ZM16.1368 21.8758C16.004 21.8758 15.8836 21.8508 15.7754 21.8008C15.6672 21.7498 15.5813 21.6767 15.5177 21.5812C15.454 21.4848 15.4222 21.3685 15.4222 21.2321C15.4222 21.1121 15.4459 21.0149 15.4931 20.9403C15.5404 20.8649 15.6036 20.8058 15.6827 20.763C15.7618 20.7203 15.849 20.6885 15.9445 20.6676C16.0409 20.6458 16.1377 20.6285 16.2349 20.6158C16.3622 20.5994 16.4654 20.5871 16.5445 20.579C16.6245 20.5699 16.6827 20.5549 16.719 20.534C16.7563 20.5131 16.7749 20.4767 16.7749 20.4249V20.414C16.7749 20.2794 16.7381 20.1749 16.6645 20.1003C16.5917 20.0258 16.4813 19.9885 16.3331 19.9885C16.1795 19.9885 16.059 20.0222 15.9718 20.0894C15.8845 20.1567 15.8231 20.2285 15.7877 20.3049L15.4822 20.1958C15.5368 20.0685 15.6095 19.9694 15.7004 19.8985C15.7922 19.8267 15.8922 19.7767 16.0004 19.7485C16.1095 19.7194 16.2168 19.7049 16.3222 19.7049C16.3895 19.7049 16.4668 19.7131 16.554 19.7294C16.6422 19.7449 16.7272 19.7772 16.809 19.8262C16.8917 19.8753 16.9604 19.9494 17.0149 20.0485C17.0695 20.1476 17.0967 20.2803 17.0967 20.4467V21.8267H16.7749V21.543H16.7586C16.7367 21.5885 16.7004 21.6371 16.6495 21.6889C16.5986 21.7408 16.5308 21.7848 16.4463 21.8212C16.3618 21.8576 16.2586 21.8758 16.1368 21.8758ZM16.1858 21.5867C16.3131 21.5867 16.4204 21.5617 16.5077 21.5117C16.5958 21.4617 16.6622 21.3971 16.7067 21.318C16.7522 21.2389 16.7749 21.1558 16.7749 21.0685V20.774C16.7613 20.7903 16.7313 20.8053 16.6849 20.819C16.6395 20.8317 16.5867 20.843 16.5268 20.853C16.4677 20.8621 16.4099 20.8703 16.3536 20.8776C16.2981 20.884 16.2531 20.8894 16.2186 20.894C16.1349 20.9049 16.0568 20.9226 15.984 20.9471C15.9122 20.9708 15.854 21.0067 15.8095 21.0549C15.7659 21.1021 15.744 21.1667 15.744 21.2485C15.744 21.3603 15.7854 21.4449 15.8681 21.5021C15.9518 21.5585 16.0577 21.5867 16.1858 21.5867ZM18.0059 19.034V21.8267H17.6841V19.034H18.0059ZM18.5353 21.8267V21.5812L19.7244 20.054V20.0322H18.5735V19.7322H20.1389V19.9885L18.9826 21.5048V21.5267H20.1771V21.8267H18.5353ZM21.2891 21.8758C21.1564 21.8758 21.036 21.8508 20.9278 21.8008C20.8196 21.7498 20.7337 21.6767 20.6701 21.5812C20.6064 21.4848 20.5746 21.3685 20.5746 21.2321C20.5746 21.1121 20.5983 21.0149 20.6455 20.9403C20.6928 20.8649 20.756 20.8058 20.8351 20.763C20.9142 20.7203 21.0014 20.6885 21.0969 20.6676C21.1932 20.6458 21.2901 20.6285 21.3873 20.6158C21.5146 20.5994 21.6178 20.5871 21.6969 20.579C21.7769 20.5699 21.835 20.5549 21.8714 20.534C21.9087 20.5131 21.9273 20.4767 21.9273 20.4249V20.414C21.9273 20.2794 21.8905 20.1749 21.8169 20.1003C21.7441 20.0258 21.6337 19.9885 21.4855 19.9885C21.3319 19.9885 21.2114 20.0222 21.1242 20.0894C21.0369 20.1567 20.9755 20.2285 20.9401 20.3049L20.6346 20.1958C20.6892 20.0685 20.7619 19.9694 20.8528 19.8985C20.9446 19.8267 21.0446 19.7767 21.1528 19.7485C21.2619 19.7194 21.3691 19.7049 21.4746 19.7049C21.5419 19.7049 21.6191 19.7131 21.7064 19.7294C21.7946 19.7449 21.8796 19.7772 21.9614 19.8262C22.0441 19.8753 22.1128 19.9494 22.1673 20.0485C22.2219 20.1476 22.2491 20.2803 22.2491 20.4467V21.8267H21.9273V21.543H21.911C21.8891 21.5885 21.8528 21.6371 21.8019 21.6889C21.751 21.7408 21.6832 21.7848 21.5987 21.8212C21.5141 21.8576 21.411 21.8758 21.2891 21.8758ZM21.3382 21.5867C21.4655 21.5867 21.5728 21.5617 21.66 21.5117C21.7482 21.4617 21.8146 21.3971 21.8591 21.318C21.9046 21.2389 21.9273 21.1558 21.9273 21.0685V20.774C21.9137 20.7903 21.8837 20.8053 21.8373 20.819C21.7919 20.8317 21.7391 20.843 21.6791 20.853C21.6201 20.8621 21.5623 20.8703 21.506 20.8776C21.4505 20.884 21.4055 20.8894 21.371 20.894C21.2873 20.9049 21.2092 20.9226 21.1364 20.9471C21.0646 20.9708 21.0064 21.0067 20.9619 21.0549C20.9182 21.1021 20.8964 21.1667 20.8964 21.2485C20.8964 21.3603 20.9378 21.4449 21.0205 21.5021C21.1042 21.5585 21.2101 21.5867 21.3382 21.5867ZM22.8365 21.8267V19.7322H23.1474V20.0485H23.1692C23.2074 19.9449 23.2765 19.8608 23.3765 19.7962C23.4765 19.7317 23.5892 19.6994 23.7147 19.6994C23.7383 19.6994 23.7678 19.6999 23.8033 19.7008C23.8388 19.7017 23.8656 19.7031 23.8838 19.7049V20.0322C23.8728 20.0294 23.8478 20.0253 23.8088 20.0199C23.7706 20.0135 23.7301 20.0103 23.6874 20.0103C23.5856 20.0103 23.4947 20.0317 23.4147 20.0744C23.3356 20.1162 23.2729 20.1744 23.2265 20.249C23.181 20.3226 23.1583 20.4067 23.1583 20.5012V21.8267H22.8365ZM25.3888 21.8267V19.034H27.0633V19.334H25.727V20.2776H26.9379V20.5776H25.727V21.8267H25.3888ZM27.5498 21.8267V21.5812L29.0552 19.334H27.5334V19.034H29.4589V19.2794L27.9534 21.5267H29.4752V21.8267H27.5498Z" fill="black"/>
<path d="M22.3666 0.0236257C15.0861 0.0994468 7.96339 3.86523 4.17042 10.0087C-1.86333 19.1858 -1.40247 32.2934 6.04886 40.5831C10.8299 45.8854 18.2218 48.6041 25.3862 48.1054C33.2242 47.9544 40.8457 43.5143 44.5268 36.6856C47.7897 31.0886 48.7106 24.3272 47.3828 18.0308C45.994 9.73388 39.1972 2.47892 30.8312 0.571855C28.0473 0.0695236 25.1906 0.00144151 22.3666 0.0236257Z" fill="#010101"/>
<path d="M25.2443 0.650974C21.8803 0.583259 16.0499 2.58766 13.6861 3.64479C15.5747 2.34342 17.1906 1.36318 17.8738 0.784674C14.9322 1.13404 11.2926 1.68825 6.74905 6.36534C2.30281 10.2446 2.39294 15.152 2.98646 16.2568C3.22087 16.6931 3.78137 14.8993 4.55959 14.2819C5.0335 18.731 3.4058 24.1408 3.73803 28.5597C4.339 32.08 5.69567 33.7312 7.09479 35.6779C7.36628 38.9271 7.33328 40.0995 10.1123 42.3408C17.408 46.4548 20.7492 48.088 26.6449 48.1361C29.8339 47.9468 35.7901 45.8836 38.1899 43.9691C43.6442 39.6176 47.209 33.5947 46.2084 27.8226C46.046 26.8856 47.2583 29.6697 47.4554 28.7125C48.5202 25.1832 47.4584 19.6371 46.4203 16.6938C44.7322 12.0374 41.3889 10.5426 37.1775 5.54522C35.8446 4.17733 34.3546 2.93619 30.8801 1.64091C29.6495 0.956709 26.6647 0.365373 25.2443 0.650974Z" fill="url(#paint0_linear_347_102)"/>
<path d="M34.5275 14.0339C31.3734 14.2338 34.7719 18.914 35.6379 20.2921C37.0394 22.5224 40.0876 21.3261 40.4126 18.8982C40.7202 16.5997 39.5513 13.801 37.3036 14.341C36.9381 14.4288 34.9024 14.0102 34.5275 14.0339Z" fill="url(#paint1_radial_347_102)"/>
<path d="M18.1634 8.26328C15.5041 8.28735 13.8205 13.3433 17.85 11.8861C19.0074 11.4675 20.4035 8.24302 18.1634 8.26328Z" fill="url(#paint2_radial_347_102)"/>
<path d="M11.7427 17.9625C8.75073 19.4472 6.88479 22.5517 5.33696 25.4099C4.21721 27.4776 4.1224 30.6335 5.94162 32.1712C7.44949 33.4457 11.4108 32.218 12.2925 30.2357C14.858 24.4681 14.0549 20.3369 13.2598 19.4194C12.8012 18.8902 12.4306 17.6211 11.7427 17.9625Z" fill="url(#paint3_radial_347_102)"/>
<path d="M44.5821 15.144C43.1225 17.1034 43.4148 19.7919 42.5237 22.0107C41.5267 24.5456 40.3975 27.2237 37.9531 28.7343C34.128 30.6987 34.7827 29.0463 31.6296 28.0108C29.5335 28.0073 28.0818 29.9264 26.9804 31.4875C25.2603 33.8488 24.2525 36.8493 21.9299 38.6644C19.5251 40.4273 16.6134 41.3551 14.0255 42.7747C13.2477 43.5495 14.398 44.4797 15.0919 44.7736C17.5862 46.1779 20.5164 45.9779 23.2688 45.7683C27.7706 45.4603 32.2156 43.9617 36.0204 41.5521C37.7694 40.0572 39.9101 38.896 41.3132 37.0567C42.3006 34.4153 43.8071 31.8112 43.6818 28.8736C43.7755 26.4289 43.6692 23.7949 45.2153 21.7476C46.2627 20.1621 47.2292 18.0389 46.0773 16.248C45.7337 15.7375 45.1882 15.2763 44.5821 15.144Z" fill="url(#paint4_radial_347_102)"/>
<path d="M42.2715 36.5994C38.3615 40.7524 31.6575 46.2654 20.2588 46.1202C21.3682 47.3047 24.511 46.8415 25.9975 46.8183C31.1599 46.0435 41.043 41.9518 42.2715 36.5994Z" fill="url(#paint5_radial_347_102)"/>
<path d="M46.2184 21.0449C43.9185 22.9893 43.7727 28.8926 44.0395 30.3031C44.6318 28.1638 45.0745 24.9085 46.2184 21.0449Z" fill="url(#paint6_radial_347_102)"/>
<path d="M0.300999 27.9012C1.84981 28.0587 1.62127 25.469 1.59142 24.5992C-0.626957 22.6736 0.135337 26.6463 0.300999 27.9012Z" fill="url(#paint7_radial_347_102)"/>
<path d="M34.9409 29.6462C39.619 31.1984 43.0199 25.8773 42.856 20.8513C41.4105 24.6671 39.9646 26.3211 34.9409 29.6462Z" fill="url(#paint8_radial_347_102)"/>
<path d="M29.0305 22.4326C31.2185 22.3305 34.0068 20.7912 35.1273 19.7466C36.2478 18.7021 35.7005 18.1522 34.5141 17.5568C32.4508 17.9969 28.1742 20.1536 26.1407 21.016C25.4368 21.62 26.1128 14.8791 25.3328 13.1361C24.4489 11.1945 23.4742 11.5381 22.9902 12.9953C22.5992 17.2181 22.9698 36.0034 22.9826 39.8261C23.8806 41.4274 24.5878 41.2597 25.5904 39.9231C26.2979 37.5422 25.0991 21.8635 26.4356 23.5028C29.4674 25.5931 31.7298 28.7864 33.8342 31.4887C35.6689 33.8445 38.3273 39.9104 43.6214 33.5892C40.8553 33.5895 38.6105 32.2989 33.9251 27.4315" fill="white"/>
<path d="M11.0505 21.0764C10.4181 21.3657 10.4024 22.8687 10.7968 23.0204C14.1335 23.1059 17.098 22.9382 19.0204 23.0873C15.8113 29.6579 12.8655 32.3769 6.92578 33.3741C8.37777 38.9009 14.584 34.0302 16.1281 32.0786C17.9297 29.8016 21.2316 26.9759 21.9336 21.0359C17.6988 20.9458 14.7275 20.9764 11.0505 21.0764Z" fill="white"/>
<path d="M7.299 4.78583C7.22621 4.94019 7.32715 5.12856 7.52744 5.11562C8.01411 5.20909 8.16661 5.72278 8.29041 6.10334C8.81703 7.7049 9.29965 9.32495 9.79321 10.9379C9.91742 11.0129 10.1737 10.9887 10.3015 10.9215C10.9255 9.39517 11.5276 7.86062 12.1668 6.34C12.8013 7.85864 13.3862 9.40169 14.0274 10.9138C14.1486 11.0248 14.3632 10.9797 14.5085 10.9587C15.1544 9.13889 15.7234 7.29218 16.3987 5.48143C16.4996 5.23042 16.7832 5.15392 17.0205 5.0538C17.1446 4.96634 17.1462 4.69527 16.9259 4.76396C16.271 4.77391 15.6069 4.74434 14.9576 4.77843C14.8455 4.90963 14.976 5.12878 15.1682 5.09972C15.4069 5.0961 15.7651 5.2244 15.7131 5.49781C15.5587 6.20067 15.2935 6.88852 15.0849 7.58235C14.88 8.20073 14.6863 8.81851 14.4636 9.43077C13.8359 7.92157 13.2271 6.40594 12.6101 4.89299C12.4972 4.837 12.1917 4.75806 12.1534 4.93784C11.5449 6.43572 10.9473 7.94969 10.3311 9.43736C9.95225 8.17459 9.52215 6.92029 9.20806 5.64441C9.16182 5.4789 9.14516 5.24991 9.35583 5.17303C9.50943 5.05801 9.85358 5.16155 9.87831 4.93022C9.93396 4.66056 9.55938 4.79527 9.39367 4.764C8.70246 4.77377 8.00213 4.7445 7.31658 4.77847L7.299 4.78583Z" fill="white"/>
<path d="M19.2678 4.68192C18.4917 6.52978 17.7679 8.41251 16.9245 10.2325C16.8095 10.4776 16.5447 10.6236 16.2738 10.694C16.148 10.7834 16.1841 11.0511 16.3937 10.9805C16.9656 10.9661 17.5512 11.0094 18.1143 10.9586C18.2009 10.7992 18.0643 10.6413 17.8829 10.6349C17.6077 10.575 17.5458 10.2735 17.6552 10.0662C17.7788 9.70125 17.9258 9.3332 18.0622 8.96809C18.8526 8.96809 19.643 8.96809 20.4334 8.96809C20.5853 9.46048 20.8481 9.93235 20.8915 10.4435C20.8722 10.6881 20.5265 10.6089 20.362 10.7136C20.2652 10.8166 20.3058 11.046 20.5037 10.9805C21.2138 10.9707 21.9333 10.9999 22.6376 10.966C22.7325 10.8372 22.6183 10.6281 22.4303 10.6316C22.0682 10.5481 22.0294 10.1506 21.8866 9.89353C21.2066 8.1753 20.5831 6.43221 19.9306 4.70266C19.7619 4.61717 19.4615 4.66075 19.2678 4.68192ZM19.3575 5.84013C19.6604 6.72793 19.9892 7.6414 20.259 8.52518C19.5869 8.5539 18.9113 8.5521 18.2391 8.52941C18.612 7.6354 18.9761 6.72008 19.3575 5.84013Z" fill="white"/>
<path d="M22.9696 4.78573C22.8711 5.22095 22.7749 5.66474 22.7031 6.10474C22.7878 6.27613 23.0677 6.16135 23.1087 6.00742C23.3085 5.62127 23.6072 5.16195 24.1285 5.15212C24.4496 5.12702 24.7722 5.13857 25.094 5.13573C25.0809 6.8705 25.1234 8.60653 25.0646 10.3405C25.0736 10.5965 24.7304 10.6565 24.5163 10.6469C24.3249 10.6242 24.2101 10.8965 24.3701 10.9804C25.2104 10.9708 26.0597 10.9998 26.8944 10.966C27.0014 10.8448 26.9014 10.6395 26.7162 10.6611C26.5035 10.6399 26.1451 10.6139 26.1657 10.3386C26.1065 8.60535 26.1496 6.86986 26.1362 5.13573C26.6008 5.16801 27.121 5.05082 27.5403 5.28446C27.8699 5.49563 27.9987 5.86243 28.2324 6.1441C28.3369 6.24284 28.5702 6.16765 28.4965 6.01397C28.4074 5.61693 28.3678 5.19886 28.2659 4.81121C28.0655 4.73412 27.8053 4.79707 27.5852 4.77174C26.064 4.75822 24.5427 4.76573 23.0214 4.76386L22.9871 4.77833L22.9696 4.78573Z" fill="white"/>
<path d="M29.208 4.78569C29.1376 4.92065 29.2181 5.0986 29.395 5.08974C29.5965 5.11876 29.9617 5.12818 29.9532 5.39041C29.9996 6.96901 29.9855 8.54939 29.9678 10.1284C29.9771 10.3114 29.9584 10.563 29.7244 10.6118C29.5555 10.6716 29.1981 10.5771 29.1915 10.8339C29.1617 11.0944 29.5463 10.9379 29.7114 10.9787C31.0967 10.9733 32.482 10.9682 33.8673 10.9629C34.0213 10.824 33.9623 10.5491 34.0309 10.3566C34.0619 10.0294 34.1994 9.69892 34.1602 9.37156C34.0444 9.21866 33.8256 9.38296 33.8084 9.52467C33.6427 9.93759 33.417 10.4341 32.8992 10.5385C32.3728 10.6369 31.7899 10.6445 31.2759 10.5014C30.9716 10.4096 31.056 10.0501 31.0272 9.82114C31.0171 9.19084 31.0241 8.56042 31.0217 7.93008C31.4231 7.96296 31.8494 7.89541 32.2356 8.00884C32.5267 8.12763 32.5452 8.45714 32.6579 8.69129C32.758 8.79444 33.0149 8.74862 32.9414 8.57209C32.931 7.99087 32.9621 7.4013 32.9258 6.8253C32.781 6.71701 32.5844 6.84873 32.5893 7.01155C32.5566 7.31533 32.2674 7.57273 31.9298 7.54531C31.6274 7.56045 31.3244 7.56109 31.0216 7.56917C31.0216 6.75801 31.0216 5.94686 31.0216 5.1357C31.5488 5.15211 32.0925 5.09908 32.6108 5.18493C33.0369 5.34936 33.0977 5.82705 33.1978 6.18785C33.2896 6.31093 33.622 6.28931 33.5436 6.08725C33.5276 5.65288 33.5753 5.20565 33.5201 4.77917C32.5324 4.74334 31.5319 4.77435 30.5393 4.76386C30.0977 4.77815 29.6409 4.73501 29.208 4.78569Z" fill="white"/>
<path d="M35.2949 4.71576C35.223 4.87796 35.3565 5.05714 35.5642 5.03174C35.7702 5.04115 36.1062 5.08612 36.0754 5.33144C36.1292 6.97267 36.1061 8.61584 36.0837 10.2576C36.147 10.5235 35.7549 10.5582 35.5486 10.5763C35.3737 10.5687 35.2241 10.6871 35.2823 10.8471C35.4296 10.9906 35.745 10.8716 35.957 10.9105C36.6503 10.9008 37.3531 10.9297 38.0404 10.896C38.1462 10.7838 38.0529 10.5776 37.8659 10.5922C37.6365 10.5506 37.2301 10.5366 37.23 10.2597C37.1958 9.57322 37.2221 8.88519 37.2137 8.1981C37.4955 8.1981 37.7773 8.1981 38.059 8.1981C38.6223 9.01957 39.2483 9.88635 39.8783 10.6699C40.1179 10.9805 40.5938 10.8972 40.9594 10.9129C41.106 10.8869 41.3708 10.9524 41.4272 10.7935C41.3521 10.6101 41.0925 10.5434 40.972 10.3811C40.2939 9.73284 39.7964 8.9573 39.2294 8.23548C39.1372 8.12501 38.9968 7.99382 39.2263 7.95312C39.9605 7.6593 40.4924 6.98563 40.4441 6.26882C40.4862 5.75782 40.2002 5.24529 39.6941 4.97938C39.0055 4.61044 38.0144 4.72742 37.2452 4.69499C36.6025 4.70217 35.9503 4.67521 35.3136 4.70839L35.2949 4.71576ZM37.7543 5.07121C38.1534 5.06138 38.7267 5.07866 39.0055 5.35998C39.4281 5.79428 39.3636 6.41585 39.2751 6.94364C39.1803 7.34791 38.7215 7.7572 38.2183 7.80218C37.8889 7.83862 37.5474 7.85445 37.2137 7.83285C37.1807 6.90902 37.1984 5.98446 37.1937 5.06031C37.3805 5.06393 37.5674 5.06759 37.7543 5.07121Z" fill="white"/>
</g>
<defs>
<linearGradient id="paint0_linear_347_102" x1="7.54656" y1="6.52211" x2="39.5077" y2="39.1976" gradientUnits="userSpaceOnUse">
<stop stop-color="#26C0E4"/>
<stop offset="1" stop-color="#009BE6"/>
</linearGradient>
<radialGradient id="paint1_radial_347_102" cx="0" cy="0" r="1" gradientUnits="userSpaceOnUse" gradientTransform="translate(37.1203 17.5302) rotate(-46.427) scale(3.2732 5.40643)">
<stop stop-color="#005E96"/>
<stop offset="0.552908" stop-color="#006BAB"/>
<stop offset="1" stop-color="#16AFE5"/>
</radialGradient>
<radialGradient id="paint2_radial_347_102" cx="0" cy="0" r="1" gradientUnits="userSpaceOnUse" gradientTransform="translate(17.3997 10.2065) rotate(43.573) scale(1.53425 2.44015)">
<stop stop-color="#0069A4"/>
<stop offset="0.627236" stop-color="#006BAB"/>
<stop offset="1" stop-color="#16B0E5"/>
</radialGradient>
<radialGradient id="paint3_radial_347_102" cx="0" cy="0" r="1" gradientUnits="userSpaceOnUse" gradientTransform="translate(9.70157 25.5179) rotate(23.3813) scale(3.97261 7.79376)">
<stop stop-color="#0068AF"/>
<stop offset="0.653702" stop-color="#006BAB"/>
<stop offset="1" stop-color="#16B0E5"/>
</radialGradient>
<radialGradient id="paint4_radial_347_102" cx="0" cy="0" r="1" gradientUnits="userSpaceOnUse" gradientTransform="translate(31.678 39.4328) rotate(47.6771) scale(9.53276 55.3237)">
<stop stop-color="#005E96"/>
<stop offset="0.300732" stop-color="#006BAB"/>
<stop offset="1" stop-color="#16AFE5"/>
</radialGradient>
<radialGradient id="paint5_radial_347_102" cx="0" cy="0" r="1" gradientUnits="userSpaceOnUse" gradientTransform="translate(33.4555 44.7705) rotate(-25.6463) scale(43.1118 5.16366)">
<stop stop-color="#53E1FF"/>
<stop offset="1" stop-color="#53E1FF" stop-opacity="0"/>
</radialGradient>
<radialGradient id="paint6_radial_347_102" cx="0" cy="0" r="1" gradientUnits="userSpaceOnUse" gradientTransform="translate(44.7176 25.8904) rotate(-35.5378) scale(11.3975 4.62908)">
<stop stop-color="#53E1FF"/>
<stop offset="1" stop-color="#53E1FF" stop-opacity="0"/>
</radialGradient>
<radialGradient id="paint7_radial_347_102" cx="0" cy="0" r="1" gradientUnits="userSpaceOnUse" gradientTransform="translate(0.504559 26.266) rotate(2.31082) scale(0.910539 2.39776)">
<stop stop-color="#53E1FF"/>
<stop offset="1" stop-color="#53E1FF" stop-opacity="0"/>
</radialGradient>
<radialGradient id="paint8_radial_347_102" cx="0" cy="0" r="1" gradientUnits="userSpaceOnUse" gradientTransform="translate(36.1879 24.2066) rotate(45.0617) scale(5.66194 10.0586)">
<stop stop-color="#08A3E6"/>
<stop offset="0.759185" stop-color="#08A3E6"/>
<stop offset="1" stop-color="#016EAD"/>
</radialGradient>
<clipPath id="clip0_347_102">
<rect width="48" height="48.1873" fill="white"/>
</clipPath>
</defs>
</svg>
