<svg width="48" height="48" viewBox="0 0 48 48" fill="none" xmlns="http://www.w3.org/2000/svg">
<g clip-path="url(#clip0_347_151)">
<path d="M14.8987 15.6162H14.5517C14.5312 15.5163 14.4953 15.4287 14.444 15.3531C14.3936 15.2775 14.332 15.2141 14.2592 15.1628C14.1874 15.1105 14.1076 15.0714 14.02 15.0452C13.9323 15.0191 13.8408 15.0061 13.7457 15.0061C13.5722 15.0061 13.415 15.0499 13.2741 15.1376C13.1342 15.2253 13.0227 15.3545 12.9397 15.5252C12.8576 15.6959 12.8165 15.9054 12.8165 16.1535C12.8165 16.4017 12.8576 16.6111 12.9397 16.7818C13.0227 16.9525 13.1342 17.0817 13.2741 17.1694C13.415 17.2571 13.5722 17.301 13.7457 17.301C13.8408 17.301 13.9323 17.2879 14.02 17.2618C14.1076 17.2357 14.1874 17.1969 14.2592 17.1456C14.332 17.0934 14.3936 17.0295 14.444 16.9539C14.4953 16.8774 14.5312 16.7897 14.5517 16.6909H14.8987C14.8726 16.8373 14.825 16.9684 14.756 17.0841C14.687 17.1997 14.6011 17.2982 14.4985 17.3793C14.3959 17.4596 14.2807 17.5207 14.1529 17.5626C14.026 17.6046 13.8903 17.6256 13.7457 17.6256C13.5013 17.6256 13.2839 17.5659 13.0936 17.4465C12.9033 17.3271 12.7536 17.1573 12.6444 16.9371C12.5353 16.717 12.4807 16.4558 12.4807 16.1535C12.4807 15.8513 12.5353 15.59 12.6444 15.3699C12.7536 15.1497 12.9033 14.9799 13.0936 14.8605C13.2839 14.7411 13.5013 14.6814 13.7457 14.6814C13.8903 14.6814 14.026 14.7024 14.1529 14.7444C14.2807 14.7864 14.3959 14.8479 14.4985 14.9291C14.6011 15.0093 14.687 15.1073 14.756 15.223C14.825 15.3377 14.8726 15.4688 14.8987 15.6162ZM15.4147 17.5864V15.4371H15.7338V15.7617H15.7562C15.7954 15.6553 15.8663 15.5691 15.9689 15.5028C16.0715 15.4366 16.1872 15.4035 16.3159 15.4035C16.3402 15.4035 16.3705 15.4039 16.4069 15.4049C16.4433 15.4058 16.4708 15.4072 16.4894 15.4091V15.7449C16.4782 15.7421 16.4526 15.7379 16.4125 15.7323C16.3733 15.7258 16.3318 15.7225 16.2879 15.7225C16.1834 15.7225 16.0902 15.7444 16.0081 15.7883C15.9269 15.8312 15.8625 15.8909 15.815 15.9674C15.7683 16.043 15.745 16.1293 15.745 16.2263V17.5864H15.4147ZM17.7166 17.6312C17.5095 17.6312 17.3309 17.5855 17.1807 17.4941C17.0314 17.4017 16.9162 17.273 16.8351 17.1079C16.7548 16.9418 16.7147 16.7487 16.7147 16.5285C16.7147 16.3084 16.7548 16.1143 16.8351 15.9464C16.9162 15.7776 17.0291 15.646 17.1737 15.5518C17.3192 15.4566 17.489 15.4091 17.6831 15.4091C17.795 15.4091 17.9056 15.4277 18.0147 15.465C18.1238 15.5024 18.2232 15.563 18.3128 15.647C18.4023 15.73 18.4737 15.8401 18.5269 15.9772C18.58 16.1143 18.6066 16.2832 18.6066 16.4838V16.6237H16.9498V16.3382H18.2708C18.2708 16.2169 18.2465 16.1087 18.198 16.0136C18.1504 15.9184 18.0823 15.8433 17.9937 15.7883C17.906 15.7332 17.8025 15.7057 17.6831 15.7057C17.5515 15.7057 17.4377 15.7384 17.3416 15.8037C17.2465 15.868 17.1732 15.952 17.1219 16.0556C17.0706 16.1591 17.045 16.2701 17.045 16.3886V16.5789C17.045 16.7412 17.0729 16.8788 17.1289 16.9917C17.1858 17.1037 17.2647 17.189 17.3654 17.2478C17.4662 17.3056 17.5832 17.3345 17.7166 17.3345C17.8034 17.3345 17.8818 17.3224 17.9517 17.2982C18.0226 17.273 18.0837 17.2357 18.135 17.1862C18.1864 17.1358 18.226 17.0733 18.254 16.9987L18.573 17.0883C18.5394 17.1965 18.483 17.2916 18.4037 17.3737C18.3244 17.4549 18.2265 17.5183 18.1099 17.564C17.9932 17.6088 17.8622 17.6312 17.7166 17.6312ZM19.7415 17.6368C19.6053 17.6368 19.4817 17.6111 19.3707 17.5598C19.2596 17.5076 19.1715 17.4325 19.1062 17.3345C19.0409 17.2357 19.0082 17.1163 19.0082 16.9763C19.0082 16.8532 19.0325 16.7534 19.081 16.6769C19.1295 16.5994 19.1943 16.5388 19.2755 16.4949C19.3567 16.4511 19.4462 16.4185 19.5442 16.397C19.6431 16.3746 19.7424 16.3569 19.8422 16.3438C19.9728 16.327 20.0787 16.3144 20.1599 16.306C20.242 16.2967 20.3017 16.2813 20.339 16.2599C20.3772 16.2384 20.3964 16.2011 20.3964 16.1479V16.1367C20.3964 15.9987 20.3586 15.8914 20.283 15.8149C20.2084 15.7384 20.095 15.7001 19.943 15.7001C19.7853 15.7001 19.6617 15.7346 19.5722 15.8037C19.4826 15.8727 19.4196 15.9464 19.3832 16.0248L19.0698 15.9128C19.1258 15.7822 19.2004 15.6805 19.2937 15.6078C19.3879 15.5341 19.4905 15.4828 19.6015 15.4538C19.7135 15.424 19.8236 15.4091 19.9318 15.4091C20.0008 15.4091 20.0801 15.4175 20.1697 15.4343C20.2602 15.4501 20.3474 15.4832 20.4313 15.5336C20.5162 15.584 20.5867 15.66 20.6426 15.7617C20.6986 15.8634 20.7266 15.9996 20.7266 16.1703V17.5864H20.3964V17.2954H20.3796C20.3572 17.342 20.3199 17.3919 20.2676 17.4451C20.2154 17.4983 20.1459 17.5435 20.0591 17.5808C19.9724 17.6181 19.8665 17.6368 19.7415 17.6368ZM19.7919 17.3401C19.9225 17.3401 20.0325 17.3145 20.1221 17.2632C20.2126 17.2119 20.2807 17.1456 20.3264 17.0645C20.373 16.9833 20.3964 16.898 20.3964 16.8084V16.5061C20.3824 16.5229 20.3516 16.5383 20.304 16.5523C20.2574 16.5654 20.2033 16.577 20.1417 16.5873C20.081 16.5966 20.0218 16.605 19.964 16.6125C19.9071 16.619 19.8609 16.6246 19.8254 16.6293C19.7396 16.6405 19.6594 16.6587 19.5848 16.6839C19.5111 16.7081 19.4513 16.745 19.4056 16.7944C19.3609 16.8429 19.3385 16.9091 19.3385 16.9931C19.3385 17.1079 19.3809 17.1946 19.4658 17.2534C19.5516 17.3112 19.6603 17.3401 19.7919 17.3401ZM22.2641 15.4371V15.7169H21.1503V15.4371H22.2641ZM21.4749 14.9221H21.8051V16.9707C21.8051 17.064 21.8187 17.134 21.8457 17.1806C21.8737 17.2263 21.9092 17.2571 21.9521 17.273C21.9959 17.2879 22.0421 17.2954 22.0906 17.2954C22.127 17.2954 22.1568 17.2935 22.1802 17.2898C22.2035 17.2851 22.2221 17.2814 22.2361 17.2786L22.3033 17.5752C22.2809 17.5836 22.2497 17.592 22.2095 17.6004C22.1694 17.6097 22.1186 17.6144 22.057 17.6144C21.9637 17.6144 21.8723 17.5944 21.7828 17.5542C21.6941 17.5141 21.6204 17.453 21.5617 17.3709C21.5038 17.2888 21.4749 17.1853 21.4749 17.0603V14.9221ZM23.639 17.6312C23.4319 17.6312 23.2532 17.5855 23.103 17.4941C22.9538 17.4017 22.8385 17.273 22.7574 17.1079C22.6772 16.9418 22.637 16.7487 22.637 16.5285C22.637 16.3084 22.6772 16.1143 22.7574 15.9464C22.8385 15.7776 22.9514 15.646 23.096 15.5518C23.2416 15.4566 23.4113 15.4091 23.6054 15.4091C23.7173 15.4091 23.8279 15.4277 23.937 15.465C24.0462 15.5024 24.1455 15.563 24.2351 15.647C24.3246 15.73 24.396 15.8401 24.4492 15.9772C24.5024 16.1143 24.5289 16.2832 24.5289 16.4838V16.6237H22.8721V16.3382H24.1931C24.1931 16.2169 24.1688 16.1087 24.1203 16.0136C24.0728 15.9184 24.0047 15.8433 23.916 15.7883C23.8283 15.7332 23.7248 15.7057 23.6054 15.7057C23.4738 15.7057 23.36 15.7384 23.2639 15.8037C23.1688 15.868 23.0956 15.952 23.0442 16.0556C22.9929 16.1591 22.9673 16.2701 22.9673 16.3886V16.5789C22.9673 16.7412 22.9953 16.8788 23.0512 16.9917C23.1082 17.1037 23.187 17.189 23.2877 17.2478C23.3885 17.3056 23.5056 17.3345 23.639 17.3345C23.7257 17.3345 23.8041 17.3224 23.8741 17.2982C23.945 17.273 24.0061 17.2357 24.0574 17.1862C24.1087 17.1358 24.1483 17.0733 24.1763 16.9987L24.4954 17.0883C24.4618 17.1965 24.4053 17.2916 24.326 17.3737C24.2467 17.4549 24.1488 17.5183 24.0322 17.564C23.9156 17.6088 23.7845 17.6312 23.639 17.6312ZM25.8429 17.6312C25.6638 17.6312 25.5057 17.586 25.3685 17.4955C25.2314 17.404 25.1241 17.2753 25.0467 17.1093C24.9693 16.9423 24.9305 16.745 24.9305 16.5173C24.9305 16.2916 24.9693 16.0957 25.0467 15.9296C25.1241 15.7636 25.2319 15.6353 25.3699 15.5448C25.508 15.4543 25.6675 15.4091 25.8485 15.4091C25.9884 15.4091 26.099 15.4324 26.1801 15.479C26.2622 15.5247 26.3247 15.577 26.3677 15.6358C26.4115 15.6936 26.4456 15.7412 26.4698 15.7785H26.4978V14.7206H26.828V17.5864H26.509V17.2562H26.4698C26.4456 17.2954 26.411 17.3448 26.3663 17.4045C26.3215 17.4633 26.2576 17.516 26.1746 17.5626C26.0915 17.6083 25.981 17.6312 25.8429 17.6312ZM25.8877 17.3345C26.0202 17.3345 26.1321 17.3 26.2235 17.231C26.315 17.161 26.3845 17.0645 26.432 16.9413C26.4796 16.8173 26.5034 16.6741 26.5034 16.5117C26.5034 16.3513 26.4801 16.2109 26.4334 16.0905C26.3868 15.9693 26.3178 15.875 26.2263 15.8079C26.1349 15.7398 26.022 15.7057 25.8877 15.7057C25.7478 15.7057 25.6311 15.7416 25.5379 15.8135C25.4455 15.8844 25.376 15.9809 25.3294 16.1031C25.2836 16.2244 25.2608 16.3606 25.2608 16.5117C25.2608 16.6647 25.2841 16.8037 25.3308 16.9287C25.3783 17.0528 25.4483 17.1517 25.5407 17.2254C25.6339 17.2982 25.7496 17.3345 25.8877 17.3345ZM28.6318 17.5864V14.7206H28.962V15.7785H28.99C29.0143 15.7412 29.0478 15.6936 29.0908 15.6358C29.1346 15.577 29.1971 15.5247 29.2783 15.479C29.3604 15.4324 29.4714 15.4091 29.6113 15.4091C29.7923 15.4091 29.9518 15.4543 30.0899 15.5448C30.2279 15.6353 30.3357 15.7636 30.4131 15.9296C30.4906 16.0957 30.5293 16.2916 30.5293 16.5173C30.5293 16.745 30.4906 16.9423 30.4131 17.1093C30.3357 17.2753 30.2284 17.404 30.0913 17.4955C29.9541 17.586 29.796 17.6312 29.6169 17.6312C29.4788 17.6312 29.3683 17.6083 29.2853 17.5626C29.2022 17.516 29.1383 17.4633 29.0936 17.4045C29.0488 17.3448 29.0143 17.2954 28.99 17.2562H28.9508V17.5864H28.6318ZM28.9564 16.5117C28.9564 16.6741 28.9802 16.8173 29.0278 16.9413C29.0754 17.0645 29.1449 17.161 29.2363 17.231C29.3277 17.3 29.4397 17.3345 29.5721 17.3345C29.7102 17.3345 29.8254 17.2982 29.9178 17.2254C30.0111 17.1517 30.081 17.0528 30.1277 16.9287C30.1752 16.8037 30.199 16.6647 30.199 16.5117C30.199 16.3606 30.1757 16.2244 30.1291 16.1031C30.0834 15.9809 30.0139 15.8844 29.9206 15.8135C29.8282 15.7416 29.7121 15.7057 29.5721 15.7057C29.4378 15.7057 29.3249 15.7398 29.2335 15.8079C29.1421 15.875 29.073 15.9693 29.0264 16.0905C28.9797 16.2109 28.9564 16.3513 28.9564 16.5117ZM31.1702 18.3924C31.1142 18.3924 31.0643 18.3878 31.0204 18.3784C30.9766 18.3701 30.9463 18.3617 30.9295 18.3533L31.0134 18.0622C31.0937 18.0827 31.1646 18.0902 31.2261 18.0846C31.2877 18.079 31.3423 18.0515 31.3899 18.002C31.4384 17.9535 31.4827 17.8747 31.5228 17.7655L31.5844 17.5976L30.7895 15.4371H31.1478L31.7411 17.1498H31.7635L32.3568 15.4371H32.715L31.8027 17.8999C31.7616 18.0109 31.7108 18.1028 31.6501 18.1755C31.5895 18.2492 31.5191 18.3038 31.4388 18.3393C31.3595 18.3747 31.27 18.3924 31.1702 18.3924ZM12.5926 22.5864V19.7206H14.311V20.0284H12.9397V20.9968H14.1823V21.3046H12.9397V22.5864H12.5926ZM15.4931 22.6368C15.3569 22.6368 15.2333 22.6111 15.1223 22.5598C15.0113 22.5076 14.9231 22.4325 14.8578 22.3345C14.7925 22.2357 14.7599 22.1163 14.7599 21.9763C14.7599 21.8532 14.7841 21.7534 14.8326 21.6769C14.8811 21.5994 14.946 21.5388 15.0271 21.4949C15.1083 21.4511 15.1978 21.4185 15.2958 21.397C15.3947 21.3746 15.494 21.3569 15.5939 21.3438C15.7245 21.327 15.8303 21.3144 15.9115 21.306C15.9936 21.2967 16.0533 21.2813 16.0906 21.2599C16.1289 21.2384 16.148 21.2011 16.148 21.1479V21.1367C16.148 20.9987 16.1102 20.8914 16.0346 20.8149C15.96 20.7384 15.8467 20.7001 15.6946 20.7001C15.537 20.7001 15.4133 20.7346 15.3238 20.8037C15.2342 20.8727 15.1713 20.9464 15.1349 21.0248L14.8214 20.9128C14.8774 20.7822 14.952 20.6805 15.0453 20.6078C15.1395 20.5341 15.2422 20.4828 15.3532 20.4538C15.4651 20.424 15.5752 20.4091 15.6834 20.4091C15.7524 20.4091 15.8317 20.4175 15.9213 20.4343C16.0118 20.4501 16.099 20.4832 16.183 20.5336C16.2679 20.584 16.3383 20.66 16.3943 20.7617C16.4502 20.8634 16.4782 20.9996 16.4782 21.1703V22.5864H16.148V22.2954H16.1312C16.1088 22.342 16.0715 22.3919 16.0193 22.4451C15.967 22.4983 15.8975 22.5435 15.8108 22.5808C15.724 22.6181 15.6181 22.6368 15.4931 22.6368ZM15.5435 22.3401C15.6741 22.3401 15.7842 22.3145 15.8737 22.2632C15.9642 22.2119 16.0323 22.1456 16.078 22.0645C16.1247 21.9833 16.148 21.898 16.148 21.8084V21.5061C16.134 21.5229 16.1032 21.5383 16.0556 21.5523C16.009 21.5654 15.9549 21.577 15.8933 21.5873C15.8327 21.5966 15.7734 21.605 15.7156 21.6125C15.6587 21.619 15.6125 21.6246 15.5771 21.6293C15.4912 21.6405 15.411 21.6587 15.3364 21.6839C15.2627 21.7081 15.203 21.745 15.1573 21.7944C15.1125 21.8429 15.0901 21.9091 15.0901 21.9931C15.0901 22.1079 15.1325 22.1946 15.2174 22.2534C15.3033 22.3112 15.4119 22.3401 15.5435 22.3401ZM17.4112 19.7206V22.5864H17.081V19.7206H17.4112ZM17.9545 22.5864V22.3345L19.1747 20.7673V20.7449H17.9937V20.4371H19.6001V20.7001L18.4135 22.2562V22.2786H19.6393V22.5864H17.9545ZM20.7805 22.6368C20.6443 22.6368 20.5207 22.6111 20.4097 22.5598C20.2986 22.5076 20.2105 22.4325 20.1452 22.3345C20.0799 22.2357 20.0472 22.1163 20.0472 21.9763C20.0472 21.8532 20.0715 21.7534 20.12 21.6769C20.1685 21.5994 20.2333 21.5388 20.3145 21.4949C20.3957 21.4511 20.4852 21.4185 20.5832 21.397C20.6821 21.3746 20.7814 21.3569 20.8812 21.3438C21.0118 21.327 21.1177 21.3144 21.1989 21.306C21.281 21.2967 21.3407 21.2813 21.378 21.2599C21.4162 21.2384 21.4354 21.2011 21.4354 21.1479V21.1367C21.4354 20.9987 21.3976 20.8914 21.322 20.8149C21.2474 20.7384 21.134 20.7001 20.982 20.7001C20.8243 20.7001 20.7007 20.7346 20.6112 20.8037C20.5216 20.8727 20.4586 20.9464 20.4222 21.0248L20.1088 20.9128C20.1648 20.7822 20.2394 20.6805 20.3327 20.6078C20.4269 20.5341 20.5295 20.4828 20.6405 20.4538C20.7525 20.424 20.8626 20.4091 20.9708 20.4091C21.0398 20.4091 21.1191 20.4175 21.2087 20.4343C21.2992 20.4501 21.3864 20.4832 21.4703 20.5336C21.5552 20.584 21.6257 20.66 21.6816 20.7617C21.7376 20.8634 21.7656 20.9996 21.7656 21.1703V22.5864H21.4354V22.2954H21.4186C21.3962 22.342 21.3589 22.3919 21.3066 22.4451C21.2544 22.4983 21.1849 22.5435 21.0981 22.5808C21.0114 22.6181 20.9055 22.6368 20.7805 22.6368ZM20.8309 22.3401C20.9615 22.3401 21.0715 22.3145 21.1611 22.2632C21.2516 22.2119 21.3197 22.1456 21.3654 22.0645C21.412 21.9833 21.4354 21.898 21.4354 21.8084V21.5061C21.4214 21.5229 21.3906 21.5383 21.343 21.5523C21.2964 21.5654 21.2423 21.577 21.1807 21.5873C21.12 21.5966 21.0608 21.605 21.003 21.6125C20.9461 21.619 20.8999 21.6246 20.8644 21.6293C20.7786 21.6405 20.6984 21.6587 20.6238 21.6839C20.5501 21.7081 20.4904 21.745 20.4446 21.7944C20.3999 21.8429 20.3775 21.9091 20.3775 21.9931C20.3775 22.1079 20.4199 22.1946 20.5048 22.2534C20.5906 22.3112 20.6993 22.3401 20.8309 22.3401ZM22.3684 22.5864V20.4371H22.6874V20.7617H22.7098C22.749 20.6553 22.8199 20.5691 22.9225 20.5028C23.0251 20.4366 23.1408 20.4035 23.2695 20.4035C23.2938 20.4035 23.3241 20.4039 23.3605 20.4049C23.3969 20.4058 23.4244 20.4072 23.4431 20.4091V20.7449C23.4319 20.7421 23.4062 20.7379 23.3661 20.7323C23.3269 20.7258 23.2854 20.7225 23.2416 20.7225C23.1371 20.7225 23.0438 20.7444 22.9617 20.7883C22.8805 20.8312 22.8162 20.8909 22.7686 20.9674C22.7219 21.043 22.6986 21.1293 22.6986 21.2263V22.5864H22.3684ZM24.9876 22.5864V19.7206H26.7059V20.0284H25.3346V20.9968H26.5772V21.3046H25.3346V22.5864H24.9876ZM27.2052 22.5864V22.3345L28.75 20.0284H27.1884V19.7206H29.1642V19.9725L27.6194 22.2786H29.181V22.5864H27.2052Z" fill="black"/>
<path d="M22.2821 0.032889C15.0299 0.108415 7.93493 3.85956 4.1567 9.97914C-1.85359 19.1206 -1.39452 32.1772 6.02784 40.4346C10.7903 45.7164 18.1534 48.4245 25.29 47.9278C33.0976 47.7773 40.6894 43.3545 44.3562 36.5523C47.6064 30.9771 48.5237 24.242 47.2011 17.97C45.8177 9.7054 39.0473 2.47863 30.7139 0.578987C27.9408 0.0786085 25.0951 0.0107911 22.2821 0.032889Z" fill="url(#paint0_radial_347_151)"/>
<path opacity="0.2" d="M0.964559 30.6649C10.0091 58.7294 35.9702 43.5531 43.7555 9.69408C33.6164 -3.77467 14.0258 -1.47834 6.2186 7.59752C1.65018 12.0095 -1.45244 22.1194 0.964559 30.6649Z" fill="url(#paint1_linear_347_151)"/>
<path opacity="0.4" d="M16.1511 23.904C17.3292 16.4831 25.3021 12.8212 17.1339 5.14209C12.4458 9.07155 10.4449 14.4026 5.1963 16.8552C4.48852 20.1099 3.93988 24.7787 8.90172 26.5284C10.6682 27.1513 14.1361 26.8233 16.1511 23.904Z" fill="#010101"/>
<g opacity="0.4">
<path d="M5.74117 16.5747C4.61921 17.4893 4.91787 18.4855 5.86983 17.6942C8.89117 15.1827 7.09533 15.4708 5.74117 16.5747ZM4.7627 30.1226C4.13338 31.3699 5.87937 33.1175 6.6225 32.07C7.21454 31.2356 5.12254 29.4094 4.7627 30.1226ZM11.9439 16.2718C7.96262 26.8478 3.98131 37.4238 11.9439 16.2718ZM7.66779 22.9779C6.27703 23.8126 7.32772 26.8594 8.24807 25.4522C9.14127 24.0866 8.99431 22.1819 7.66779 22.9779ZM5.81642 20.4132C4.81747 21.7372 5.11414 25.0722 6.47196 21.1564C8.73145 19.4195 7.95538 18.8047 5.81642 20.4132ZM10.1375 13.788C7.23613 21.4002 17.3382 20.7802 17.8681 14.9075C18.1893 11.3475 11.5224 10.1547 10.1375 13.788Z" fill="url(#paint2_linear_347_151)"/>
</g>
<path d="M28.8503 22.4896L24.9898 23.136C24.9898 23.136 25.1496 20.1801 25.1357 19.0075C25.1218 17.8349 22.5709 17.3467 22.5552 18.6804C22.5396 20.0141 22.559 23.8693 22.559 23.8693C21.8896 24.2225 20.4829 24.1506 19.6339 24.6136C18.5728 25.1922 18.2539 26.5036 19.2481 27.2215C19.8699 27.6358 22.5801 26.2392 22.5801 26.2392C22.5801 26.2392 22.2545 33.74 22.4343 37.5435C22.5066 38.0503 23.1962 38.465 25.1413 38.715C30.1657 39.0393 36.5656 39.6537 40.522 40.0876C41.1654 39.6172 43.8441 36.3505 42.0727 35.3991C36.8658 36.7002 24.93 35.92 24.93 35.92L25.0148 25.8767L28.6735 24.9075C28.6735 24.9075 27.983 30.4326 29.6064 32.4915C31.6405 32.5172 30.933 29.4039 31.1177 28.1302C31.1439 26.0007 31.2177 23.7808 31.2177 23.7808L36.2212 23.381C36.2212 23.381 34.8764 27.2888 34.5251 29.3053C34.9084 30.1462 35.5722 29.9617 36.2454 29.5354C36.6794 29.0286 40.0804 23.0918 39.262 21.1034C38.789 20.493 30.9754 21.9878 30.9754 21.9878C30.9754 21.9878 31.0329 14.715 31.036 14.0767C31.0391 13.4384 28.9567 13.1653 28.9386 14.5978C28.9204 16.0303 28.8503 22.4896 28.8503 22.4896Z" fill="#FFFFFE"/>
<path d="M11.9181 15.2156C11.903 16.9221 11.8899 21.5257 11.8899 21.5257C11.8899 21.5257 9.44445 21.5877 7.78956 21.5876C6.62609 21.5789 5.83758 24.0945 7.90594 23.8182C9.10588 23.1484 11.809 23.5144 11.809 23.5144L11.8817 31.3164C11.8817 31.3164 7.21298 31.8712 6.40576 33.7273C6.41936 36.1214 8.89112 34.8494 9.87065 34.4663C11.2051 33.9445 12.806 33.3798 14.0503 32.9398C15.6722 32.4385 17.5932 32.0752 18.7631 31.268C19.9656 29.0135 14.2023 30.8427 14.2023 30.8427L14.2224 23.2909C14.2224 23.2909 16.2373 23.3075 18.1997 23.2721C19.1718 22.7676 18.9629 21.7182 18.4238 21.6002C16.3819 21.5732 14.2087 21.5723 14.2087 21.5723C14.2087 21.5723 14.2221 17.0161 14.2199 15.3246C14.218 13.6332 11.9331 13.5091 11.9181 15.2156Z" fill="#FFFFFE"/>
<path d="M9.09544 6.03205C8.75344 6.06643 8.36895 5.97429 8.04991 6.10845C7.9326 6.32948 8.28442 6.37061 8.42806 6.3773C8.61682 6.41245 8.94203 6.45749 8.86777 6.72691C8.90624 8.39973 8.92808 10.085 8.85132 11.7515C8.64129 11.9786 8.24979 11.8347 8.03931 12.041C7.95337 12.2848 8.32975 12.2418 8.47167 12.2521C10.0389 12.2657 11.6096 12.277 13.1751 12.2408C13.3226 11.7555 13.3705 11.2166 13.4914 10.7143C13.4726 10.4939 13.1366 10.6034 13.1027 10.7716C12.8977 11.2035 12.6432 11.7323 12.0979 11.8029C11.5206 11.8792 10.8984 11.9076 10.3307 11.7721C10.0838 11.6844 9.96843 11.4358 10.0279 11.1874C10.0279 10.5272 10.0279 9.86709 10.0279 9.20693C10.4892 9.24149 11 9.13085 11.432 9.32447C11.6923 9.44893 11.7144 9.74587 11.8373 9.9621C11.9649 10.0595 12.2377 10.0216 12.1491 9.80491C12.1326 9.22703 12.1818 8.634 12.125 8.06538C11.9168 7.97427 11.75 8.14899 11.7394 8.33866C11.6387 8.80658 11.0719 8.84969 10.6697 8.84993C10.4712 8.7914 9.99229 8.9998 10.028 8.71037C10.028 7.93269 10.028 7.15498 10.028 6.3773C10.6163 6.418 11.2309 6.34005 11.8041 6.46988C12.2195 6.63387 12.2948 7.10233 12.4429 7.45716C12.5626 7.572 12.8691 7.53973 12.7759 7.31317C12.7591 6.89203 12.8087 6.45566 12.7518 6.04381C11.5382 6.0138 10.3129 6.03766 9.09544 6.03205Z" fill="#FFFFFE"/>
<path d="M16.575 5.96892C15.7628 7.79665 14.8477 9.65111 13.992 11.4548C13.8308 11.7324 13.6879 11.8787 13.3932 11.9793C13.2261 12.0984 13.3935 12.304 13.5679 12.254C14.1316 12.2487 14.7097 12.3085 15.2658 12.2217C15.4492 12.0847 15.194 11.8939 15.0428 11.8809C14.7887 11.8021 14.7446 11.5168 14.8696 11.3153C14.9934 10.9521 15.1438 10.5984 15.2854 10.2413C16.13 10.2413 16.9747 10.2413 17.8194 10.2413C17.9911 10.7217 18.2404 11.1934 18.3331 11.6884C18.234 11.9384 17.8975 11.8711 17.732 12.0278C17.6248 12.242 17.9307 12.2731 18.0755 12.257C18.7566 12.2469 19.4499 12.3079 20.1243 12.2232C20.3171 12.1118 20.0909 11.898 19.933 11.9088C19.4038 11.6982 19.3541 11.0543 19.1199 10.6157C18.4921 9.08173 17.8902 7.53786 17.277 5.99831C17.084 5.93644 16.6253 5.90848 16.4296 5.96889L16.575 5.96892ZM16.6819 7.13838C16.9985 8.01273 17.3574 8.91707 17.6326 9.77996C16.9217 9.79627 16.2101 9.79827 15.4993 9.77701C15.8784 8.87889 16.2691 7.98507 16.6654 7.09429L16.6819 7.13838Z" fill="#FFFFFE"/>
<path d="M21.4653 6.0335C21.2107 6.07326 20.8767 5.96438 20.6656 6.12457C20.5923 6.37567 20.981 6.3533 21.1403 6.38902C21.3521 6.40745 21.5875 6.51969 21.5266 6.75626C21.5764 8.40703 21.5944 10.0621 21.5126 11.7118C21.3628 12.0319 20.8263 11.7738 20.6593 12.0703C20.6187 12.3093 20.9941 12.2375 21.1451 12.2582C21.9547 12.2448 22.7751 12.3074 23.5789 12.2231C23.763 12.1403 23.6011 11.9044 23.4291 11.9322C23.169 11.899 22.7709 11.8804 22.7335 11.5664C22.6752 10.8992 22.7236 10.227 22.724 9.55803C23.0316 9.54987 23.3391 9.54202 23.6467 9.53452C24.2707 10.3713 24.8024 11.2844 25.508 12.0585C25.8538 12.3645 26.3855 12.2275 26.8156 12.2569C26.9441 12.2723 27.262 12.2279 27.0853 12.0644C26.0613 11.3498 25.3764 10.31 24.6073 9.38465C25.1282 9.1288 25.6931 8.81483 25.9212 8.271C26.2067 7.64486 26.0635 6.80602 25.4228 6.41693C24.5884 5.90849 23.5327 6.07949 22.5899 6.0326C22.2151 6.03142 21.8401 6.03175 21.4653 6.0335ZM23.317 6.41253C23.8616 6.36569 24.3657 6.49605 24.6054 7.00903C24.8314 7.54942 24.7787 8.22563 24.4603 8.72502C24.0839 9.24762 23.4824 9.16011 22.8975 9.179C22.7978 9.18254 22.6648 9.1874 22.7161 9.05119C22.699 8.17071 22.7203 7.29011 22.7256 6.40961C22.9228 6.41079 23.1199 6.41135 23.317 6.41253Z" fill="#FFFFFE"/>
<path d="M30.0811 6.04237C29.0781 6.06192 28.0591 6.01927 27.0661 6.07763C26.9807 6.51589 26.8119 6.95976 26.8013 7.40432C26.9519 7.58435 27.218 7.37128 27.276 7.20948C27.5024 6.76951 27.9492 6.38569 28.5097 6.41116C28.8389 6.39486 29.1686 6.38795 29.4979 6.3759C29.4791 8.14961 29.5405 9.92773 29.4507 11.6987C29.3551 11.9511 28.9726 11.8774 28.7478 11.9426C28.5618 11.9622 28.5294 12.2415 28.7399 12.2394C29.6506 12.2737 30.5698 12.2844 31.4791 12.2335C31.7045 12.1855 31.5536 11.9078 31.3672 11.9396C31.1593 11.8815 30.9144 11.9269 30.8311 11.6957C30.744 10.2791 30.8171 8.85577 30.8026 7.43662C30.8044 7.08352 30.8056 6.73044 30.8074 6.37734C31.4649 6.43741 32.1877 6.27087 32.6421 6.83424C32.8425 7.02536 32.9059 7.39505 33.2174 7.46745C33.5807 7.49155 33.2538 7.02917 33.2817 6.84109C33.1963 6.60094 33.2353 6.29076 33.0819 6.08495C32.0957 5.99248 31.0767 6.05997 30.0811 6.04237Z" fill="#FFFFFE"/>
<path d="M34.0808 6.03214C33.8935 6.07248 33.6139 5.95909 33.4829 6.1394C33.441 6.43082 33.8346 6.37184 34.0019 6.41708C34.2852 6.3993 34.2018 6.81131 34.2399 6.99296C34.2523 8.50918 34.2772 10.0277 34.2247 11.543C34.2235 11.705 34.1761 11.9165 33.9745 11.8796C33.8161 11.9322 33.4401 11.8785 33.4828 12.1557C33.6197 12.3329 33.8969 12.222 34.0863 12.2614C34.74 12.2394 35.4058 12.3135 36.0529 12.2188C36.2063 12.1245 36.0553 11.9096 35.909 11.9397C35.7207 11.8625 35.5184 11.9659 35.4946 11.6605C35.4163 10.8191 35.4623 9.96058 35.435 9.11299C36.5224 9.11299 37.1842 9.11299 38.2715 9.11299C38.2408 9.97296 38.2973 10.8464 38.2037 11.6988C38.142 11.9767 38.0489 11.853 37.8618 11.95C37.6664 11.9686 37.7049 12.2837 37.9005 12.2453C38.6759 12.2646 39.4584 12.2925 40.2312 12.2306C40.4158 12.1754 40.2882 11.9094 40.1301 11.9353C39.9243 11.902 39.5305 11.9041 39.5696 11.5768C39.5331 9.96061 39.5374 8.34201 39.5666 6.72566C39.5269 6.43607 39.8459 6.38933 40.0441 6.38186C40.1939 6.40731 40.4238 6.24231 40.278 6.08362C39.8155 5.97372 39.3216 6.05846 38.8483 6.0307C38.4922 6.0597 38.1081 5.97404 37.766 6.08946C37.6333 6.25651 37.863 6.40287 38.0096 6.3833C38.192 6.40728 38.2325 6.39831 38.2187 6.67273C38.2818 7.33314 38.2488 8.00041 38.27 8.66345C37.1831 8.66345 36.5218 8.66345 35.4349 8.66345C35.4722 7.96079 35.3923 7.23319 35.5151 6.54492C35.6357 6.32475 35.7846 6.43578 35.978 6.34512C36.1574 6.33443 36.1565 6.03134 35.9669 6.05128C35.3395 6.01135 34.7092 6.03787 34.0808 6.03214Z" fill="#FFFFFE"/>
</g>
<defs>
<radialGradient id="paint0_radial_347_151" cx="0" cy="0" r="1" gradientUnits="userSpaceOnUse" gradientTransform="translate(4.08234 9.55416) rotate(136.284) scale(46.3186 48.0115)">
<stop stop-color="#75824C"/>
<stop offset="0.421697" stop-color="#38452D"/>
<stop offset="0.559601" stop-color="#252E21"/>
<stop offset="0.726235" stop-color="#131C18"/>
<stop offset="1" stop-color="#050607"/>
</radialGradient>
<linearGradient id="paint1_linear_347_151" x1="30.6556" y1="33.9623" x2="11.7345" y2="9.55629" gradientUnits="userSpaceOnUse">
<stop stop-color="#1F291E" stop-opacity="0.126126"/>
<stop offset="1" stop-color="#4C5433"/>
</linearGradient>
<linearGradient id="paint2_linear_347_151" x1="1.58059" y1="13.6783" x2="16.2371" y2="16.5671" gradientUnits="userSpaceOnUse">
<stop stop-color="#AF9B3C"/>
<stop offset="1" stop-color="#E5D892"/>
</linearGradient>
<clipPath id="clip0_347_151">
<rect width="47.8134" height="48" fill="white"/>
</clipPath>
</defs>
</svg>
