<svg width="48" height="48" viewBox="0 0 48 48" fill="none" xmlns="http://www.w3.org/2000/svg">
<g clip-path="url(#clip0_347_174)">
<path d="M16.0358 15.1178H15.7343C15.7165 15.0311 15.6853 14.9549 15.6407 14.8892C15.5969 14.8236 15.5434 14.7685 15.4802 14.7239C15.4178 14.6785 15.3484 14.6444 15.2722 14.6217C15.1961 14.599 15.1166 14.5877 15.0339 14.5877C14.8832 14.5877 14.7466 14.6258 14.6242 14.702C14.5026 14.7782 14.4057 14.8905 14.3336 15.0388C14.2622 15.1871 14.2266 15.3691 14.2266 15.5847C14.2266 15.8004 14.2622 15.9823 14.3336 16.1307C14.4057 16.279 14.5026 16.3913 14.6242 16.4675C14.7466 16.5437 14.8832 16.5818 15.0339 16.5818C15.1166 16.5818 15.1961 16.5704 15.2722 16.5477C15.3484 16.525 15.4178 16.4914 15.4802 16.4468C15.5434 16.4014 15.5969 16.3459 15.6407 16.2802C15.6853 16.2138 15.7165 16.1376 15.7343 16.0516H16.0358C16.0131 16.1789 15.9718 16.2928 15.9118 16.3933C15.8518 16.4938 15.7773 16.5794 15.6881 16.6499C15.5989 16.7196 15.4988 16.7727 15.3878 16.8092C15.2775 16.8456 15.1596 16.8639 15.0339 16.8639C14.8215 16.8639 14.6327 16.812 14.4673 16.7082C14.3019 16.6045 14.1718 16.457 14.077 16.2656C13.9822 16.0743 13.9347 15.8474 13.9347 15.5847C13.9347 15.3221 13.9822 15.0951 14.077 14.9038C14.1718 14.7125 14.3019 14.565 14.4673 14.4612C14.6327 14.3575 14.8215 14.3056 15.0339 14.3056C15.1596 14.3056 15.2775 14.3238 15.3878 14.3603C15.4988 14.3968 15.5989 14.4503 15.6881 14.5208C15.7773 14.5905 15.8518 14.6756 15.9118 14.7762C15.9718 14.8759 16.0131 14.9898 16.0358 15.1178ZM16.4842 16.8298V14.9622H16.7614V15.2443H16.7809C16.8149 15.1519 16.8765 15.0769 16.9657 15.0193C17.0549 14.9618 17.1554 14.933 17.2673 14.933C17.2883 14.933 17.3147 14.9334 17.3463 14.9342C17.3779 14.935 17.4018 14.9363 17.418 14.9379V15.2297C17.4083 15.2273 17.386 15.2236 17.3512 15.2187C17.3171 15.2131 17.281 15.2102 17.2429 15.2102C17.1522 15.2102 17.0711 15.2293 16.9998 15.2674C16.9292 15.3047 16.8733 15.3566 16.832 15.423C16.7914 15.4887 16.7712 15.5637 16.7712 15.648V16.8298H16.4842ZM18.4844 16.8687C18.3044 16.8687 18.1492 16.829 18.0187 16.7496C17.889 16.6693 17.7889 16.5575 17.7184 16.414C17.6486 16.2697 17.6138 16.1019 17.6138 15.9106C17.6138 15.7193 17.6486 15.5507 17.7184 15.4048C17.7889 15.2581 17.887 15.1438 18.0126 15.0619C18.1391 14.9792 18.2866 14.9379 18.4552 14.9379C18.5525 14.9379 18.6485 14.9541 18.7434 14.9865C18.8382 15.0189 18.9245 15.0716 19.0024 15.1446C19.0802 15.2167 19.1422 15.3124 19.1884 15.4315C19.2346 15.5507 19.2577 15.6974 19.2577 15.8717V15.9933H17.8181V15.7452H18.9659C18.9659 15.6399 18.9448 15.5458 18.9027 15.4631C18.8613 15.3805 18.8021 15.3152 18.7251 15.2674C18.6489 15.2196 18.559 15.1956 18.4552 15.1956C18.3409 15.1956 18.242 15.224 18.1585 15.2808C18.0758 15.3367 18.0122 15.4096 17.9676 15.4996C17.923 15.5896 17.9007 15.6861 17.9007 15.789V15.9544C17.9007 16.0954 17.9251 16.215 17.9737 16.3131C18.0232 16.4103 18.0916 16.4845 18.1792 16.5356C18.2667 16.5858 18.3685 16.611 18.4844 16.611C18.5598 16.611 18.6279 16.6004 18.6887 16.5794C18.7503 16.5575 18.8034 16.525 18.8479 16.4821C18.8925 16.4383 18.927 16.384 18.9513 16.3192L19.2285 16.397C19.1993 16.491 19.1503 16.5737 19.0814 16.645C19.0125 16.7155 18.9274 16.7707 18.8261 16.8104C18.7247 16.8493 18.6108 16.8687 18.4844 16.8687ZM20.2438 16.8736C20.1255 16.8736 20.0181 16.8513 19.9216 16.8067C19.8251 16.7613 19.7485 16.6961 19.6918 16.611C19.635 16.525 19.6067 16.4213 19.6067 16.2997C19.6067 16.1927 19.6278 16.106 19.6699 16.0395C19.7121 15.9722 19.7684 15.9195 19.8389 15.8814C19.9094 15.8433 19.9873 15.815 20.0724 15.7963C20.1583 15.7769 20.2446 15.7615 20.3314 15.7501C20.4448 15.7355 20.5368 15.7246 20.6074 15.7173C20.6787 15.7092 20.7306 15.6958 20.763 15.6771C20.7962 15.6585 20.8129 15.6261 20.8129 15.5799V15.5701C20.8129 15.4502 20.78 15.357 20.7144 15.2905C20.6495 15.224 20.551 15.1908 20.4189 15.1908C20.2819 15.1908 20.1745 15.2208 20.0967 15.2808C20.0189 15.3407 19.9642 15.4048 19.9325 15.4729L19.6602 15.3756C19.7088 15.2621 19.7737 15.1738 19.8547 15.1105C19.9366 15.0465 20.0258 15.0019 20.1222 14.9768C20.2195 14.9508 20.3151 14.9379 20.4092 14.9379C20.4692 14.9379 20.5381 14.9452 20.6159 14.9598C20.6945 14.9735 20.7703 15.0023 20.8433 15.0461C20.917 15.0899 20.9782 15.1559 21.0269 15.2443C21.0755 15.3326 21.0998 15.451 21.0998 15.5993V16.8298H20.8129V16.5769H20.7983C20.7788 16.6175 20.7464 16.6608 20.701 16.707C20.6556 16.7532 20.5952 16.7925 20.5198 16.825C20.4444 16.8574 20.3524 16.8736 20.2438 16.8736ZM20.2876 16.6158C20.4011 16.6158 20.4967 16.5935 20.5745 16.549C20.6532 16.5044 20.7123 16.4468 20.7521 16.3763C20.7926 16.3058 20.8129 16.2316 20.8129 16.1538V15.8911C20.8007 15.9057 20.774 15.9191 20.7326 15.9313C20.6921 15.9426 20.6451 15.9528 20.5916 15.9617C20.5389 15.9698 20.4874 15.9771 20.4371 15.9836C20.3877 15.9892 20.3476 15.9941 20.3168 15.9981C20.2422 16.0079 20.1725 16.0237 20.1076 16.0456C20.0436 16.0666 19.9917 16.0987 19.952 16.1416C19.9131 16.1838 19.8936 16.2413 19.8936 16.3143C19.8936 16.414 19.9305 16.4894 20.0043 16.5404C20.0789 16.5907 20.1733 16.6158 20.2876 16.6158ZM22.4358 14.9622V15.2054H21.4679V14.9622H22.4358ZM21.75 14.5147H22.037V16.2948C22.037 16.3759 22.0487 16.4367 22.0722 16.4772C22.0966 16.5169 22.1274 16.5437 22.1647 16.5575C22.2028 16.5704 22.2429 16.5769 22.285 16.5769C22.3166 16.5769 22.3426 16.5753 22.3628 16.5721C22.3831 16.568 22.3993 16.5648 22.4115 16.5623L22.4698 16.8201C22.4504 16.8274 22.4232 16.8347 22.3884 16.842C22.3535 16.8501 22.3093 16.8542 22.2558 16.8542C22.1748 16.8542 22.0953 16.8367 22.0175 16.8019C21.9405 16.767 21.8765 16.7139 21.8254 16.6426C21.7752 16.5712 21.75 16.4813 21.75 16.3727V14.5147ZM23.6304 16.8687C23.4505 16.8687 23.2953 16.829 23.1647 16.7496C23.035 16.6693 22.9349 16.5575 22.8644 16.414C22.7947 16.2697 22.7598 16.1019 22.7598 15.9106C22.7598 15.7193 22.7947 15.5507 22.8644 15.4048C22.9349 15.2581 23.033 15.1438 23.1587 15.0619C23.2851 14.9792 23.4327 14.9379 23.6013 14.9379C23.6985 14.9379 23.7946 14.9541 23.8894 14.9865C23.9843 15.0189 24.0706 15.0716 24.1484 15.1446C24.2262 15.2167 24.2882 15.3124 24.3345 15.4315C24.3807 15.5507 24.4038 15.6974 24.4038 15.8717V15.9933H22.9641V15.7452H24.1119C24.1119 15.6399 24.0909 15.5458 24.0487 15.4631C24.0074 15.3805 23.9482 15.3152 23.8712 15.2674C23.795 15.2196 23.705 15.1956 23.6013 15.1956C23.487 15.1956 23.3881 15.224 23.3046 15.2808C23.2219 15.3367 23.1583 15.4096 23.1137 15.4996C23.0691 15.5896 23.0468 15.6861 23.0468 15.789V15.9544C23.0468 16.0954 23.0711 16.215 23.1198 16.3131C23.1692 16.4103 23.2377 16.4845 23.3252 16.5356C23.4128 16.5858 23.5145 16.611 23.6304 16.611C23.7058 16.611 23.7739 16.6004 23.8347 16.5794C23.8963 16.5575 23.9494 16.525 23.994 16.4821C24.0386 16.4383 24.073 16.384 24.0973 16.3192L24.3746 16.397C24.3454 16.491 24.2964 16.5737 24.2275 16.645C24.1586 16.7155 24.0734 16.7707 23.9721 16.8104C23.8708 16.8493 23.7569 16.8687 23.6304 16.8687ZM25.5455 16.8687C25.3899 16.8687 25.2525 16.8294 25.1333 16.7508C25.0141 16.6714 24.9209 16.5595 24.8536 16.4152C24.7864 16.2701 24.7527 16.0987 24.7527 15.9009C24.7527 15.7047 24.7864 15.5345 24.8536 15.3902C24.9209 15.2459 25.0146 15.1344 25.1345 15.0558C25.2545 14.9772 25.3931 14.9379 25.5504 14.9379C25.672 14.9379 25.768 14.9581 25.8385 14.9987C25.9099 15.0384 25.9642 15.0838 26.0015 15.1349C26.0396 15.1851 26.0692 15.2264 26.0902 15.2589H26.1146V14.3396H26.4015V16.8298H26.1243V16.5429H26.0902C26.0692 16.5769 26.0392 16.6199 26.0003 16.6718C25.9613 16.7228 25.9058 16.7686 25.8337 16.8092C25.7615 16.8489 25.6655 16.8687 25.5455 16.8687ZM25.5844 16.611C25.6995 16.611 25.7968 16.581 25.8762 16.521C25.9557 16.4602 26.0161 16.3763 26.0574 16.2693C26.0987 16.1615 26.1194 16.0371 26.1194 15.896C26.1194 15.7566 26.0991 15.6346 26.0586 15.53C26.0181 15.4246 25.9581 15.3428 25.8787 15.2844C25.7992 15.2252 25.7011 15.1956 25.5844 15.1956C25.4628 15.1956 25.3615 15.2269 25.2804 15.2893C25.2002 15.3509 25.1398 15.4348 25.0993 15.541C25.0595 15.6463 25.0397 15.7647 25.0397 15.896C25.0397 16.029 25.0599 16.1497 25.1005 16.2584C25.1418 16.3662 25.2026 16.4521 25.2829 16.5161C25.3639 16.5794 25.4644 16.611 25.5844 16.611ZM27.9688 16.8298V14.3396H28.2558V15.2589H28.2801C28.3012 15.2264 28.3304 15.1851 28.3676 15.1349C28.4057 15.0838 28.46 15.0384 28.5306 14.9987C28.6019 14.9581 28.6984 14.9379 28.82 14.9379C28.9772 14.9379 29.1158 14.9772 29.2358 15.0558C29.3558 15.1344 29.4494 15.2459 29.5167 15.3902C29.584 15.5345 29.6176 15.7047 29.6176 15.9009C29.6176 16.0987 29.584 16.2701 29.5167 16.4152C29.4494 16.5595 29.3562 16.6714 29.237 16.7508C29.1179 16.8294 28.9805 16.8687 28.8248 16.8687C28.7049 16.8687 28.6088 16.8489 28.5367 16.8092C28.4645 16.7686 28.409 16.7228 28.3701 16.6718C28.3312 16.6199 28.3012 16.5769 28.2801 16.5429H28.246V16.8298H27.9688ZM28.2509 15.896C28.2509 16.0371 28.2716 16.1615 28.3129 16.2693C28.3543 16.3763 28.4147 16.4602 28.4941 16.521C28.5735 16.581 28.6708 16.611 28.7859 16.611C28.9059 16.611 29.006 16.5794 29.0862 16.5161C29.1673 16.4521 29.2281 16.3662 29.2686 16.2584C29.31 16.1497 29.3306 16.029 29.3306 15.896C29.3306 15.7647 29.3104 15.6463 29.2698 15.541C29.2301 15.4348 29.1697 15.3509 29.0887 15.2893C29.0084 15.2269 28.9075 15.1956 28.7859 15.1956C28.6692 15.1956 28.5711 15.2252 28.4917 15.2844C28.4122 15.3428 28.3522 15.4246 28.3117 15.53C28.2712 15.6346 28.2509 15.7566 28.2509 15.896ZM30.1745 17.5302C30.1259 17.5302 30.0825 17.5261 30.0444 17.518C30.0063 17.5107 29.9799 17.5035 29.9653 17.4962L30.0383 17.2432C30.108 17.2611 30.1696 17.2676 30.2231 17.2627C30.2766 17.2578 30.324 17.2339 30.3654 17.191C30.4075 17.1488 30.446 17.0803 30.4809 16.9855L30.5344 16.8396L29.8438 14.9622H30.155L30.6706 16.4505H30.69L31.2056 14.9622H31.5169L30.7241 17.1022C30.6884 17.1987 30.6442 17.2785 30.5915 17.3417C30.5389 17.4058 30.4777 17.4532 30.4079 17.484C30.339 17.5148 30.2612 17.5302 30.1745 17.5302ZM14.032 20.8298V18.3396H15.5252V18.6071H14.3336V19.4486H15.4133V19.7161H14.3336V20.8298H14.032ZM16.5523 20.8736C16.434 20.8736 16.3265 20.8513 16.2301 20.8067C16.1336 20.7613 16.057 20.6961 16.0003 20.611C15.9435 20.525 15.9152 20.4213 15.9152 20.2997C15.9152 20.1927 15.9362 20.106 15.9784 20.0395C16.0205 19.9722 16.0769 19.9195 16.1474 19.8814C16.2179 19.8433 16.2957 19.815 16.3809 19.7963C16.4668 19.7769 16.5531 19.7615 16.6398 19.7501C16.7533 19.7355 16.8453 19.7246 16.9159 19.7173C16.9872 19.7092 17.0391 19.6958 17.0715 19.6771C17.1047 19.6585 17.1213 19.6261 17.1213 19.5799V19.5701C17.1213 19.4502 17.0885 19.357 17.0229 19.2905C16.958 19.224 16.8595 19.1908 16.7274 19.1908C16.5904 19.1908 16.483 19.2208 16.4052 19.2808C16.3274 19.3407 16.2726 19.4048 16.241 19.4729L15.9687 19.3756C16.0173 19.2621 16.0821 19.1738 16.1632 19.1105C16.2451 19.0465 16.3342 19.0019 16.4307 18.9768C16.528 18.9508 16.6236 18.9379 16.7177 18.9379C16.7776 18.9379 16.8466 18.9452 16.9244 18.9598C17.003 18.9735 17.0788 19.0023 17.1517 19.0461C17.2255 19.0899 17.2867 19.1559 17.3353 19.2443C17.384 19.3326 17.4083 19.451 17.4083 19.5993V20.8298H17.1213V20.5769H17.1068C17.0873 20.6175 17.0549 20.6608 17.0095 20.707C16.9641 20.7532 16.9037 20.7925 16.8283 20.825C16.7529 20.8574 16.6609 20.8736 16.5523 20.8736ZM16.5961 20.6158C16.7096 20.6158 16.8052 20.5935 16.883 20.549C16.9617 20.5044 17.0208 20.4468 17.0606 20.3763C17.1011 20.3058 17.1213 20.2316 17.1213 20.1538V19.8911C17.1092 19.9057 17.0824 19.9191 17.0411 19.9313C17.0006 19.9426 16.9536 19.9528 16.9001 19.9617C16.8474 19.9698 16.7959 19.9771 16.7456 19.9836C16.6962 19.9892 16.6561 19.9941 16.6253 19.9981C16.5507 20.0079 16.481 20.0237 16.4161 20.0456C16.3521 20.0666 16.3002 20.0987 16.2605 20.1416C16.2216 20.1838 16.2021 20.2413 16.2021 20.3143C16.2021 20.414 16.239 20.4894 16.3128 20.5404C16.3873 20.5907 16.4818 20.6158 16.5961 20.6158ZM18.219 18.3396V20.8298H17.9321V18.3396H18.219ZM18.6911 20.8298V20.611L19.7514 19.2491V19.2297H18.7251V18.9622H20.121V19.1908L19.0899 20.5429V20.5623H20.1551V20.8298H18.6911ZM21.1466 20.8736C21.0283 20.8736 20.9209 20.8513 20.8244 20.8067C20.728 20.7613 20.6513 20.6961 20.5946 20.611C20.5379 20.525 20.5095 20.4213 20.5095 20.2997C20.5095 20.1927 20.5306 20.106 20.5727 20.0395C20.6149 19.9722 20.6712 19.9195 20.7417 19.8814C20.8123 19.8433 20.8901 19.815 20.9752 19.7963C21.0611 19.7769 21.1474 19.7615 21.2342 19.7501C21.3477 19.7355 21.4397 19.7246 21.5102 19.7173C21.5815 19.7092 21.6334 19.6958 21.6658 19.6771C21.6991 19.6585 21.7157 19.6261 21.7157 19.5799V19.5701C21.7157 19.4502 21.6828 19.357 21.6172 19.2905C21.5523 19.224 21.4539 19.1908 21.3217 19.1908C21.1847 19.1908 21.0773 19.2208 20.9995 19.2808C20.9217 19.3407 20.867 19.4048 20.8354 19.4729L20.563 19.3756C20.6116 19.2621 20.6765 19.1738 20.7575 19.1105C20.8394 19.0465 20.9286 19.0019 21.025 18.9768C21.1223 18.9508 21.218 18.9379 21.312 18.9379C21.372 18.9379 21.4409 18.9452 21.5187 18.9598C21.5973 18.9735 21.6731 19.0023 21.7461 19.0461C21.8198 19.0899 21.881 19.1559 21.9297 19.2443C21.9783 19.3326 22.0026 19.451 22.0026 19.5993V20.8298H21.7157V20.5769H21.7011C21.6816 20.6175 21.6492 20.6608 21.6038 20.707C21.5584 20.7532 21.498 20.7925 21.4226 20.825C21.3473 20.8574 21.2553 20.8736 21.1466 20.8736ZM21.1904 20.6158C21.3039 20.6158 21.3995 20.5935 21.4774 20.549C21.556 20.5044 21.6152 20.4468 21.6549 20.3763C21.6954 20.3058 21.7157 20.2316 21.7157 20.1538V19.8911C21.7035 19.9057 21.6768 19.9191 21.6354 19.9313C21.5949 19.9426 21.5479 19.9528 21.4944 19.9617C21.4417 19.9698 21.3902 19.9771 21.34 19.9836C21.2905 19.9892 21.2504 19.9941 21.2196 19.9981C21.145 20.0079 21.0753 20.0237 21.0104 20.0456C20.9464 20.0666 20.8945 20.0987 20.8548 20.1416C20.8159 20.1838 20.7964 20.2413 20.7964 20.3143C20.7964 20.414 20.8333 20.4894 20.9071 20.5404C20.9817 20.5907 21.0761 20.6158 21.1904 20.6158ZM22.5264 20.8298V18.9622H22.8036V19.2443H22.8231C22.8571 19.1519 22.9187 19.0769 23.0079 19.0193C23.0971 18.9618 23.1976 18.933 23.3094 18.933C23.3305 18.933 23.3569 18.9334 23.3885 18.9342C23.4201 18.935 23.444 18.9363 23.4602 18.9379V19.2297C23.4505 19.2273 23.4282 19.2236 23.3933 19.2187C23.3593 19.2131 23.3232 19.2102 23.2851 19.2102C23.1943 19.2102 23.1133 19.2293 23.0419 19.2674C22.9714 19.3047 22.9155 19.3566 22.8741 19.423C22.8336 19.4887 22.8133 19.5637 22.8133 19.648V20.8298H22.5264ZM24.8023 20.8298V18.3396H26.2954V18.6071H25.1038V19.4486H26.1836V19.7161H25.1038V20.8298H24.8023ZM26.7292 20.8298V20.611L28.0716 18.6071H26.7146V18.3396H28.4315V18.5585L27.0891 20.5623H28.4461V20.8298H26.7292Z" fill="black"/>
<path d="M22.2821 0.032889C15.0299 0.108415 7.93493 3.85956 4.1567 9.97914C-1.85359 19.1206 -1.39452 32.1772 6.02784 40.4346C10.7903 45.7164 18.1534 48.4245 25.29 47.9278C33.0976 47.7773 40.6894 43.3545 44.3562 36.5523C47.6064 30.9771 48.5237 24.242 47.2011 17.97C45.8177 9.7054 39.0473 2.47863 30.7139 0.578987C27.9408 0.0786085 25.0951 0.0107911 22.2821 0.032889Z" fill="url(#paint0_radial_347_174)"/>
<path d="M22.4638 2.72267C16.0253 2.78972 9.72628 6.12001 6.37195 11.553C1.03597 19.6688 1.44355 31.2606 8.03316 38.5916C12.2613 43.2807 18.7983 45.685 25.1342 45.244C32.0658 45.1104 38.8059 41.1838 42.0613 35.1448C44.9468 30.1951 45.7612 24.2156 44.5871 18.6474C43.3588 11.31 37.3481 4.894 29.9495 3.20748C27.4876 2.76324 24.9612 2.70305 22.4638 2.72267Z" fill="url(#paint1_radial_347_174)"/>
<path d="M14.2086 8.69511C10.4172 7.82781 5.32046 12.9321 7.80905 16.7521C11.7587 18.7781 16.4319 12.4088 14.2086 8.69511Z" fill="url(#paint2_radial_347_174)"/>
<path d="M13.6587 15.0209C13.7577 15.7115 13.9908 17.9407 13.9908 17.9407C13.9908 17.9407 10.065 17.9195 9.02379 17.9937C7.36881 18.1118 8.44518 20.6399 10.2105 19.7123C11.5908 19.6844 17.6312 19.6989 17.6312 19.6989C15.3264 24.9303 11.7181 27.6878 6.1665 28.7884C6.2384 30.873 8.31724 31.8196 9.95476 31.0393C11.3553 30.3247 13.7812 28.2907 13.7812 28.2907C13.7812 28.2907 13.7244 37.7138 13.7371 39.8206C13.7451 41.1314 16.1679 41.1768 16.1632 39.8374C16.1564 37.8701 16.1401 27.5651 16.1401 27.5651C16.1401 27.5651 17.2506 28.1026 18.3386 28.8771C19.3679 29.6098 21.5279 28.8087 19.8473 27.237C17.9715 25.4829 18.3989 26.1339 17.0152 25.1515C20.6471 20.9223 21.0583 17.9328 21.0583 17.9328L16.4275 17.9039C16.4275 17.9039 16.118 15.597 16.0026 14.9371C15.7196 13.3193 13.4288 13.4167 13.6587 15.0209ZM30.283 14.3274C30.2622 16.4981 30.2015 19.0298 30.2015 19.0298C30.2015 19.0298 26.1486 19.0315 24.8847 19.0321C24.2265 18.2574 22.6182 19.0333 22.6182 19.0333L22.673 31.4917C22.673 31.4917 23.6918 31.9588 24.5192 31.4759C25.7663 31.4653 30.1556 31.4278 30.1556 31.4278C30.1556 31.4278 30.2728 38.7571 30.2812 40.0994C30.2909 41.6629 32.5159 41.5231 32.5801 40.0472C32.6574 38.2728 32.7058 31.466 32.7058 31.466C32.7058 31.466 36.4165 31.4419 37.5741 31.4344C38.5423 32.0212 39.651 31.421 39.651 31.421C39.651 31.421 39.6468 22.9897 39.6456 20.9368C40.0631 20.2058 39.645 19.1035 39.645 19.1035C39.645 19.1035 38.8663 18.6004 38.1102 19.0884C36.9463 19.0763 32.6618 19.0311 32.6618 19.0311C32.6618 19.0311 32.5569 15.9628 32.5759 14.3012C32.592 12.899 30.2975 12.8233 30.283 14.3274ZM30.2745 24.3161L25.3167 24.3972L25.3697 20.8377L30.2636 20.8464L30.2745 24.3161ZM37.3077 20.8894L37.2925 24.3638L32.6004 24.3532L32.6153 20.8994L37.3077 20.8894ZM37.3248 26.1236L37.3272 29.6323L32.5853 29.6317L32.5994 26.113L37.3248 26.1236ZM24.9461 26.1579L30.2572 26.1086L30.2056 29.6058L25.0073 29.6288L24.9461 26.1579Z" fill="#FFFAF1"/>
<path d="M7.40228 5.78196C7.37191 5.89713 7.41378 6.04079 7.57047 6.02302C7.77994 6.06058 8.14635 6.05133 8.15033 6.32054C8.23532 7.35414 8.17651 8.39894 8.19288 9.4369C8.17771 10.1542 8.2127 10.883 8.14681 11.5934C7.97129 11.7944 7.63705 11.706 7.42345 11.8138C7.36289 11.925 7.40367 12.0853 7.57753 12.0245C8.73477 12.0083 9.89685 12.0622 11.0508 11.9789C12.1997 11.8469 13.2918 11.2025 13.7771 10.2167C14.1835 9.47622 14.2088 8.61106 14.0339 7.81026C13.8696 7.13825 13.375 6.56322 12.7469 6.20652C11.7958 5.69691 10.6559 5.78931 9.59823 5.76089C8.87449 5.75759 8.15073 5.75983 7.42698 5.7592L7.40228 5.78196ZM9.90521 6.08273C10.6707 6.07835 11.1908 6.10394 11.7819 6.61371C12.4976 7.2009 12.6999 8.13325 12.6664 8.98411C12.6721 9.9313 12.2782 10.993 11.3185 11.4533C10.7716 11.7078 10.4611 11.7347 9.85816 11.715C9.53563 11.711 9.34163 11.4965 9.36604 11.1753C9.31866 9.47837 9.34286 7.78018 9.32606 6.08273C9.56757 6.08273 9.66369 6.08273 9.90521 6.08273Z" fill="#FFFAF1"/>
<path d="M14.9677 5.78184C14.917 5.92509 15.0235 6.0748 15.2075 6.04679C15.4652 6.0431 15.8525 6.11298 15.8302 6.39742C15.8778 8.10744 15.8344 9.82345 15.836 11.5357C15.6481 11.7696 15.2845 11.7472 15.0018 11.7909C14.9323 11.8755 14.9364 12.0821 15.1154 12.0243C16.0039 12.0243 16.8924 12.0243 17.781 12.0243C17.8523 11.931 17.8154 11.7453 17.6396 11.7703C17.3998 11.7452 16.985 11.7432 16.9517 11.4771C16.9032 9.88065 16.9065 8.27752 16.9268 6.67879C16.9622 6.50808 16.8885 6.23455 17.0906 6.13475C17.302 6.05406 17.5414 6.07263 17.7507 6.00879C17.8621 5.91428 17.829 5.68442 17.6194 5.75904C16.7443 5.75904 15.8693 5.75904 14.9942 5.75904L14.9677 5.78184Z" fill="#FFFAF1"/>
<path d="M18.0914 5.7819C18.0432 5.9252 18.1479 6.04158 18.3095 6.04994C18.8797 6.14928 19.0324 6.74046 19.216 7.15891C19.8847 8.7701 20.5206 10.3917 21.1695 12.0092C21.3528 11.9966 21.7126 12.1249 21.7823 11.9139C22.6555 10.0553 23.4965 8.18358 24.4082 6.34002C24.5491 6.12191 24.8216 6.05478 25.0805 6.00667C25.1715 5.92867 25.1666 5.69946 24.9873 5.75909C24.3068 5.75909 23.6264 5.75909 22.9459 5.75909C22.861 5.87844 22.9432 6.07043 23.1275 6.04684C23.3976 6.03066 23.7449 6.18336 23.7004 6.46163C23.6288 6.85529 23.3925 7.22138 23.2508 7.60112C22.756 8.69894 22.445 9.28928 21.9027 10.3692C21.3481 8.92696 20.8723 8.00373 20.391 6.54091C20.3107 6.28587 20.5696 6.07022 20.8449 6.04901C20.9771 6.04114 21.174 6.0112 21.1259 5.85031C21.0706 5.65611 20.6702 5.80654 20.472 5.75909C19.7784 5.75909 18.8107 5.75909 18.1172 5.75909L18.0914 5.7819Z" fill="#FFFAF1"/>
<path d="M25.3181 5.78199C25.2807 5.90272 25.3321 6.05011 25.5179 6.03826C25.776 6.06409 26.1828 6.06467 26.2323 6.33143C26.289 7.95015 26.2557 9.57589 26.2377 11.1971C26.23 11.373 26.2615 11.6207 26.0027 11.6922C25.7997 11.7908 25.544 11.7305 25.3437 11.7997C25.2736 11.9127 25.3114 12.0877 25.5193 12.0245C26.4412 12.0245 27.3631 12.0245 28.2849 12.0245C28.3718 11.9222 28.3077 11.7376 28.1148 11.7693C27.8452 11.7523 27.3847 11.7004 27.4225 11.4078C27.3511 9.76782 27.3432 8.12493 27.3986 6.48459C27.359 6.24046 27.6312 6.06581 27.9176 6.0654C28.0796 6.05221 28.3524 6.0556 28.308 5.86251C28.3096 5.64697 27.8374 5.80988 27.6421 5.75919C26.8769 5.75919 26.1117 5.75919 25.3464 5.75919L25.3181 5.78199Z" fill="#FFFAF1"/>
<path d="M28.4041 5.78184C28.3634 5.91988 28.4482 6.07341 28.6205 6.04787C28.998 6.07429 29.2786 6.36251 29.5332 6.60165C29.52 8.11581 29.5628 9.63448 29.5027 11.1459C29.514 11.3845 29.3764 11.6114 29.1239 11.6888C28.9956 11.7869 28.739 11.699 28.6711 11.8539C28.5877 12.1017 28.9057 12.0096 29.0686 12.0243C29.7226 12.0243 30.3766 12.0243 31.0305 12.0243C31.1014 11.9068 31.0032 11.7461 30.8423 11.7703C30.5184 11.7346 30.1133 11.6546 30.0149 11.3206C29.9278 11.0239 29.9986 10.6926 29.9724 10.3826C29.9706 9.22222 29.9469 8.06144 29.9755 6.90134C31.5335 8.60714 33.0776 10.3292 34.6449 12.0243C34.9122 12.0758 35.0822 11.9959 35.0023 11.7236C35.0207 9.99693 34.987 8.2658 35.046 6.54193C35.0662 6.19441 35.4905 6.06099 35.8082 6.03375C35.9079 5.98256 35.9135 5.72446 35.7682 5.75903C35.0154 5.75903 34.2627 5.75903 33.5099 5.75903C33.4366 5.86392 33.4896 6.06105 33.6639 6.03764C33.9878 6.07758 34.3842 6.14126 34.5019 6.46468C34.6257 6.71769 34.5284 7.02086 34.5617 7.29441C34.5624 8.39505 34.5629 9.20532 34.5313 10.3057C33.0429 8.71054 32.0668 7.36008 30.5904 5.75903C30.0152 5.75903 29.0039 5.75903 28.4288 5.75903L28.4041 5.78184Z" fill="#FFFAF1"/>
<path d="M36.1792 5.78175C36.1471 5.89692 36.1914 6.04057 36.357 6.02281C36.6148 6.03572 37.0177 6.10452 36.9926 6.39851C37.0421 7.93446 37.0184 9.48185 37.0054 11.022C36.9667 11.2442 37.0987 11.5817 36.7924 11.6898C36.6139 11.7909 36.3504 11.7107 36.1916 11.8255C36.1325 11.9667 36.2181 12.0762 36.4043 12.0243C38.0035 12.0243 39.6026 12.0243 41.2018 12.0243C41.3448 11.5235 41.3919 10.9808 41.5177 10.4672C41.4308 10.3469 41.1869 10.4368 41.1845 10.5776C40.978 10.9852 40.7712 11.4967 40.2378 11.6388C39.6321 11.7604 38.9733 11.7705 38.3808 11.6084C38.1405 11.5368 38.0559 11.3084 38.087 11.1046C38.0657 10.3805 38.0701 9.65602 38.0599 8.93178C38.5325 8.96444 39.048 8.85502 39.489 9.03819C39.7601 9.18769 39.85 9.4836 39.9032 9.73639C40.0265 9.80511 40.2493 9.7758 40.1719 9.60392C40.1719 9.0248 40.1719 8.44568 40.1719 7.86656C40.0471 7.79454 39.8374 7.85472 39.8609 8.01098C39.8184 8.32487 39.5365 8.60733 39.1569 8.60386C38.8015 8.63073 38.4405 8.62021 38.0822 8.62557C38.0759 7.77789 38.0688 6.9302 38.0611 6.08252C38.6288 6.09364 39.2092 6.06055 39.7692 6.09873C40.0589 6.18366 40.2669 6.38618 40.3485 6.64064C40.4454 6.82644 40.4352 7.04932 40.5189 7.22917C40.8479 7.3182 40.8322 7.07202 40.8087 6.85889C40.8087 6.49984 40.8087 6.1408 40.8087 5.78175C40.3705 5.72862 39.8855 5.77408 39.4293 5.75895C38.3546 5.75895 37.28 5.75895 36.2053 5.75895L36.1792 5.78175Z" fill="#FFFAF1"/>
</g>
<defs>
<radialGradient id="paint0_radial_347_174" cx="0" cy="0" r="1" gradientUnits="userSpaceOnUse" gradientTransform="translate(23.9008 24.0075) scale(23.8837 23.9783)">
<stop stop-color="#F3C87D" stop-opacity="0.758929"/>
<stop offset="0.913524" stop-color="#D69C45"/>
<stop offset="1" stop-color="#E5FF6A"/>
</radialGradient>
<radialGradient id="paint1_radial_347_174" cx="0" cy="0" r="1" gradientUnits="userSpaceOnUse" gradientTransform="translate(18.0761 19.8271) rotate(47.2022) scale(23.3257 21.5363)">
<stop stop-color="#A5864D"/>
<stop offset="0.786028" stop-color="#332815"/>
<stop offset="1" stop-color="#1A1911"/>
</radialGradient>
<radialGradient id="paint2_radial_347_174" cx="0" cy="0" r="1" gradientUnits="userSpaceOnUse" gradientTransform="translate(11.1436 12.8693) rotate(39.3028) scale(2.84482 5.07795)">
<stop stop-color="#F0BF7A" stop-opacity="0.910714"/>
<stop offset="0.64173" stop-color="#F0BF7A" stop-opacity="0.454902"/>
<stop offset="1" stop-color="#F0BF7A" stop-opacity="0"/>
</radialGradient>
<clipPath id="clip0_347_174">
<rect width="47.8134" height="48" fill="white"/>
</clipPath>
</defs>
</svg>
