<svg width="25" height="25" viewBox="0 0 25 25" fill="none" xmlns="http://www.w3.org/2000/svg">
<path fill-rule="evenodd" clip-rule="evenodd" d="M12.5001 1.75C12.9143 1.75 13.2501 2.08579 13.2501 2.5V14.0227L16.9698 10.303C17.2627 10.0101 17.7376 10.0101 18.0305 10.303C18.3233 10.5959 18.3233 11.0708 18.0305 11.3637L13.0305 16.3637C12.7376 16.6566 12.2627 16.6566 11.9698 16.3637L6.96979 11.3637C6.6769 11.0708 6.6769 10.5959 6.96979 10.303C7.26269 10.0101 7.73756 10.0101 8.03045 10.303L11.7501 14.0227V2.5C11.7501 2.08579 12.0859 1.75 12.5001 1.75ZM4.16671 16.6667C4.62694 16.6667 5.00004 17.0398 5.00004 17.5V20C5.00004 20.9231 5.74279 21.6667 6.66062 21.6667H18.3353C19.2549 21.6667 20 20.9213 20 20V17.5C20 17.0398 20.3731 16.6667 20.8334 16.6667C21.2936 16.6667 21.6667 17.0398 21.6667 17.5V20C21.6667 21.8401 20.1771 23.3334 18.3353 23.3334H6.66062C4.81703 23.3334 3.33337 21.8383 3.33337 20V17.5C3.33337 17.0398 3.70647 16.6667 4.16671 16.6667Z" fill="#131D16"/>
</svg>
