<svg width="138" height="48" viewBox="0 0 138 48" fill="none" xmlns="http://www.w3.org/2000/svg">
<path d="M37.4315 5.11466C37.6216 4.45805 37.829 3.02387 37.8981 1.95256L38.019 0L38.5374 0.120955C38.8139 0.172793 39.4359 0.431981 39.9025 0.69117C40.3517 0.93308 41.2848 1.65881 41.976 2.28086C42.6499 2.90291 43.341 3.71504 43.8421 4.76907L41.9241 6.66979C40.8701 7.70655 40.0061 8.62235 40.0061 8.69146C40.0061 8.77786 40.801 8.8297 41.7859 8.8297C42.7708 8.8297 43.6348 8.76058 43.7385 8.65691C43.8249 8.57051 44.2741 8.48411 44.7579 8.46683C45.2245 8.44955 45.7429 8.36316 45.8811 8.29404C46.0193 8.22492 46.4167 8.06941 46.7451 7.94846C47.0734 7.8275 47.6263 7.74111 47.9546 7.77566C48.2829 7.81022 48.9741 7.98301 49.4579 8.15581C50.0972 8.38044 50.4255 8.60507 50.5465 8.91609C50.6329 9.158 50.7193 9.52087 50.7193 9.72822C50.702 9.95285 50.4255 10.3676 49.4233 11.2834L47.3498 11.1797C46.2094 11.1106 44.9999 11.076 44.6715 11.1106C44.3432 11.1278 43.0473 11.1451 41.8205 11.1451C40.5936 11.1451 39.1767 11.076 38.7102 11.0069C37.8462 10.8514 37.8462 10.8514 36.5503 11.8017C35.8419 12.3374 34.5977 13.1322 33.7856 13.5815C32.9735 14.0135 31.7985 14.6182 31.1419 14.8947C30.3643 15.223 29.9842 15.3267 29.9842 15.1712C29.9842 15.0675 30.8654 14.0999 31.9367 13.0631C33.0253 12.0091 34.2867 10.6613 34.7705 10.0392C35.2371 9.41719 35.9455 8.3286 36.3602 7.62015C36.7576 6.9117 37.2415 5.77127 37.4315 5.11466Z" fill="#FFBA1A"/>
<path d="M111.197 2.21174C111.905 1.918 112.925 1.64153 113.443 1.58969C114.169 1.50329 114.67 1.57241 115.603 1.86616C116.259 2.09079 117.314 2.52277 119.059 3.42129L119.041 4.18158C119.041 4.59628 118.817 5.4948 118.558 6.15141C118.281 6.8253 117.936 7.46464 117.78 7.58559C117.625 7.70655 117.348 7.9139 117.158 8.05213C116.968 8.19037 116.156 8.415 115.344 8.57051C114.532 8.70874 113.581 8.8297 113.218 8.8297C112.873 8.8297 112.199 8.91609 111.75 9.01977C111.3 9.12345 110.765 9.27896 110.54 9.36535C110.333 9.45175 110.194 9.60726 110.246 9.69366C110.298 9.79734 110.488 9.86645 110.678 9.86645C110.868 9.86645 111.318 10.0738 111.663 10.333C112.026 10.5922 112.354 10.8168 112.406 10.8514C112.458 10.8859 112.423 11.0414 112.337 11.197C112.251 11.3697 112.164 11.5771 112.164 11.6462C112.147 11.7153 112.061 11.8363 111.957 11.9054C111.853 11.9745 111.68 12.3028 111.56 12.6311C111.456 12.9594 111.369 13.5469 111.369 13.9271C111.369 14.3072 111.525 15.5859 111.715 16.7782C111.905 17.9704 112.095 18.9726 112.147 19.0245C112.199 19.0763 112.804 18.9726 113.495 18.8171C114.169 18.6443 115.205 18.437 115.776 18.3333C116.346 18.2296 117.21 18.1605 117.711 18.1605C118.212 18.1605 118.817 18.2469 119.059 18.3333C119.301 18.437 119.784 18.8344 120.165 19.2491C120.527 19.6465 121.15 20.3895 121.547 20.8906C121.927 21.3744 122.255 21.9274 122.255 22.1002C122.255 22.3248 122.048 22.4285 121.426 22.5321C120.977 22.6013 120.32 22.6531 119.957 22.6531C119.612 22.6531 117.987 22.9814 116.38 23.3961L116.232 23.4331C113.459 24.122 113.426 24.1302 113.443 24.6057C113.443 24.8648 113.633 26.3336 113.875 27.8887C114.117 29.4438 114.428 30.9471 114.601 31.2582C114.773 31.5692 114.964 31.8284 115.033 31.8111C115.102 31.8111 115.136 31.8629 115.085 31.9493C115.033 32.0185 115.136 32.1912 115.309 32.3468C115.465 32.5023 115.879 32.7096 116.208 32.8306C116.536 32.9343 117.4 33.0207 118.108 33.0207C118.817 33.0207 120.407 32.8306 121.651 32.5887C122.877 32.3468 124.674 31.9321 125.625 31.6556C126.575 31.3791 127.94 30.8953 129.945 30.0313L130.636 30.3424C131.016 30.5152 131.794 30.999 132.364 31.431C132.934 31.8629 133.902 32.7269 134.506 33.349C135.111 33.971 135.923 34.9559 136.303 35.5261C136.684 36.0964 137.185 36.9603 137.409 37.4269C137.617 37.9107 137.807 38.4636 137.807 38.6882C137.807 38.8956 137.703 39.0857 137.582 39.1202C137.461 39.1548 136.511 38.9474 135.474 38.6882C134.247 38.3772 132.761 38.1526 131.327 38.0489C130.083 37.9625 126.627 37.8934 123.638 37.8761C120.648 37.8588 117.072 37.928 115.689 38.0316C114.307 38.1353 112.527 38.2908 111.715 38.3945C110.903 38.4982 109.158 38.7228 107.827 38.9302C106.497 39.1202 105.374 39.293 105.322 39.3276C105.27 39.3621 104.216 39.7423 102.989 40.1743C101.745 40.6062 100.293 41.0728 99.7405 41.2283C99.2049 41.3665 98.3236 41.6084 97.8053 41.7467C97.2869 41.8849 96.6303 42.0059 96.3711 42.0059C96.1119 42.0059 95.5244 41.8158 95.0751 41.5739C94.6259 41.332 94.2284 41.1419 94.1766 41.1419C94.1248 41.1419 94.0902 41.954 94.0902 42.9562C94.0902 44.3731 94.0211 44.8915 93.7792 45.2889C93.6237 45.5654 93.2954 45.8419 93.0535 45.8937C92.8115 45.9455 92.2759 45.9455 91.8439 45.8764C91.4119 45.8073 90.4443 45.5481 89.684 45.2889C88.9237 45.0125 87.8351 44.5286 87.2649 44.183C86.6947 43.8547 85.7616 43.129 85.1914 42.5761C84.6039 42.0231 83.7572 41.0728 83.2907 40.4507C82.8241 39.8287 82.0293 38.55 81.5455 37.5997C81.0617 36.6493 80.4742 35.3015 80.2495 34.6103C80.0249 33.9192 79.7657 33.3662 79.6966 33.3662C79.6275 33.3662 79.2473 33.5218 78.8326 33.7118C78.4352 33.9019 76.8455 34.4375 75.2904 34.9214C73.7525 35.3879 72.3356 35.7508 72.1456 35.6989C71.9555 35.6471 71.7136 35.457 71.6272 35.267C71.5062 35.025 71.5062 34.835 71.6617 34.6449C71.7827 34.4894 72.5775 33.971 73.4415 33.4872C74.2882 33.0034 75.5323 32.2431 76.2062 31.7765C76.8628 31.3273 77.6749 30.7398 77.9859 30.4806C78.487 30.0659 78.5562 29.9104 78.487 29.392C78.4352 29.0637 78.2279 28.3207 78.0205 27.7505C77.8131 27.1803 77.554 26.1262 77.4676 25.4178C77.3812 24.7093 77.2429 23.5689 77.1911 22.8777C77.122 22.2038 77.0356 21.5991 76.9837 21.5299C76.9319 21.4781 76.4654 21.5472 75.947 21.7027C75.4286 21.841 74.8238 21.9619 74.5992 21.9619C74.3919 21.9619 74.2191 21.9101 74.2018 21.841C74.2018 21.7546 74.7029 21.2189 75.3249 20.6314C75.947 20.0267 76.5518 19.5428 76.6727 19.5428C76.8455 19.5428 76.8628 19.3182 76.7764 18.6443C76.69 18.1432 76.569 17.1929 76.4654 16.519C76.3617 15.8624 76.2062 14.6528 76.1025 13.8407C76.0161 13.0286 75.8606 11.4389 75.7742 10.2984C75.7051 9.158 75.4977 7.72383 75.3249 7.10177C75.0658 6.16869 74.8066 5.73671 73.7525 4.50988C73.0614 3.69776 72.4911 2.93747 72.4911 2.8338C72.4911 2.67828 72.8886 2.57461 73.6488 2.50549C74.2882 2.45365 75.3249 2.45365 75.947 2.52277C76.569 2.59189 77.5885 2.7474 78.2279 2.88564C78.8672 3.02387 79.6966 3.2485 80.6988 3.6632L80.5778 4.82091C80.5087 5.46024 80.3705 6.94626 80.2495 8.13853C80.094 9.79734 80.094 10.9378 80.2495 13.0631C80.3532 14.5837 80.5087 16.1215 80.5778 16.4844C80.6469 16.83 80.7333 17.1237 80.7852 17.141C80.837 17.141 81.4936 16.7263 82.2539 16.2425C83.0142 15.7587 84.0855 15.1366 84.6212 14.8602C85.226 14.5491 85.8998 14.3591 86.3145 14.3591C86.6947 14.3591 87.1958 14.4627 87.455 14.5837C87.6969 14.6874 87.9388 14.9811 87.9906 15.223C88.0425 15.4649 88.0425 15.9142 87.9734 16.2252C87.9215 16.519 87.6969 17.0028 87.4723 17.2793C87.2649 17.5557 86.7465 17.9359 86.3145 18.1259C85.8826 18.316 84.5693 18.7998 83.3771 19.1972C82.1848 19.5947 81.148 19.9748 81.0617 20.0267C80.9925 20.0958 81.0098 20.6487 81.1135 21.2708C81.1999 21.8928 81.4072 23.327 81.5628 24.4674C81.7183 25.6079 81.9256 26.6273 81.9947 26.7137C82.0984 26.8347 82.2539 26.8001 82.444 26.6273C82.5995 26.4891 83.3598 25.5906 84.1028 24.6402C85.2605 23.1715 85.4506 22.8086 85.4506 22.273C85.4506 21.9101 85.537 21.409 85.6579 21.1498C85.7789 20.8733 85.9862 20.5796 86.1418 20.4586C86.28 20.3377 86.7292 20.2513 87.1267 20.234C87.6623 20.234 88.198 20.4241 89.1138 20.9079C89.8049 21.288 90.5825 21.8237 90.859 22.0829C91.1355 22.3594 91.3255 22.7049 91.291 22.9123C91.2564 23.0851 90.8072 23.5343 90.2888 23.9145C89.7704 24.2773 89.1829 24.6921 88.9928 24.8648C88.8028 25.0204 87.9734 25.9016 87.1785 26.8001C86.3664 27.6986 85.2432 28.9255 84.673 29.5302C84.1028 30.135 83.619 30.7052 83.5844 30.7916C83.5671 30.878 83.8436 31.5174 84.2238 32.2085C84.5866 32.8824 85.5543 34.2648 86.3491 35.267C87.1612 36.2692 88.1289 37.375 88.5263 37.7379C88.9237 38.0835 89.3211 38.3772 89.4248 38.3772C89.5112 38.3772 89.8049 37.7033 90.0641 36.8739C90.3233 36.0272 90.8763 34.7313 91.3082 33.9883C91.7402 33.2453 92.3104 32.485 92.5696 32.3122C92.8288 32.1221 93.209 31.9839 93.399 31.9839C93.5891 31.9839 93.8656 32.1221 94.0211 32.2949C94.2803 32.5541 94.2976 32.8824 94.1939 34.835C94.142 36.0791 94.142 37.1677 94.2112 37.2886C94.3148 37.4269 94.7468 37.4441 95.9045 37.3232C96.7512 37.2195 97.8398 37.0294 98.3236 36.9085C98.7902 36.7702 99.9306 36.5111 100.829 36.321C101.952 36.0964 102.834 35.7853 103.594 35.3534C104.216 35.0078 105.011 34.4375 105.374 34.092C105.806 33.66 106.099 33.1589 106.272 32.5541C106.462 31.8975 106.531 30.7571 106.531 25.4178H105.581C105.063 25.4178 104.406 25.5215 104.147 25.6597C103.888 25.7806 103.559 26.0226 103.421 26.1781C103.283 26.3336 103.024 26.4718 102.851 26.4545C102.678 26.4545 102.402 26.1608 102.211 25.7634C102.021 25.3832 101.779 24.502 101.676 23.8281C101.52 22.895 101.52 22.463 101.676 22.1866C101.779 21.9619 102.039 21.72 102.246 21.6336C102.471 21.5472 103.283 21.5299 104.06 21.5991C105.443 21.7027 105.46 21.7027 105.667 21.2708C105.823 20.9425 105.806 20.4586 105.598 19.1109C105.46 18.1605 105.097 16.2598 104.803 14.8774C104.51 13.4951 104.216 12.1819 104.181 11.94C104.129 11.6981 103.974 11.3525 103.836 11.1624C103.577 10.8168 103.577 10.8168 102.16 11.1451C101.382 11.3179 100.345 11.5425 99.8788 11.6289C99.3949 11.7326 98.6174 11.7672 98.1508 11.7153C97.6325 11.6808 96.8549 11.4043 96.181 11.0587C95.5762 10.7304 94.885 10.2812 94.6431 10.0392C94.4185 9.79734 94.0384 9.2444 93.8137 8.79514C93.4682 8.12125 93.4336 7.9139 93.6064 7.70655C93.7273 7.55103 94.0211 7.43008 94.263 7.44736C94.5049 7.44736 95.5071 7.29184 96.5093 7.10177C97.5115 6.9117 99.2913 6.51428 100.484 6.20325C101.676 5.9095 103.853 5.20106 105.322 4.64812C106.79 4.0779 108.432 3.42129 108.95 3.17938C109.469 2.93747 110.488 2.50549 111.197 2.21174Z" fill="#FFBA1A"/>
<path d="M23.5045 3.12754C23.3489 2.98931 23.2453 2.79924 23.2626 2.71284C23.2798 2.64373 24.0056 2.59189 24.8868 2.62645C26.2864 2.69556 26.6147 2.76468 27.6688 3.30034C28.5673 3.7496 28.9301 4.06062 29.1721 4.50988C29.3794 4.94187 29.4658 5.52936 29.4831 6.497C29.4831 7.60287 29.414 7.96573 29.1548 8.31132C28.9647 8.55323 28.6191 8.8297 28.3772 8.91609C28.0316 9.05433 27.7897 9.01977 27.3059 8.7433C26.8566 8.50139 26.4592 8.03485 25.9754 7.18817C25.578 6.53156 25.0423 5.59848 24.7486 5.11466C24.4548 4.64812 24.1265 4.06062 24.0056 3.81871C23.8846 3.57681 23.66 3.26578 23.5045 3.12754Z" fill="#FFBA1A"/>
<path d="M10.9424 6.46244C10.1649 5.42569 9.45643 4.49261 9.37003 4.37165C9.21452 4.1643 9.37003 4.14702 10.2167 4.2507C10.7697 4.31981 11.9792 4.579 12.8777 4.85547C13.8108 5.14922 14.9685 5.65032 15.556 6.01318C16.1262 6.39332 16.7656 6.92898 16.9729 7.24001C17.2839 7.67199 17.3703 8.03485 17.3703 8.8297C17.3703 9.64182 17.2839 9.93557 17.0247 10.212C16.8347 10.4021 16.4891 10.644 16.2472 10.7304C16.0053 10.8341 15.5906 10.9032 15.3314 10.9032C15.0722 10.9032 14.5884 10.7995 14.2601 10.6613C13.9318 10.5231 13.4825 10.1948 13.2924 9.91829C13.0851 9.6591 12.7913 9.17528 12.6358 8.88154C12.4803 8.57051 11.72 7.48192 10.9424 6.46244Z" fill="#FFBA1A"/>
<path d="M26.5283 10.7823C27.7206 10.5576 28.9129 10.212 29.2066 10.0392C29.5522 9.79734 30.036 9.69366 30.7099 9.69366C31.2628 9.69366 31.9886 9.81462 32.3169 9.95285C32.7834 10.1429 32.9217 10.3157 32.9217 10.644C32.9217 10.8859 32.818 11.2834 32.6797 11.5598C32.5415 11.819 32.2996 12.1646 32.1095 12.3201C31.9195 12.4929 30.9864 12.7694 29.8114 12.9767C28.7228 13.1841 27.6515 13.426 27.4269 13.5124C27.0467 13.6679 27.064 13.7024 28.118 15.2576C28.7228 16.1388 29.7596 17.452 30.4507 18.1951C31.1419 18.9381 31.7121 19.5947 31.7121 19.6811C31.7121 19.7502 31.1419 20.6141 30.4334 21.6163C29.725 22.6185 29.1548 23.4479 29.1721 23.4652C29.1893 23.4825 29.5522 23.3788 29.9842 23.2406C30.4853 23.0678 30.9691 23.016 31.3665 23.1024C31.6948 23.1715 33.3709 23.2233 35.0816 23.2406C37.1378 23.2579 38.7102 23.1715 41.2503 22.7395L41.5786 23.1715C41.8205 23.4825 41.9069 23.8626 41.9069 24.4674C41.8896 25.2277 41.7686 25.5042 40.8701 26.852C40.2999 27.6814 39.8334 28.3898 39.8334 28.4417C39.8334 28.4935 39.3668 29.4784 38.8139 30.6534C37.8462 32.6751 37.7426 32.8133 36.1874 34.2475C35.2198 35.1287 33.9239 36.0964 33.0081 36.632C32.1441 37.1158 31.3147 37.5133 31.1419 37.5133C30.9864 37.5133 30.6581 37.2195 30.4162 36.8739C30.1743 36.5111 29.725 35.4052 29.3967 34.403C29.0684 33.4008 28.7228 32.1394 28.6191 31.6038C28.5154 31.0508 28.4636 30.4115 28.5154 30.1696C28.5673 29.9277 28.6882 29.7376 28.8092 29.7376C28.9301 29.7203 29.1548 29.8585 29.293 30.0141C29.4312 30.1696 30.2261 30.7916 31.0555 31.3964C32.4033 32.3813 32.6106 32.485 32.9562 32.2949C33.1808 32.1912 33.872 31.6901 34.5113 31.1718C35.2544 30.5843 35.6863 30.135 35.6863 29.9104C35.6863 29.7203 35.7555 29.5648 35.8591 29.5648C35.9455 29.5648 36.0319 29.2192 36.0319 28.7872C36.0319 28.0269 36.0146 28.0097 35.3753 27.906C35.0297 27.8542 34.0794 27.6468 33.2672 27.4567C32.4551 27.2667 31.3665 26.9211 30.8481 26.6792C30.1224 26.3509 29.7596 26.0398 29.3276 25.4005C29.0165 24.934 28.7746 24.4847 28.7746 24.381C28.7746 24.2946 28.7055 24.2082 28.6364 24.2082C28.5673 24.2082 27.9625 25.0549 27.2713 26.0744C26.5974 27.0939 25.9236 28.1825 25.768 28.4935C25.6125 28.7872 24.8522 29.8067 24.0747 30.7398C23.2971 31.6556 22.3468 32.7442 21.2582 33.8673L21.6901 34.0401C21.9321 34.1265 23.2453 34.714 24.6276 35.3534C26.01 35.9927 27.6342 36.753 28.2563 37.0467C28.8783 37.3232 30.2779 37.8588 31.3665 38.239C32.4551 38.6018 34.2003 39.0684 35.2544 39.2585C36.8095 39.5349 37.8808 39.604 41.1293 39.604C44.6888 39.604 45.069 39.6213 44.8443 39.8632C44.7061 40.0015 43.9977 40.3125 43.2892 40.5371C42.5808 40.7618 41.5613 41.0209 41.0429 41.1419C40.5245 41.2456 39.6778 41.5566 39.1767 41.7985C38.6929 42.0577 37.5179 42.8525 36.5849 43.561C35.6691 44.2694 34.5632 44.9779 34.1312 45.1507C33.5264 45.3753 33.3018 45.4099 33.129 45.2371C33.0081 45.1161 32.9217 45.0816 32.9217 45.168C32.9217 45.2371 32.3169 45.0125 31.5739 44.6669C30.8481 44.3386 29.7768 43.7683 29.2066 43.4228C28.6364 43.0945 26.7702 41.8158 25.0596 40.6062C23.3489 39.3967 20.9817 37.807 19.7894 37.064C18.5972 36.3383 17.2321 35.5607 16.7656 35.3361C16.2817 35.1287 15.3141 34.6795 14.6056 34.3339C13.8972 33.9883 13.1715 33.7118 12.9987 33.7118C12.8432 33.7118 12.7049 33.66 12.7049 33.5909C12.7049 33.5045 12.4457 33.349 12.1347 33.228C11.841 33.1243 11.0288 32.9688 10.3722 32.917C9.26636 32.8133 9.07629 32.8479 8.21232 33.2798C7.69395 33.5563 6.82998 34.0401 6.31161 34.3857C5.79323 34.7313 5.34397 35.0596 5.30941 35.146C5.29213 35.2151 4.89471 35.0596 4.44545 34.8177C3.99619 34.5585 3.21862 34.0401 2.70024 33.6427C2.19914 33.2626 1.43886 32.4332 1.02416 31.8111C0.626732 31.1891 0.21203 30.4806 0.108355 30.2214C-0.0471587 29.8413 -0.0298794 29.7376 0.125634 29.7376C0.246589 29.7376 1.09327 30.0313 1.99179 30.3769C3.54693 30.9817 3.737 31.0163 5.70683 31.0163C6.9855 31.0163 8.03953 30.9299 8.47151 30.7916C8.85166 30.6707 9.35275 30.3596 9.59466 30.1005C9.88841 29.7894 10.0266 29.4093 10.0785 28.7872C10.1303 28.217 10.0439 27.5604 9.78474 26.8001C9.59466 26.1781 9.2318 25.2968 8.57519 23.949L9.11084 22.9123C9.40459 22.3421 9.99209 21.3399 10.4068 20.666C10.8388 20.0094 11.4435 19.1454 11.7546 18.7653C12.0656 18.3851 12.2729 17.9877 12.2211 17.884C12.1347 17.7458 11.6855 17.7803 10.6314 18.005C9.81929 18.1778 8.78254 18.316 8.33328 18.3333C7.88402 18.3333 7.26196 18.2296 6.95094 18.0914C6.63991 17.9704 6.22521 17.6767 6.01786 17.452C5.82779 17.2274 5.44764 16.6572 5.20573 16.1734C4.96382 15.7068 4.68736 15.0157 4.61824 14.6528C4.51456 14.0826 4.53184 14.0135 4.84287 14.0135C5.03294 14.0135 5.87963 14.2035 6.74359 14.4282C7.59027 14.6528 8.74798 14.9638 9.28364 15.1193C9.83657 15.2749 10.5969 15.3958 10.977 15.3958C11.5127 15.3958 11.9101 15.223 12.7222 14.6701C13.2924 14.2554 14.0873 13.7197 15.2104 12.994L15.677 13.3741C15.9362 13.5815 16.3681 14.0826 16.6619 14.4973C16.9556 14.8947 17.1457 15.2749 17.0939 15.3613C17.042 15.4304 16.4718 15.5168 14.692 15.655L15.677 16.6918C16.2299 17.262 16.6619 17.8322 16.6792 17.9531C16.6792 18.0568 16.4545 18.2642 16.1953 18.4024C15.9362 18.5234 15.2277 19.0936 14.6229 19.6465C14.0182 20.2167 13.016 21.3744 12.3939 22.2211C11.3399 23.6726 11.288 23.8108 11.5127 24.1564C11.6509 24.3465 11.9792 24.8994 12.2729 25.3659C12.6358 25.9707 12.8086 26.4718 12.8604 27.2321C12.895 27.906 12.8259 28.5972 12.6358 29.1847C12.4803 29.6685 12.3593 30.1696 12.3593 30.256C12.3593 30.3596 12.6531 30.5152 12.9987 30.6188C13.3615 30.7225 14.813 31.2409 16.2472 31.7593C18.6144 32.6232 18.8563 32.6751 19.0983 32.4159C19.2538 32.2431 19.3574 31.8284 19.3402 31.2409C19.3229 30.6188 19.1501 29.9622 18.7699 29.1328C18.4762 28.4762 18.217 27.8196 18.2343 27.7159C18.2343 27.5777 18.4589 27.4913 18.7872 27.4913C19.1328 27.4913 19.7203 27.7159 20.3078 28.0788C21.1199 28.5799 21.31 28.6317 21.6556 28.4762C21.8802 28.3553 22.6232 27.5777 23.3144 26.7137C24.0056 25.867 25.1114 24.3465 27.064 21.5299L26.7875 20.977C26.6493 20.666 26.3555 20.355 26.1309 20.3031C25.8372 20.234 25.5607 20.3895 24.8868 21.0461C24.403 21.4954 23.1589 22.7049 22.1221 23.7071C20.999 24.7957 19.4784 26.0571 18.4071 26.7656C17.4049 27.4222 16.0398 28.2343 15.3832 28.5626C14.7093 28.8909 13.949 29.2192 13.6898 29.2883C13.3788 29.3575 13.2233 29.3229 13.2233 29.1847C13.2233 29.0637 13.5516 28.6663 13.9663 28.3034C14.3637 27.9406 15.0376 27.3531 15.4523 27.0075C15.867 26.6619 17.1457 25.3659 18.2688 24.1218C19.7721 22.4803 20.6361 21.3399 21.5001 19.8884C22.2776 18.5752 22.8133 17.452 23.0379 16.6054C23.2453 15.8969 23.3835 15.0502 23.3662 14.7392C23.3489 14.4109 23.2453 14.1171 23.1589 14.0653C23.0552 13.9962 22.0876 13.9616 18.9946 13.9271L18.0961 13.2877C17.595 12.9249 17.1284 12.6311 17.0593 12.6311C16.9902 12.6311 16.8001 12.4238 16.3336 11.7672L18.1825 11.7499C19.2019 11.7499 20.3251 11.7153 20.6534 11.6808C20.9817 11.6462 21.9493 11.5253 22.8133 11.4043C23.66 11.3006 25.3361 11.0242 26.5283 10.7823Z" fill="#FFBA1A"/>
<path d="M42.5116 12.8385C42.7881 12.683 43.0473 12.4929 43.0819 12.4238C43.1164 12.3374 43.3065 12.2855 43.5138 12.2855C43.7212 12.2855 44.1186 12.4238 44.4124 12.5966C44.6888 12.7694 45.1554 13.1495 45.4491 13.426C45.7256 13.7197 46.3304 14.3763 46.7796 14.8947C47.2289 15.4131 47.5917 15.9487 47.609 16.087C47.609 16.2252 47.4708 16.4844 47.3153 16.6399C47.1425 16.7954 46.5031 17.0546 45.8811 17.2101C45.259 17.3656 44.1704 17.694 43.462 17.9531C42.7536 18.1951 40.9392 19.0763 36.7231 21.4436L35.9801 20.8733C35.5827 20.545 34.9952 20.0267 34.6669 19.6983C34.2349 19.2491 34.1139 18.9899 34.1485 18.5925C34.2003 18.1259 34.2694 18.0741 34.736 18.1432C35.0124 18.1778 35.7036 18.3851 36.2393 18.6098C36.7922 18.8344 37.3624 18.9899 37.5007 18.9381C37.6389 18.8862 37.7598 18.7825 37.7598 18.6789C37.7598 18.5925 38.2955 17.9186 38.9694 17.2101C39.626 16.5017 40.1789 15.8451 40.1789 15.7414C40.1789 15.655 40.0407 15.6204 39.8679 15.6723C39.7124 15.7241 39.1422 15.8796 38.6238 16.0351C37.9499 16.2252 37.276 16.2771 36.2911 16.2079C35.5308 16.1561 34.3213 15.9487 33.6128 15.7414C32.8698 15.534 32.386 15.3094 32.4897 15.2403C32.5761 15.1539 33.129 14.9293 33.6992 14.7219C34.3213 14.5146 35.168 14.3591 35.8073 14.3591C36.4121 14.3591 37.5007 14.2727 38.2264 14.169C38.9694 14.0653 40.1098 13.7888 40.7837 13.5469C41.4403 13.3223 42.2179 12.994 42.5116 12.8385Z" fill="#FFBA1A"/>
<path fill-rule="evenodd" clip-rule="evenodd" d="M58.6332 3.23121C59.1688 3.28305 60.1192 3.4904 60.7412 3.68047C61.3633 3.87054 61.9681 4.11245 62.089 4.21613C62.21 4.33708 62.4865 5.18377 62.6938 6.11685C63.0567 7.75837 63.0912 7.82749 63.5059 7.7411C63.7478 7.70654 64.6464 7.46463 65.493 7.20544C66.3397 6.96353 67.2555 6.75618 67.5147 6.75618C67.7912 6.75618 68.2059 6.84257 68.4651 6.96353C68.7415 7.0672 69.0871 7.32639 69.2426 7.51646C69.4154 7.72382 69.5537 8.17308 69.5537 8.51866C69.5537 9.03704 69.45 9.24439 69.0698 9.52086C68.7588 9.74549 68.1022 9.91828 67.1346 10.0392C66.3224 10.1429 65.1475 10.3848 63.3331 10.9032V11.7672C63.3331 12.2337 63.4023 12.6311 63.5059 12.6311C63.6096 12.6311 64.4736 12.4065 65.4412 12.13C66.4261 11.8363 67.6011 11.4043 68.9489 10.6786L69.6055 11.0069C69.9684 11.1969 70.4867 11.6116 70.7459 11.94C71.0051 12.2683 71.3507 12.7694 71.4889 13.0631C71.6445 13.3569 71.8172 13.8925 71.8691 14.2727C71.9555 14.791 71.9036 15.1712 71.6445 15.7759C71.4371 16.2425 71.1779 16.6572 71.057 16.709C70.9533 16.7609 70.5386 16.6226 70.1584 16.4153C69.5709 16.087 69.3118 16.0524 68.4305 16.1388C67.8603 16.1906 66.4952 16.3289 65.4066 16.4326C64.3181 16.5362 63.1431 16.6745 62.8148 16.7436C62.3309 16.8473 62.1581 17.0028 61.9508 17.5212C61.8126 17.8667 61.7607 18.2123 61.8298 18.2814C61.9162 18.3678 63.0739 18.316 64.4217 18.195C65.7695 18.0741 67.7739 17.9186 68.8971 17.8495C70.7459 17.7458 70.936 17.7458 71.2816 18.0741C71.5062 18.2642 71.8172 18.748 71.99 19.1454C72.1801 19.5601 72.3183 20.113 72.3183 20.4068C72.3183 20.7524 72.2147 20.9597 72.0073 21.0288C71.8518 21.0807 69.9684 21.1671 67.8257 21.2016C65.6831 21.2535 63.1949 21.3399 60.6549 21.5299L60.603 22.2557C60.5685 22.9987 60.5685 22.9987 61.1214 22.9296C61.4324 22.895 62.3137 22.774 63.0739 22.6358C64.3181 22.4457 64.5081 22.4457 64.9228 22.7049C65.2511 22.895 65.4066 23.1369 65.4066 23.4307C65.4066 23.6726 65.3375 24.0182 65.2339 24.2082C65.1302 24.4329 64.7155 24.6402 64.1453 24.7957C63.6614 24.934 62.4001 25.1759 61.346 25.3314C60.292 25.4869 59.1861 25.5733 58.8751 25.5214C58.5468 25.4523 58.1839 25.2277 57.9766 24.934C57.6828 24.5711 57.6137 24.2082 57.631 23.206C57.631 22.0656 57.5964 21.9619 57.2336 21.8582C57.0262 21.8064 56.6115 21.8064 56.335 21.8582C55.8512 21.9446 55.7994 22.0483 55.5229 23.206C55.3501 23.8972 54.7972 26.0917 54.2788 28.0961C53.4321 31.431 53.2421 31.9493 51.9807 34.4894C51.2204 36.01 50.1836 37.9107 49.6825 38.7228C49.1814 39.5349 48.3347 40.7272 47.7818 41.4011C47.2289 42.075 46.1403 43.2327 45.3454 43.993C44.5506 44.7705 43.5484 45.5999 43.1164 45.8591C42.6844 46.101 41.9069 46.4639 41.3885 46.6367C40.8701 46.8268 40.1444 47.1205 39.7815 47.2933C39.3553 47.5122 39.0846 47.564 38.9694 47.4488C38.8484 47.3279 39.3841 46.8095 40.6455 45.8073C41.6477 44.9952 42.8399 43.9066 43.2719 43.3882C43.7039 42.8698 44.4988 41.8158 45.0344 41.0555C45.5701 40.2952 46.434 38.8265 46.9524 37.7724C47.4881 36.7184 48.2311 35.1287 48.6112 34.2302C48.9914 33.3317 49.648 31.31 50.0799 29.7376C50.5119 28.1652 50.9439 26.1089 51.0649 25.1586C51.1685 24.2082 51.3586 22.9987 51.4623 22.4803C51.5832 21.9446 51.6696 20.2167 51.6524 18.5061C51.6524 16.4326 51.5487 14.9984 51.3586 13.9616C51.2031 13.1322 51.1167 12.3719 51.1858 12.251C51.2722 12.13 51.6005 12.0955 52.1016 12.1473C52.5336 12.1991 53.1557 12.3892 53.484 12.5447C53.8123 12.7175 54.417 13.1149 54.8145 13.426C55.2637 13.7716 55.7475 14.0135 56.024 14.0135C56.3005 14.0135 57.0953 13.8925 57.8038 13.737C58.5122 13.5988 59.1688 13.426 59.238 13.3569C59.3243 13.2877 59.3589 11.6808 59.3071 9.78005C59.2552 7.20544 59.1688 6.16868 58.9788 5.71942C58.8405 5.39112 58.4431 4.75178 58.0802 4.28524C57.7347 3.83598 57.4927 3.38672 57.5619 3.30033C57.6137 3.19665 58.0457 3.16209 58.6332 3.23121V3.23121ZM84.3274 7.46463C85.0877 7.46463 86.1763 7.58558 86.7465 7.72382C87.3167 7.87933 88.198 8.24219 88.7164 8.55322C89.4766 9.00248 89.7186 9.26167 90.1333 10.1256C90.4097 10.6958 90.6344 11.4561 90.6344 11.819C90.6344 12.3892 90.548 12.5274 89.8222 13.0631C89.3557 13.3914 88.7855 13.6679 88.5263 13.6679C88.2498 13.6679 87.8351 13.5815 87.5759 13.4605C87.2995 13.3396 86.6601 12.9594 86.1417 12.6138C85.6234 12.251 84.3793 11.1624 83.3943 10.1775C82.133 8.89881 81.6491 8.32859 81.7528 8.1558C81.8219 8.01756 82.133 7.81021 82.4094 7.68926C82.7032 7.5683 83.5671 7.46463 84.3274 7.46463V7.46463ZM58.4085 26.3508C59.0652 26.42 59.86 26.6792 60.5339 27.0247C61.1387 27.3358 61.7953 27.7677 62.0026 27.9751C62.3655 28.3552 62.3828 28.5453 62.3482 30.6534C62.3309 31.9148 62.21 33.7464 62.0718 34.7486C61.9335 35.7508 61.8471 36.6147 61.8817 36.7011C61.9162 36.7702 62.21 36.8221 62.521 36.8221C62.8148 36.8394 63.1603 36.7357 63.2813 36.6147C63.385 36.4938 63.5578 35.6816 63.6614 34.835C63.7651 33.9883 63.9206 32.7787 64.007 32.1567C64.0761 31.5346 64.2835 30.7743 64.4736 30.4633C64.6464 30.1523 64.9574 29.8413 65.1475 29.7894C65.3375 29.7376 65.5967 29.7376 65.7177 29.8067C65.8213 29.8585 66.046 30.1696 66.2015 30.4806C66.4607 30.9644 66.4607 31.2063 66.2879 32.5023C66.1669 33.3144 66.0114 34.403 65.925 34.9214C65.8559 35.4397 65.8213 35.9236 65.8559 36.01C65.8905 36.0791 66.0633 36.1309 66.236 36.1309C66.3916 36.1482 66.6335 36.0445 66.7371 35.9236C66.8581 35.8026 67.1 35.1114 67.2901 34.403C67.4802 33.6945 67.8257 32.485 68.0849 31.7247C68.5169 30.3942 68.5169 30.3251 68.2232 30.0313C67.9467 29.7549 67.9467 29.6857 68.1713 29.5475C68.3096 29.4438 68.8452 29.1846 69.3463 28.9427C69.8301 28.7181 70.3658 28.528 70.504 28.528C70.6768 28.528 70.7632 28.7008 70.7632 29.0464C70.7632 29.3402 70.6077 29.9795 70.4003 30.4806C70.2103 30.9644 69.9338 31.6901 69.8129 32.0703C69.6919 32.4504 69.4154 33.3489 69.2081 34.0574C68.8452 35.3188 68.8452 35.3533 69.1562 35.578C69.329 35.6989 69.6228 35.7853 69.8129 35.7853C70.0029 35.7853 70.4522 35.889 70.8151 36.0445C71.1606 36.1827 71.7309 36.5802 72.0592 36.9085C72.3875 37.2368 72.8194 37.8416 73.0268 38.2563C73.2169 38.6537 73.3378 39.0857 73.286 39.2066C73.1996 39.3621 72.5084 39.3967 70.2103 39.3103C68.1713 39.2239 66.8063 39.2585 65.925 39.3967C65.2166 39.5176 63.7824 39.8632 62.7284 40.1915C61.6743 40.5026 60.171 41.0728 59.3589 41.4702C58.5468 41.8503 57.5446 42.3687 57.1126 42.6106C56.6806 42.8353 56.1622 43.0426 55.9549 43.0426C55.6784 43.0426 55.281 42.697 54.6244 41.8849C54.1233 41.2283 53.5358 40.5544 53.3112 40.3643C53.1038 40.1743 52.7064 39.7077 52.4472 39.3276C52.188 38.9474 51.8943 38.4118 51.6696 37.6169L53.8295 37.7724C55.0218 37.8416 56.6461 37.8934 57.4582 37.8761C58.2703 37.8416 59.0479 37.7724 59.1861 37.686C59.3243 37.6169 59.4971 37.2886 59.5835 36.9776C59.6527 36.6493 59.7045 35.3188 59.7045 34.0228C59.7045 31.9839 59.6527 31.5346 59.3589 30.9471C59.1688 30.567 58.7541 29.9622 58.4258 29.6166C58.0975 29.2538 57.6655 28.5972 57.4755 28.1479C57.2681 27.6814 57.0953 27.1284 57.078 26.9211C57.0608 26.6964 57.1299 26.4545 57.2163 26.3854C57.3027 26.3163 57.8383 26.299 58.4085 26.3508V26.3508ZM55.4365 32.9342C56.1507 33.0149 56.6979 33.1934 57.078 33.4699C57.3718 33.6945 57.6828 34.0574 57.7347 34.282C57.7865 34.4894 57.7347 35.0596 57.5964 35.5261C57.4064 36.2346 57.2854 36.4074 56.9398 36.4419C56.6633 36.4765 56.1795 36.2864 55.6439 35.9063C55.1082 35.5434 54.6244 35.025 54.3825 34.5585C54.0542 33.9192 54.0196 33.7291 54.1751 33.3144C54.3825 32.8133 54.3825 32.8133 55.4365 32.9342Z" fill="#FFBA1A"/>
<path d="M56.8534 16.7436C57.0435 16.6399 57.51 16.5017 57.8902 16.4326C58.2703 16.3634 58.685 16.2943 58.806 16.277C58.9096 16.2598 59.0652 16.3634 59.117 16.4671C59.1688 16.5881 59.0306 17.1928 58.806 17.7976C58.5813 18.4024 58.3394 18.938 58.2358 19.0072C58.1321 19.059 57.6828 19.2491 57.199 19.4046C56.7325 19.5774 56.2832 19.7156 56.2141 19.7156C56.1277 19.7156 56.0759 19.5083 56.0759 19.2318C56.0931 18.9726 56.1795 18.3506 56.3005 17.8495C56.4387 17.262 56.6288 16.8645 56.8534 16.7436Z" fill="#4F3422"/>
</svg>
